<?xml version="1.0" encoding="UTF-8" standalone="no"?>
<!DOCTYPE svg PUBLIC "-//W3C//DTD SVG 1.1//EN"
 "http://www.w3.org/Graphics/SVG/1.1/DTD/svg11.dtd">
<!-- Generated by graphviz version 2.47.0 (20210316.0004)
 -->
<!-- Title: dependencies Pages: 1 -->
<svg width="710pt" height="284pt"
 viewBox="0.00 0.00 710.00 284.00" xmlns="http://www.w3.org/2000/svg" xmlns:xlink="http://www.w3.org/1999/xlink">
<g id="graph0" class="graph" transform="scale(1 1) rotate(0) translate(4 280)">
<title>dependencies</title>
<polygon fill="white" stroke="transparent" points="-4,4 -4,-280 706,-280 706,4 -4,4"/>
<text text-anchor="start" x="330.01" y="-42.4" font-family="Times-12" font-weight="bold" font-size="14.00">Legend</text>
<polygon fill="#ffffb3" stroke="transparent" points="117,-10 117,-30 137,-30 137,-10 117,-10"/>
<text text-anchor="start" x="140.63" y="-15.4" font-family="Times-12" font-size="14.00"> &#160;Declarations</text>
<polygon fill="#8dd3c7" stroke="transparent" points="230,-10 230,-30 250,-30 250,-10 230,-10"/>
<text text-anchor="start" x="253.73" y="-15.4" font-family="Times-12" font-size="14.00"> &#160;Module</text>
<polygon fill="#80b1d3" stroke="transparent" points="316,-10 316,-30 336,-30 336,-10 316,-10"/>
<text text-anchor="start" x="339.78" y="-15.4" font-family="Times-12" font-size="14.00"> &#160;Bootstrap</text>
<polygon fill="#fdb462" stroke="transparent" points="413,-10 413,-30 433,-30 433,-10 413,-10"/>
<text text-anchor="start" x="436.67" y="-15.4" font-family="Times-12" font-size="14.00"> &#160;Providers</text>
<polygon fill="#fb8072" stroke="transparent" points="509,-10 509,-30 529,-30 529,-10 509,-10"/>
<text text-anchor="start" x="532.73" y="-15.4" font-family="Times-12" font-size="14.00"> &#160;Exports</text>
<g id="clust1" class="cluster">
<title>cluster_EventsModule</title>
<polygon fill="none" stroke="black" stroke-dasharray="1,5" points="8,-70 8,-268 694,-268 694,-70 8,-70"/>
</g>
<g id="clust3" class="cluster">
<title>cluster_EventsModule_imports</title>
<polygon fill="none" stroke="black" points="172,-78 172,-130 686,-130 686,-78 172,-78"/>
</g>
<g id="clust4" class="cluster">
<title>cluster_EventsModule_exports</title>
<polygon fill="none" stroke="black" points="360,-208 360,-260 476,-260 476,-208 360,-208"/>
</g>
<g id="clust6" class="cluster">
<title>cluster_EventsModule_providers</title>
<polygon fill="none" stroke="black" points="16,-78 16,-130 164,-130 164,-78 16,-78"/>
</g>
<!-- ActaModule -->
<g id="node1" class="node">
<title>ActaModule</title>
<polygon fill="#8dd3c7" stroke="black" points="677.98,-122 674.98,-126 653.98,-126 650.98,-122 592.02,-122 592.02,-86 677.98,-86 677.98,-122"/>
<text text-anchor="middle" x="635" y="-99.8" font-family="Times,serif" font-size="14.00">ActaModule</text>
</g>
<!-- EventsModule -->
<g id="node5" class="node">
<title>EventsModule</title>
<polygon fill="#8dd3c7" stroke="black" points="466.65,-187 463.65,-191 442.65,-191 439.65,-187 369.35,-187 369.35,-151 466.65,-151 466.65,-187"/>
<text text-anchor="middle" x="418" y="-164.8" font-family="Times,serif" font-size="14.00">EventsModule</text>
</g>
<!-- ActaModule&#45;&gt;EventsModule -->
<g id="edge1" class="edge">
<title>ActaModule&#45;&gt;EventsModule</title>
<path fill="none" stroke="black" d="M635,-122.28C635,-143.32 635,-175 635,-175 635,-175 476.7,-175 476.7,-175"/>
<polygon fill="black" stroke="black" points="476.7,-171.5 466.7,-175 476.7,-178.5 476.7,-171.5"/>
</g>
<!-- AuthModule -->
<g id="node2" class="node">
<title>AuthModule</title>
<polygon fill="#8dd3c7" stroke="black" points="573.55,-122 570.55,-126 549.55,-126 546.55,-122 486.45,-122 486.45,-86 573.55,-86 573.55,-122"/>
<text text-anchor="middle" x="530" y="-99.8" font-family="Times,serif" font-size="14.00">AuthModule</text>
</g>
<!-- AuthModule&#45;&gt;EventsModule -->
<g id="edge2" class="edge">
<title>AuthModule&#45;&gt;EventsModule</title>
<path fill="none" stroke="black" d="M530,-122.02C530,-139.37 530,-163 530,-163 530,-163 476.8,-163 476.8,-163"/>
<polygon fill="black" stroke="black" points="476.8,-159.5 466.8,-163 476.8,-166.5 476.8,-159.5"/>
</g>
<!-- LoggerModule -->
<g id="node3" class="node">
<title>LoggerModule</title>
<polygon fill="#8dd3c7" stroke="black" points="467.98,-122 464.98,-126 443.98,-126 440.98,-122 368.02,-122 368.02,-86 467.98,-86 467.98,-122"/>
<text text-anchor="middle" x="418" y="-99.8" font-family="Times,serif" font-size="14.00">LoggerModule</text>
</g>
<!-- LoggerModule&#45;&gt;EventsModule -->
<g id="edge3" class="edge">
<title>LoggerModule&#45;&gt;EventsModule</title>
<path fill="none" stroke="black" d="M418,-122.11C418,-122.11 418,-140.99 418,-140.99"/>
<polygon fill="black" stroke="black" points="414.5,-140.99 418,-150.99 421.5,-140.99 414.5,-140.99"/>
</g>
<!-- ParticipationEventsModule -->
<g id="node4" class="node">
<title>ParticipationEventsModule</title>
<polygon fill="#8dd3c7" stroke="black" points="349.69,-122 346.69,-126 325.69,-126 322.69,-122 180.31,-122 180.31,-86 349.69,-86 349.69,-122"/>
<text text-anchor="middle" x="265" y="-99.8" font-family="Times,serif" font-size="14.00">ParticipationEventsModule</text>
</g>
<!-- ParticipationEventsModule&#45;&gt;EventsModule -->
<g id="edge4" class="edge">
<title>ParticipationEventsModule&#45;&gt;EventsModule</title>
<path fill="none" stroke="black" d="M265,-122.02C265,-139.37 265,-163 265,-163 265,-163 359.17,-163 359.17,-163"/>
<polygon fill="black" stroke="black" points="359.17,-166.5 369.17,-163 359.17,-159.5 359.17,-166.5"/>
</g>
<!-- EventsService  -->
<g id="node6" class="node">
<title>EventsService </title>
<polygon fill="#fb8072" stroke="black" points="467.58,-252 368.42,-252 368.42,-216 467.58,-216 467.58,-252"/>
<text text-anchor="middle" x="418" y="-229.8" font-family="Times,serif" font-size="14.00">EventsService </text>
</g>
<!-- EventsModule&#45;&gt;EventsService  -->
<g id="edge5" class="edge">
<title>EventsModule&#45;&gt;EventsService </title>
<path fill="none" stroke="black" stroke-dasharray="5,2" d="M418,-187.11C418,-187.11 418,-205.99 418,-205.99"/>
<polygon fill="black" stroke="black" points="414.5,-205.99 418,-215.99 421.5,-205.99 414.5,-205.99"/>
</g>
<!-- EventsService -->
<g id="node7" class="node">
<title>EventsService</title>
<ellipse fill="#fdb462" stroke="black" cx="90" cy="-104" rx="66.05" ry="18"/>
<text text-anchor="middle" x="90" y="-99.8" font-family="Times,serif" font-size="14.00">EventsService</text>
</g>
<!-- EventsService&#45;&gt;EventsModule -->
<g id="edge6" class="edge">
<title>EventsService&#45;&gt;EventsModule</title>
<path fill="none" stroke="black" d="M90,-122.28C90,-143.32 90,-175 90,-175 90,-175 359.25,-175 359.25,-175"/>
<polygon fill="black" stroke="black" points="359.25,-178.5 369.25,-175 359.25,-171.5 359.25,-178.5"/>
</g>
</g>
</svg>
