<?xml version="1.0" encoding="UTF-8" standalone="no"?>
<!DOCTYPE svg PUBLIC "-//W3C//DTD SVG 1.1//EN"
 "http://www.w3.org/Graphics/SVG/1.1/DTD/svg11.dtd">
<!-- Generated by graphviz version 2.47.0 (20210316.0004)
 -->
<!-- Title: dependencies Pages: 1 -->
<svg width="504pt" height="284pt"
 viewBox="0.00 0.00 504.00 284.00" xmlns="http://www.w3.org/2000/svg" xmlns:xlink="http://www.w3.org/1999/xlink">
<g id="graph0" class="graph" transform="scale(1 1) rotate(0) translate(4 280)">
<title>dependencies</title>
<polygon fill="white" stroke="transparent" points="-4,4 -4,-280 500,-280 500,4 -4,4"/>
<text text-anchor="start" x="227.01" y="-42.4" font-family="Times-12" font-weight="bold" font-size="14.00">Legend</text>
<polygon fill="#ffffb3" stroke="transparent" points="14,-10 14,-30 34,-30 34,-10 14,-10"/>
<text text-anchor="start" x="37.63" y="-15.4" font-family="Times-12" font-size="14.00"> &#160;Declarations</text>
<polygon fill="#8dd3c7" stroke="transparent" points="127,-10 127,-30 147,-30 147,-10 127,-10"/>
<text text-anchor="start" x="150.73" y="-15.4" font-family="Times-12" font-size="14.00"> &#160;Module</text>
<polygon fill="#80b1d3" stroke="transparent" points="213,-10 213,-30 233,-30 233,-10 213,-10"/>
<text text-anchor="start" x="236.78" y="-15.4" font-family="Times-12" font-size="14.00"> &#160;Bootstrap</text>
<polygon fill="#fdb462" stroke="transparent" points="310,-10 310,-30 330,-30 330,-10 310,-10"/>
<text text-anchor="start" x="333.67" y="-15.4" font-family="Times-12" font-size="14.00"> &#160;Providers</text>
<polygon fill="#fb8072" stroke="transparent" points="406,-10 406,-30 426,-30 426,-10 406,-10"/>
<text text-anchor="start" x="429.73" y="-15.4" font-family="Times-12" font-size="14.00"> &#160;Exports</text>
<g id="clust1" class="cluster">
<title>cluster_UserLogModule</title>
<polygon fill="none" stroke="black" stroke-dasharray="1,5" points="43,-70 43,-268 453,-268 453,-70 43,-70"/>
</g>
<g id="clust6" class="cluster">
<title>cluster_UserLogModule_providers</title>
<polygon fill="none" stroke="black" points="281,-78 281,-130 445,-130 445,-78 281,-78"/>
</g>
<g id="clust4" class="cluster">
<title>cluster_UserLogModule_exports</title>
<polygon fill="none" stroke="black" points="158,-208 158,-260 284,-260 284,-208 158,-208"/>
</g>
<g id="clust3" class="cluster">
<title>cluster_UserLogModule_imports</title>
<polygon fill="none" stroke="black" points="51,-78 51,-130 273,-130 273,-78 51,-78"/>
</g>
<!-- AuthModule -->
<g id="node1" class="node">
<title>AuthModule</title>
<polygon fill="#8dd3c7" stroke="black" points="264.55,-122 261.55,-126 240.55,-126 237.55,-122 177.45,-122 177.45,-86 264.55,-86 264.55,-122"/>
<text text-anchor="middle" x="221" y="-99.8" font-family="Times,serif" font-size="14.00">AuthModule</text>
</g>
<!-- UserLogModule -->
<g id="node3" class="node">
<title>UserLogModule</title>
<polygon fill="#8dd3c7" stroke="black" points="275.03,-187 272.03,-191 251.03,-191 248.03,-187 166.97,-187 166.97,-151 275.03,-151 275.03,-187"/>
<text text-anchor="middle" x="221" y="-164.8" font-family="Times,serif" font-size="14.00">UserLogModule</text>
</g>
<!-- AuthModule&#45;&gt;UserLogModule -->
<g id="edge1" class="edge">
<title>AuthModule&#45;&gt;UserLogModule</title>
<path fill="none" stroke="black" d="M221,-122.11C221,-122.11 221,-140.99 221,-140.99"/>
<polygon fill="black" stroke="black" points="217.5,-140.99 221,-150.99 224.5,-140.99 217.5,-140.99"/>
</g>
<!-- LoggerModule -->
<g id="node2" class="node">
<title>LoggerModule</title>
<polygon fill="#8dd3c7" stroke="black" points="158.98,-122 155.98,-126 134.98,-126 131.98,-122 59.02,-122 59.02,-86 158.98,-86 158.98,-122"/>
<text text-anchor="middle" x="109" y="-99.8" font-family="Times,serif" font-size="14.00">LoggerModule</text>
</g>
<!-- LoggerModule&#45;&gt;UserLogModule -->
<g id="edge2" class="edge">
<title>LoggerModule&#45;&gt;UserLogModule</title>
<path fill="none" stroke="black" d="M159.24,-104C166.72,-104 171.98,-104 171.98,-104 171.98,-104 171.98,-140.89 171.98,-140.89"/>
<polygon fill="black" stroke="black" points="168.48,-140.89 171.98,-150.89 175.48,-140.89 168.48,-140.89"/>
</g>
<!-- UserLogService  -->
<g id="node4" class="node">
<title>UserLogService </title>
<polygon fill="#fb8072" stroke="black" points="276.46,-252 165.54,-252 165.54,-216 276.46,-216 276.46,-252"/>
<text text-anchor="middle" x="221" y="-229.8" font-family="Times,serif" font-size="14.00">UserLogService </text>
</g>
<!-- UserLogModule&#45;&gt;UserLogService  -->
<g id="edge3" class="edge">
<title>UserLogModule&#45;&gt;UserLogService </title>
<path fill="none" stroke="black" stroke-dasharray="5,2" d="M221,-187.11C221,-187.11 221,-205.99 221,-205.99"/>
<polygon fill="black" stroke="black" points="217.5,-205.99 221,-215.99 224.5,-205.99 217.5,-205.99"/>
</g>
<!-- UserLogService -->
<g id="node5" class="node">
<title>UserLogService</title>
<ellipse fill="#fdb462" stroke="black" cx="363" cy="-104" rx="73.55" ry="18"/>
<text text-anchor="middle" x="363" y="-99.8" font-family="Times,serif" font-size="14.00">UserLogService</text>
</g>
<!-- UserLogService&#45;&gt;UserLogModule -->
<g id="edge4" class="edge">
<title>UserLogService&#45;&gt;UserLogModule</title>
<path fill="none" stroke="black" d="M288.84,-104C277.79,-104 270.02,-104 270.02,-104 270.02,-104 270.02,-140.89 270.02,-140.89"/>
<polygon fill="black" stroke="black" points="266.52,-140.89 270.02,-150.89 273.52,-140.89 266.52,-140.89"/>
</g>
</g>
</svg>
