<?xml version="1.0" encoding="UTF-8" standalone="no"?>
<!DOCTYPE svg PUBLIC "-//W3C//DTD SVG 1.1//EN"
 "http://www.w3.org/Graphics/SVG/1.1/DTD/svg11.dtd">
<!-- Generated by graphviz version 2.47.0 (20210316.0004)
 -->
<!-- Title: dependencies Pages: 1 -->
<svg width="504pt" height="284pt"
 viewBox="0.00 0.00 504.00 284.00" xmlns="http://www.w3.org/2000/svg" xmlns:xlink="http://www.w3.org/1999/xlink">
<g id="graph0" class="graph" transform="scale(1 1) rotate(0) translate(4 280)">
<title>dependencies</title>
<polygon fill="white" stroke="transparent" points="-4,4 -4,-280 500,-280 500,4 -4,4"/>
<text text-anchor="start" x="227.01" y="-42.4" font-family="Times-12" font-weight="bold" font-size="14.00">Legend</text>
<polygon fill="#ffffb3" stroke="transparent" points="14,-10 14,-30 34,-30 34,-10 14,-10"/>
<text text-anchor="start" x="37.63" y="-15.4" font-family="Times-12" font-size="14.00"> &#160;Declarations</text>
<polygon fill="#8dd3c7" stroke="transparent" points="127,-10 127,-30 147,-30 147,-10 127,-10"/>
<text text-anchor="start" x="150.73" y="-15.4" font-family="Times-12" font-size="14.00"> &#160;Module</text>
<polygon fill="#80b1d3" stroke="transparent" points="213,-10 213,-30 233,-30 233,-10 213,-10"/>
<text text-anchor="start" x="236.78" y="-15.4" font-family="Times-12" font-size="14.00"> &#160;Bootstrap</text>
<polygon fill="#fdb462" stroke="transparent" points="310,-10 310,-30 330,-30 330,-10 310,-10"/>
<text text-anchor="start" x="333.67" y="-15.4" font-family="Times-12" font-size="14.00"> &#160;Providers</text>
<polygon fill="#fb8072" stroke="transparent" points="406,-10 406,-30 426,-30 426,-10 406,-10"/>
<text text-anchor="start" x="429.73" y="-15.4" font-family="Times-12" font-size="14.00"> &#160;Exports</text>
<g id="clust1" class="cluster">
<title>cluster_EmailsModule</title>
<polygon fill="none" stroke="black" stroke-dasharray="1,5" points="103,-70 103,-268 393,-268 393,-70 103,-70"/>
</g>
<g id="clust3" class="cluster">
<title>cluster_EmailsModule_imports</title>
<polygon fill="none" stroke="black" points="269,-78 269,-130 385,-130 385,-78 269,-78"/>
</g>
<g id="clust6" class="cluster">
<title>cluster_EmailsModule_providers</title>
<polygon fill="none" stroke="black" points="111,-78 111,-130 261,-130 261,-78 111,-78"/>
</g>
<g id="clust4" class="cluster">
<title>cluster_EmailsModule_exports</title>
<polygon fill="none" stroke="black" points="198,-208 198,-260 314,-260 314,-208 198,-208"/>
</g>
<!-- LoggerModule -->
<g id="node1" class="node">
<title>LoggerModule</title>
<polygon fill="#8dd3c7" stroke="black" points="376.98,-122 373.98,-126 352.98,-126 349.98,-122 277.02,-122 277.02,-86 376.98,-86 376.98,-122"/>
<text text-anchor="middle" x="327" y="-99.8" font-family="Times,serif" font-size="14.00">LoggerModule</text>
</g>
<!-- EmailsModule -->
<g id="node2" class="node">
<title>EmailsModule</title>
<polygon fill="#8dd3c7" stroke="black" points="305.43,-187 302.43,-191 281.43,-191 278.43,-187 206.57,-187 206.57,-151 305.43,-151 305.43,-187"/>
<text text-anchor="middle" x="256" y="-164.8" font-family="Times,serif" font-size="14.00">EmailsModule</text>
</g>
<!-- LoggerModule&#45;&gt;EmailsModule -->
<g id="edge1" class="edge">
<title>LoggerModule&#45;&gt;EmailsModule</title>
<path fill="none" stroke="black" d="M291.11,-122.11C291.11,-122.11 291.11,-140.99 291.11,-140.99"/>
<polygon fill="black" stroke="black" points="287.61,-140.99 291.11,-150.99 294.61,-140.99 287.61,-140.99"/>
</g>
<!-- EmailsService  -->
<g id="node3" class="node">
<title>EmailsService </title>
<polygon fill="#fb8072" stroke="black" points="306.36,-252 205.64,-252 205.64,-216 306.36,-216 306.36,-252"/>
<text text-anchor="middle" x="256" y="-229.8" font-family="Times,serif" font-size="14.00">EmailsService </text>
</g>
<!-- EmailsModule&#45;&gt;EmailsService  -->
<g id="edge2" class="edge">
<title>EmailsModule&#45;&gt;EmailsService </title>
<path fill="none" stroke="black" stroke-dasharray="5,2" d="M256,-187.11C256,-187.11 256,-205.99 256,-205.99"/>
<polygon fill="black" stroke="black" points="252.5,-205.99 256,-215.99 259.5,-205.99 252.5,-205.99"/>
</g>
<!-- EmailsService -->
<g id="node4" class="node">
<title>EmailsService</title>
<ellipse fill="#fdb462" stroke="black" cx="186" cy="-104" rx="66.63" ry="18"/>
<text text-anchor="middle" x="186" y="-99.8" font-family="Times,serif" font-size="14.00">EmailsService</text>
</g>
<!-- EmailsService&#45;&gt;EmailsModule -->
<g id="edge3" class="edge">
<title>EmailsService&#45;&gt;EmailsModule</title>
<path fill="none" stroke="black" d="M229.8,-117.78C229.8,-117.78 229.8,-140.55 229.8,-140.55"/>
<polygon fill="black" stroke="black" points="226.3,-140.55 229.8,-150.55 233.3,-140.55 226.3,-140.55"/>
</g>
</g>
</svg>
