<?xml version="1.0" encoding="UTF-8" standalone="no"?>
<!DOCTYPE svg PUBLIC "-//W3C//DTD SVG 1.1//EN"
 "http://www.w3.org/Graphics/SVG/1.1/DTD/svg11.dtd">
<!-- Generated by graphviz version 2.47.0 (20210316.0004)
 -->
<!-- Title: dependencies Pages: 1 -->
<svg width="504pt" height="284pt"
 viewBox="0.00 0.00 504.00 284.00" xmlns="http://www.w3.org/2000/svg" xmlns:xlink="http://www.w3.org/1999/xlink">
<g id="graph0" class="graph" transform="scale(1 1) rotate(0) translate(4 280)">
<title>dependencies</title>
<polygon fill="white" stroke="transparent" points="-4,4 -4,-280 500,-280 500,4 -4,4"/>
<text text-anchor="start" x="227.01" y="-42.4" font-family="Times-12" font-weight="bold" font-size="14.00">Legend</text>
<polygon fill="#ffffb3" stroke="transparent" points="14,-10 14,-30 34,-30 34,-10 14,-10"/>
<text text-anchor="start" x="37.63" y="-15.4" font-family="Times-12" font-size="14.00"> &#160;Declarations</text>
<polygon fill="#8dd3c7" stroke="transparent" points="127,-10 127,-30 147,-30 147,-10 127,-10"/>
<text text-anchor="start" x="150.73" y="-15.4" font-family="Times-12" font-size="14.00"> &#160;Module</text>
<polygon fill="#80b1d3" stroke="transparent" points="213,-10 213,-30 233,-30 233,-10 213,-10"/>
<text text-anchor="start" x="236.78" y="-15.4" font-family="Times-12" font-size="14.00"> &#160;Bootstrap</text>
<polygon fill="#fdb462" stroke="transparent" points="310,-10 310,-30 330,-30 330,-10 310,-10"/>
<text text-anchor="start" x="333.67" y="-15.4" font-family="Times-12" font-size="14.00"> &#160;Providers</text>
<polygon fill="#fb8072" stroke="transparent" points="406,-10 406,-30 426,-30 426,-10 406,-10"/>
<text text-anchor="start" x="429.73" y="-15.4" font-family="Times-12" font-size="14.00"> &#160;Exports</text>
<g id="clust1" class="cluster">
<title>cluster_StartupModule</title>
<polygon fill="none" stroke="black" stroke-dasharray="1,5" points="37.5,-70 37.5,-268 458.5,-268 458.5,-70 37.5,-70"/>
</g>
<g id="clust4" class="cluster">
<title>cluster_StartupModule_exports</title>
<polygon fill="none" stroke="black" points="179.5,-208 179.5,-260 297.5,-260 297.5,-208 179.5,-208"/>
</g>
<g id="clust6" class="cluster">
<title>cluster_StartupModule_providers</title>
<polygon fill="none" stroke="black" points="298.5,-78 298.5,-130 450.5,-130 450.5,-78 298.5,-78"/>
</g>
<g id="clust3" class="cluster">
<title>cluster_StartupModule_imports</title>
<polygon fill="none" stroke="black" points="45.5,-78 45.5,-130 290.5,-130 290.5,-78 45.5,-78"/>
</g>
<!-- AuthModule -->
<g id="node1" class="node">
<title>AuthModule</title>
<polygon fill="#8dd3c7" stroke="black" points="282.05,-122 279.05,-126 258.05,-126 255.05,-122 194.95,-122 194.95,-86 282.05,-86 282.05,-122"/>
<text text-anchor="middle" x="238.5" y="-99.8" font-family="Times,serif" font-size="14.00">AuthModule</text>
</g>
<!-- StartupModule -->
<g id="node3" class="node">
<title>StartupModule</title>
<polygon fill="#8dd3c7" stroke="black" points="288.49,-187 285.49,-191 264.49,-191 261.49,-187 188.51,-187 188.51,-151 288.49,-151 288.49,-187"/>
<text text-anchor="middle" x="238.5" y="-164.8" font-family="Times,serif" font-size="14.00">StartupModule</text>
</g>
<!-- AuthModule&#45;&gt;StartupModule -->
<g id="edge1" class="edge">
<title>AuthModule&#45;&gt;StartupModule</title>
<path fill="none" stroke="black" d="M238.5,-122.11C238.5,-122.11 238.5,-140.99 238.5,-140.99"/>
<polygon fill="black" stroke="black" points="235,-140.99 238.5,-150.99 242,-140.99 235,-140.99"/>
</g>
<!-- DownloadsModule -->
<g id="node2" class="node">
<title>DownloadsModule</title>
<polygon fill="#8dd3c7" stroke="black" points="177.31,-122 174.31,-126 153.31,-126 150.31,-122 53.69,-122 53.69,-86 177.31,-86 177.31,-122"/>
<text text-anchor="middle" x="115.5" y="-99.8" font-family="Times,serif" font-size="14.00">DownloadsModule</text>
</g>
<!-- DownloadsModule&#45;&gt;StartupModule -->
<g id="edge2" class="edge">
<title>DownloadsModule&#45;&gt;StartupModule</title>
<path fill="none" stroke="black" d="M115.5,-122.11C115.5,-141.34 115.5,-169 115.5,-169 115.5,-169 178.47,-169 178.47,-169"/>
<polygon fill="black" stroke="black" points="178.47,-172.5 188.47,-169 178.47,-165.5 178.47,-172.5"/>
</g>
<!-- StartupService  -->
<g id="node4" class="node">
<title>StartupService </title>
<polygon fill="#fb8072" stroke="black" points="289.42,-252 187.58,-252 187.58,-216 289.42,-216 289.42,-252"/>
<text text-anchor="middle" x="238.5" y="-229.8" font-family="Times,serif" font-size="14.00">StartupService </text>
</g>
<!-- StartupModule&#45;&gt;StartupService  -->
<g id="edge3" class="edge">
<title>StartupModule&#45;&gt;StartupService </title>
<path fill="none" stroke="black" stroke-dasharray="5,2" d="M238.5,-187.11C238.5,-187.11 238.5,-205.99 238.5,-205.99"/>
<polygon fill="black" stroke="black" points="235,-205.99 238.5,-215.99 242,-205.99 235,-205.99"/>
</g>
<!-- StartupService -->
<g id="node5" class="node">
<title>StartupService</title>
<ellipse fill="#fdb462" stroke="black" cx="374.5" cy="-104" rx="67.77" ry="18"/>
<text text-anchor="middle" x="374.5" y="-99.8" font-family="Times,serif" font-size="14.00">StartupService</text>
</g>
<!-- StartupService&#45;&gt;StartupModule -->
<g id="edge4" class="edge">
<title>StartupService&#45;&gt;StartupModule</title>
<path fill="none" stroke="black" d="M374.5,-122.11C374.5,-141.34 374.5,-169 374.5,-169 374.5,-169 298.75,-169 298.75,-169"/>
<polygon fill="black" stroke="black" points="298.76,-165.5 288.75,-169 298.75,-172.5 298.76,-165.5"/>
</g>
</g>
</svg>
