<?xml version="1.0" encoding="UTF-8" standalone="no"?>
<!DOCTYPE svg PUBLIC "-//W3C//DTD SVG 1.1//EN"
 "http://www.w3.org/Graphics/SVG/1.1/DTD/svg11.dtd">
<!-- Generated by graphviz version 2.47.0 (20210316.0004)
 -->
<!-- Title: dependencies Pages: 1 -->
<svg width="508pt" height="284pt"
 viewBox="0.00 0.00 508.00 284.00" xmlns="http://www.w3.org/2000/svg" xmlns:xlink="http://www.w3.org/1999/xlink">
<g id="graph0" class="graph" transform="scale(1 1) rotate(0) translate(4 280)">
<title>dependencies</title>
<polygon fill="white" stroke="transparent" points="-4,4 -4,-280 504,-280 504,4 -4,4"/>
<text text-anchor="start" x="229.01" y="-42.4" font-family="Times-12" font-weight="bold" font-size="14.00">Legend</text>
<polygon fill="#ffffb3" stroke="transparent" points="16,-10 16,-30 36,-30 36,-10 16,-10"/>
<text text-anchor="start" x="39.63" y="-15.4" font-family="Times-12" font-size="14.00"> &#160;Declarations</text>
<polygon fill="#8dd3c7" stroke="transparent" points="129,-10 129,-30 149,-30 149,-10 129,-10"/>
<text text-anchor="start" x="152.73" y="-15.4" font-family="Times-12" font-size="14.00"> &#160;Module</text>
<polygon fill="#80b1d3" stroke="transparent" points="215,-10 215,-30 235,-30 235,-10 215,-10"/>
<text text-anchor="start" x="238.78" y="-15.4" font-family="Times-12" font-size="14.00"> &#160;Bootstrap</text>
<polygon fill="#fdb462" stroke="transparent" points="312,-10 312,-30 332,-30 332,-10 312,-10"/>
<text text-anchor="start" x="335.67" y="-15.4" font-family="Times-12" font-size="14.00"> &#160;Providers</text>
<polygon fill="#fb8072" stroke="transparent" points="408,-10 408,-30 428,-30 428,-10 408,-10"/>
<text text-anchor="start" x="431.73" y="-15.4" font-family="Times-12" font-size="14.00"> &#160;Exports</text>
<g id="clust1" class="cluster">
<title>cluster_ConfigurationAppModule</title>
<polygon fill="none" stroke="black" stroke-dasharray="1,5" points="8,-70 8,-268 492,-268 492,-70 8,-70"/>
</g>
<g id="clust3" class="cluster">
<title>cluster_ConfigurationAppModule_imports</title>
<polygon fill="none" stroke="black" points="262,-78 262,-130 484,-130 484,-78 262,-78"/>
</g>
<g id="clust4" class="cluster">
<title>cluster_ConfigurationAppModule_exports</title>
<polygon fill="none" stroke="black" points="230,-208 230,-260 410,-260 410,-208 230,-208"/>
</g>
<g id="clust6" class="cluster">
<title>cluster_ConfigurationAppModule_providers</title>
<polygon fill="none" stroke="black" points="16,-78 16,-130 254,-130 254,-78 16,-78"/>
</g>
<!-- AuthModule -->
<g id="node1" class="node">
<title>AuthModule</title>
<polygon fill="#8dd3c7" stroke="black" points="475.55,-122 472.55,-126 451.55,-126 448.55,-122 388.45,-122 388.45,-86 475.55,-86 475.55,-122"/>
<text text-anchor="middle" x="432" y="-99.8" font-family="Times,serif" font-size="14.00">AuthModule</text>
</g>
<!-- ConfigurationAppModule -->
<g id="node3" class="node">
<title>ConfigurationAppModule</title>
<polygon fill="#8dd3c7" stroke="black" points="401.2,-187 398.2,-191 377.2,-191 374.2,-187 238.8,-187 238.8,-151 401.2,-151 401.2,-187"/>
<text text-anchor="middle" x="320" y="-164.8" font-family="Times,serif" font-size="14.00">ConfigurationAppModule</text>
</g>
<!-- AuthModule&#45;&gt;ConfigurationAppModule -->
<g id="edge1" class="edge">
<title>AuthModule&#45;&gt;ConfigurationAppModule</title>
<path fill="none" stroke="black" d="M394.66,-122.11C394.66,-122.11 394.66,-140.99 394.66,-140.99"/>
<polygon fill="black" stroke="black" points="391.16,-140.99 394.66,-150.99 398.16,-140.99 391.16,-140.99"/>
</g>
<!-- LoggerModule -->
<g id="node2" class="node">
<title>LoggerModule</title>
<polygon fill="#8dd3c7" stroke="black" points="369.98,-122 366.98,-126 345.98,-126 342.98,-122 270.02,-122 270.02,-86 369.98,-86 369.98,-122"/>
<text text-anchor="middle" x="320" y="-99.8" font-family="Times,serif" font-size="14.00">LoggerModule</text>
</g>
<!-- LoggerModule&#45;&gt;ConfigurationAppModule -->
<g id="edge2" class="edge">
<title>LoggerModule&#45;&gt;ConfigurationAppModule</title>
<path fill="none" stroke="black" d="M320,-122.11C320,-122.11 320,-140.99 320,-140.99"/>
<polygon fill="black" stroke="black" points="316.5,-140.99 320,-150.99 323.5,-140.99 316.5,-140.99"/>
</g>
<!-- ConfigurationAppService  -->
<g id="node4" class="node">
<title>ConfigurationAppService </title>
<polygon fill="#fb8072" stroke="black" points="402.13,-252 237.87,-252 237.87,-216 402.13,-216 402.13,-252"/>
<text text-anchor="middle" x="320" y="-229.8" font-family="Times,serif" font-size="14.00">ConfigurationAppService </text>
</g>
<!-- ConfigurationAppModule&#45;&gt;ConfigurationAppService  -->
<g id="edge3" class="edge">
<title>ConfigurationAppModule&#45;&gt;ConfigurationAppService </title>
<path fill="none" stroke="black" stroke-dasharray="5,2" d="M320,-187.11C320,-187.11 320,-205.99 320,-205.99"/>
<polygon fill="black" stroke="black" points="316.5,-205.99 320,-215.99 323.5,-205.99 316.5,-205.99"/>
</g>
<!-- ConfigurationAppService -->
<g id="node5" class="node">
<title>ConfigurationAppService</title>
<ellipse fill="#fdb462" stroke="black" cx="135" cy="-104" rx="110.6" ry="18"/>
<text text-anchor="middle" x="135" y="-99.8" font-family="Times,serif" font-size="14.00">ConfigurationAppService</text>
</g>
<!-- ConfigurationAppService&#45;&gt;ConfigurationAppModule -->
<g id="edge4" class="edge">
<title>ConfigurationAppService&#45;&gt;ConfigurationAppModule</title>
<path fill="none" stroke="black" d="M246.12,-104C253.4,-104 257.9,-104 257.9,-104 257.9,-104 257.9,-140.89 257.9,-140.89"/>
<polygon fill="black" stroke="black" points="254.4,-140.89 257.9,-150.89 261.4,-140.89 254.4,-140.89"/>
</g>
</g>
</svg>
