<?xml version="1.0" encoding="UTF-8" standalone="no"?>
<!DOCTYPE svg PUBLIC "-//W3C//DTD SVG 1.1//EN"
 "http://www.w3.org/Graphics/SVG/1.1/DTD/svg11.dtd">
<!-- Generated by graphviz version 2.47.0 (20210316.0004)
 -->
<!-- Title: dependencies Pages: 1 -->
<svg width="598pt" height="284pt"
 viewBox="0.00 0.00 598.00 284.00" xmlns="http://www.w3.org/2000/svg" xmlns:xlink="http://www.w3.org/1999/xlink">
<g id="graph0" class="graph" transform="scale(1 1) rotate(0) translate(4 280)">
<title>dependencies</title>
<polygon fill="white" stroke="transparent" points="-4,4 -4,-280 594,-280 594,4 -4,4"/>
<text text-anchor="start" x="274.01" y="-42.4" font-family="Times-12" font-weight="bold" font-size="14.00">Legend</text>
<polygon fill="#ffffb3" stroke="transparent" points="61,-10 61,-30 81,-30 81,-10 61,-10"/>
<text text-anchor="start" x="84.63" y="-15.4" font-family="Times-12" font-size="14.00"> &#160;Declarations</text>
<polygon fill="#8dd3c7" stroke="transparent" points="174,-10 174,-30 194,-30 194,-10 174,-10"/>
<text text-anchor="start" x="197.73" y="-15.4" font-family="Times-12" font-size="14.00"> &#160;Module</text>
<polygon fill="#80b1d3" stroke="transparent" points="260,-10 260,-30 280,-30 280,-10 260,-10"/>
<text text-anchor="start" x="283.78" y="-15.4" font-family="Times-12" font-size="14.00"> &#160;Bootstrap</text>
<polygon fill="#fdb462" stroke="transparent" points="357,-10 357,-30 377,-30 377,-10 357,-10"/>
<text text-anchor="start" x="380.67" y="-15.4" font-family="Times-12" font-size="14.00"> &#160;Providers</text>
<polygon fill="#fb8072" stroke="transparent" points="453,-10 453,-30 473,-30 473,-10 453,-10"/>
<text text-anchor="start" x="476.73" y="-15.4" font-family="Times-12" font-size="14.00"> &#160;Exports</text>
<g id="clust1" class="cluster">
<title>cluster_EntrepreneurModule</title>
<polygon fill="none" stroke="black" stroke-dasharray="1,5" points="8,-70 8,-268 582,-268 582,-70 8,-70"/>
</g>
<g id="clust3" class="cluster">
<title>cluster_EntrepreneurModule_imports</title>
<polygon fill="none" stroke="black" points="220,-78 220,-130 574,-130 574,-78 220,-78"/>
</g>
<g id="clust6" class="cluster">
<title>cluster_EntrepreneurModule_providers</title>
<polygon fill="none" stroke="black" points="16,-78 16,-130 212,-130 212,-78 16,-78"/>
</g>
<g id="clust4" class="cluster">
<title>cluster_EntrepreneurModule_exports</title>
<polygon fill="none" stroke="black" points="261,-208 261,-260 411,-260 411,-208 261,-208"/>
</g>
<!-- AuthModule -->
<g id="node1" class="node">
<title>AuthModule</title>
<polygon fill="#8dd3c7" stroke="black" points="565.55,-122 562.55,-126 541.55,-126 538.55,-122 478.45,-122 478.45,-86 565.55,-86 565.55,-122"/>
<text text-anchor="middle" x="522" y="-99.8" font-family="Times,serif" font-size="14.00">AuthModule</text>
</g>
<!-- EntrepreneurModule -->
<g id="node4" class="node">
<title>EntrepreneurModule</title>
<polygon fill="#8dd3c7" stroke="black" points="402.12,-187 399.12,-191 378.12,-191 375.12,-187 269.88,-187 269.88,-151 402.12,-151 402.12,-187"/>
<text text-anchor="middle" x="336" y="-164.8" font-family="Times,serif" font-size="14.00">EntrepreneurModule</text>
</g>
<!-- AuthModule&#45;&gt;EntrepreneurModule -->
<g id="edge1" class="edge">
<title>AuthModule&#45;&gt;EntrepreneurModule</title>
<path fill="none" stroke="black" d="M522,-122.11C522,-141.34 522,-169 522,-169 522,-169 412.36,-169 412.36,-169"/>
<polygon fill="black" stroke="black" points="412.36,-165.5 402.36,-169 412.36,-172.5 412.36,-165.5"/>
</g>
<!-- DownloadsModule -->
<g id="node2" class="node">
<title>DownloadsModule</title>
<polygon fill="#8dd3c7" stroke="black" points="460.81,-122 457.81,-126 436.81,-126 433.81,-122 337.19,-122 337.19,-86 460.81,-86 460.81,-122"/>
<text text-anchor="middle" x="399" y="-99.8" font-family="Times,serif" font-size="14.00">DownloadsModule</text>
</g>
<!-- DownloadsModule&#45;&gt;EntrepreneurModule -->
<g id="edge2" class="edge">
<title>DownloadsModule&#45;&gt;EntrepreneurModule</title>
<path fill="none" stroke="black" d="M369.83,-122.11C369.83,-122.11 369.83,-140.99 369.83,-140.99"/>
<polygon fill="black" stroke="black" points="366.33,-140.99 369.83,-150.99 373.33,-140.99 366.33,-140.99"/>
</g>
<!-- UsersModule -->
<g id="node3" class="node">
<title>UsersModule</title>
<polygon fill="#8dd3c7" stroke="black" points="319.92,-122 316.92,-126 295.92,-126 292.92,-122 228.08,-122 228.08,-86 319.92,-86 319.92,-122"/>
<text text-anchor="middle" x="274" y="-99.8" font-family="Times,serif" font-size="14.00">UsersModule</text>
</g>
<!-- UsersModule&#45;&gt;EntrepreneurModule -->
<g id="edge3" class="edge">
<title>UsersModule&#45;&gt;EntrepreneurModule</title>
<path fill="none" stroke="black" d="M294.7,-122.11C294.7,-122.11 294.7,-140.99 294.7,-140.99"/>
<polygon fill="black" stroke="black" points="291.2,-140.99 294.7,-150.99 298.2,-140.99 291.2,-140.99"/>
</g>
<!-- EntrepreneurService  -->
<g id="node5" class="node">
<title>EntrepreneurService </title>
<polygon fill="#fb8072" stroke="black" points="403.05,-252 268.95,-252 268.95,-216 403.05,-216 403.05,-252"/>
<text text-anchor="middle" x="336" y="-229.8" font-family="Times,serif" font-size="14.00">EntrepreneurService </text>
</g>
<!-- EntrepreneurModule&#45;&gt;EntrepreneurService  -->
<g id="edge4" class="edge">
<title>EntrepreneurModule&#45;&gt;EntrepreneurService </title>
<path fill="none" stroke="black" stroke-dasharray="5,2" d="M336,-187.11C336,-187.11 336,-205.99 336,-205.99"/>
<polygon fill="black" stroke="black" points="332.5,-205.99 336,-215.99 339.5,-205.99 332.5,-205.99"/>
</g>
<!-- EntrepreneurService -->
<g id="node6" class="node">
<title>EntrepreneurService</title>
<ellipse fill="#fdb462" stroke="black" cx="114" cy="-104" rx="90.29" ry="18"/>
<text text-anchor="middle" x="114" y="-99.8" font-family="Times,serif" font-size="14.00">EntrepreneurService</text>
</g>
<!-- EntrepreneurService&#45;&gt;EntrepreneurModule -->
<g id="edge5" class="edge">
<title>EntrepreneurService&#45;&gt;EntrepreneurModule</title>
<path fill="none" stroke="black" d="M114,-122.11C114,-141.34 114,-169 114,-169 114,-169 259.69,-169 259.69,-169"/>
<polygon fill="black" stroke="black" points="259.69,-172.5 269.69,-169 259.69,-165.5 259.69,-172.5"/>
</g>
</g>
</svg>
