<?xml version="1.0" encoding="UTF-8" standalone="no"?>
<!DOCTYPE svg PUBLIC "-//W3C//DTD SVG 1.1//EN"
 "http://www.w3.org/Graphics/SVG/1.1/DTD/svg11.dtd">
<!-- Generated by graphviz version 2.47.0 (20210316.0004)
 -->
<!-- Title: dependencies Pages: 1 -->
<svg width="504pt" height="284pt"
 viewBox="0.00 0.00 504.00 284.00" xmlns="http://www.w3.org/2000/svg" xmlns:xlink="http://www.w3.org/1999/xlink">
<g id="graph0" class="graph" transform="scale(1 1) rotate(0) translate(4 280)">
<title>dependencies</title>
<polygon fill="white" stroke="transparent" points="-4,4 -4,-280 500,-280 500,4 -4,4"/>
<text text-anchor="start" x="227.01" y="-42.4" font-family="Times-12" font-weight="bold" font-size="14.00">Legend</text>
<polygon fill="#ffffb3" stroke="transparent" points="14,-10 14,-30 34,-30 34,-10 14,-10"/>
<text text-anchor="start" x="37.63" y="-15.4" font-family="Times-12" font-size="14.00"> &#160;Declarations</text>
<polygon fill="#8dd3c7" stroke="transparent" points="127,-10 127,-30 147,-30 147,-10 127,-10"/>
<text text-anchor="start" x="150.73" y="-15.4" font-family="Times-12" font-size="14.00"> &#160;Module</text>
<polygon fill="#80b1d3" stroke="transparent" points="213,-10 213,-30 233,-30 233,-10 213,-10"/>
<text text-anchor="start" x="236.78" y="-15.4" font-family="Times-12" font-size="14.00"> &#160;Bootstrap</text>
<polygon fill="#fdb462" stroke="transparent" points="310,-10 310,-30 330,-30 330,-10 310,-10"/>
<text text-anchor="start" x="333.67" y="-15.4" font-family="Times-12" font-size="14.00"> &#160;Providers</text>
<polygon fill="#fb8072" stroke="transparent" points="406,-10 406,-30 426,-30 426,-10 406,-10"/>
<text text-anchor="start" x="429.73" y="-15.4" font-family="Times-12" font-size="14.00"> &#160;Exports</text>
<g id="clust1" class="cluster">
<title>cluster_ResourcesRepliesModule</title>
<polygon fill="none" stroke="black" stroke-dasharray="1,5" points="8,-70 8,-268 488,-268 488,-70 8,-70"/>
</g>
<g id="clust6" class="cluster">
<title>cluster_ResourcesRepliesModule_providers</title>
<polygon fill="none" stroke="black" points="246,-78 246,-130 480,-130 480,-78 246,-78"/>
</g>
<g id="clust3" class="cluster">
<title>cluster_ResourcesRepliesModule_imports</title>
<polygon fill="none" stroke="black" points="16,-78 16,-130 238,-130 238,-78 16,-78"/>
</g>
<g id="clust4" class="cluster">
<title>cluster_ResourcesRepliesModule_exports</title>
<polygon fill="none" stroke="black" points="98,-208 98,-260 274,-260 274,-208 98,-208"/>
</g>
<!-- AuthModule -->
<g id="node1" class="node">
<title>AuthModule</title>
<polygon fill="#8dd3c7" stroke="black" points="229.55,-122 226.55,-126 205.55,-126 202.55,-122 142.45,-122 142.45,-86 229.55,-86 229.55,-122"/>
<text text-anchor="middle" x="186" y="-99.8" font-family="Times,serif" font-size="14.00">AuthModule</text>
</g>
<!-- ResourcesRepliesModule -->
<g id="node3" class="node">
<title>ResourcesRepliesModule</title>
<polygon fill="#8dd3c7" stroke="black" points="265.57,-187 262.57,-191 241.57,-191 238.57,-187 106.43,-187 106.43,-151 265.57,-151 265.57,-187"/>
<text text-anchor="middle" x="186" y="-164.8" font-family="Times,serif" font-size="14.00">ResourcesRepliesModule</text>
</g>
<!-- AuthModule&#45;&gt;ResourcesRepliesModule -->
<g id="edge1" class="edge">
<title>AuthModule&#45;&gt;ResourcesRepliesModule</title>
<path fill="none" stroke="black" d="M186,-122.11C186,-122.11 186,-140.99 186,-140.99"/>
<polygon fill="black" stroke="black" points="182.5,-140.99 186,-150.99 189.5,-140.99 182.5,-140.99"/>
</g>
<!-- LoggerModule -->
<g id="node2" class="node">
<title>LoggerModule</title>
<polygon fill="#8dd3c7" stroke="black" points="123.98,-122 120.98,-126 99.98,-126 96.98,-122 24.02,-122 24.02,-86 123.98,-86 123.98,-122"/>
<text text-anchor="middle" x="74" y="-99.8" font-family="Times,serif" font-size="14.00">LoggerModule</text>
</g>
<!-- LoggerModule&#45;&gt;ResourcesRepliesModule -->
<g id="edge2" class="edge">
<title>LoggerModule&#45;&gt;ResourcesRepliesModule</title>
<path fill="none" stroke="black" d="M115.23,-122.11C115.23,-122.11 115.23,-140.99 115.23,-140.99"/>
<polygon fill="black" stroke="black" points="111.73,-140.99 115.23,-150.99 118.73,-140.99 111.73,-140.99"/>
</g>
<!-- ResourcesRepliesService  -->
<g id="node4" class="node">
<title>ResourcesRepliesService </title>
<polygon fill="#fb8072" stroke="black" points="266.5,-252 105.5,-252 105.5,-216 266.5,-216 266.5,-252"/>
<text text-anchor="middle" x="186" y="-229.8" font-family="Times,serif" font-size="14.00">ResourcesRepliesService </text>
</g>
<!-- ResourcesRepliesModule&#45;&gt;ResourcesRepliesService  -->
<g id="edge3" class="edge">
<title>ResourcesRepliesModule&#45;&gt;ResourcesRepliesService </title>
<path fill="none" stroke="black" stroke-dasharray="5,2" d="M186,-187.11C186,-187.11 186,-205.99 186,-205.99"/>
<polygon fill="black" stroke="black" points="182.5,-205.99 186,-215.99 189.5,-205.99 182.5,-205.99"/>
</g>
<!-- ResourcesRepliesService -->
<g id="node5" class="node">
<title>ResourcesRepliesService</title>
<ellipse fill="#fdb462" stroke="black" cx="363" cy="-104" rx="108.78" ry="18"/>
<text text-anchor="middle" x="363" y="-99.8" font-family="Times,serif" font-size="14.00">ResourcesRepliesService</text>
</g>
<!-- ResourcesRepliesService&#45;&gt;ResourcesRepliesModule -->
<g id="edge4" class="edge">
<title>ResourcesRepliesService&#45;&gt;ResourcesRepliesModule</title>
<path fill="none" stroke="black" d="M259.95,-110C259.95,-110 259.95,-140.76 259.95,-140.76"/>
<polygon fill="black" stroke="black" points="256.45,-140.76 259.95,-150.76 263.45,-140.76 256.45,-140.76"/>
</g>
</g>
</svg>
