<?xml version="1.0" encoding="UTF-8" standalone="no"?>
<!DOCTYPE svg PUBLIC "-//W3C//DTD SVG 1.1//EN"
 "http://www.w3.org/Graphics/SVG/1.1/DTD/svg11.dtd">
<!-- Generated by graphviz version 2.47.0 (20210316.0004)
 -->
<!-- Title: dependencies Pages: 1 -->
<svg width="504pt" height="284pt"
 viewBox="0.00 0.00 504.00 284.00" xmlns="http://www.w3.org/2000/svg" xmlns:xlink="http://www.w3.org/1999/xlink">
<g id="graph0" class="graph" transform="scale(1 1) rotate(0) translate(4 280)">
<title>dependencies</title>
<polygon fill="white" stroke="transparent" points="-4,4 -4,-280 500,-280 500,4 -4,4"/>
<text text-anchor="start" x="227.01" y="-42.4" font-family="Times-12" font-weight="bold" font-size="14.00">Legend</text>
<polygon fill="#ffffb3" stroke="transparent" points="14,-10 14,-30 34,-30 34,-10 14,-10"/>
<text text-anchor="start" x="37.63" y="-15.4" font-family="Times-12" font-size="14.00"> &#160;Declarations</text>
<polygon fill="#8dd3c7" stroke="transparent" points="127,-10 127,-30 147,-30 147,-10 127,-10"/>
<text text-anchor="start" x="150.73" y="-15.4" font-family="Times-12" font-size="14.00"> &#160;Module</text>
<polygon fill="#80b1d3" stroke="transparent" points="213,-10 213,-30 233,-30 233,-10 213,-10"/>
<text text-anchor="start" x="236.78" y="-15.4" font-family="Times-12" font-size="14.00"> &#160;Bootstrap</text>
<polygon fill="#fdb462" stroke="transparent" points="310,-10 310,-30 330,-30 330,-10 310,-10"/>
<text text-anchor="start" x="333.67" y="-15.4" font-family="Times-12" font-size="14.00"> &#160;Providers</text>
<polygon fill="#fb8072" stroke="transparent" points="406,-10 406,-30 426,-30 426,-10 406,-10"/>
<text text-anchor="start" x="429.73" y="-15.4" font-family="Times-12" font-size="14.00"> &#160;Exports</text>
<g id="clust1" class="cluster">
<title>cluster_RolModule</title>
<polygon fill="none" stroke="black" stroke-dasharray="1,5" points="122,-70 122,-268 374,-268 374,-70 122,-70"/>
</g>
<g id="clust6" class="cluster">
<title>cluster_RolModule_providers</title>
<polygon fill="none" stroke="black" points="242,-78 242,-130 366,-130 366,-78 242,-78"/>
</g>
<g id="clust4" class="cluster">
<title>cluster_RolModule_exports</title>
<polygon fill="none" stroke="black" points="194,-208 194,-260 292,-260 292,-208 194,-208"/>
</g>
<g id="clust3" class="cluster">
<title>cluster_RolModule_imports</title>
<polygon fill="none" stroke="black" points="130,-78 130,-130 234,-130 234,-78 130,-78"/>
</g>
<!-- AuthModule -->
<g id="node1" class="node">
<title>AuthModule</title>
<polygon fill="#8dd3c7" stroke="black" points="225.55,-122 222.55,-126 201.55,-126 198.55,-122 138.45,-122 138.45,-86 225.55,-86 225.55,-122"/>
<text text-anchor="middle" x="182" y="-99.8" font-family="Times,serif" font-size="14.00">AuthModule</text>
</g>
<!-- RolModule -->
<g id="node2" class="node">
<title>RolModule</title>
<polygon fill="#8dd3c7" stroke="black" points="282.78,-187 279.78,-191 258.78,-191 255.78,-187 203.22,-187 203.22,-151 282.78,-151 282.78,-187"/>
<text text-anchor="middle" x="243" y="-164.8" font-family="Times,serif" font-size="14.00">RolModule</text>
</g>
<!-- AuthModule&#45;&gt;RolModule -->
<g id="edge1" class="edge">
<title>AuthModule&#45;&gt;RolModule</title>
<path fill="none" stroke="black" d="M214.44,-122.11C214.44,-122.11 214.44,-140.99 214.44,-140.99"/>
<polygon fill="black" stroke="black" points="210.94,-140.99 214.44,-150.99 217.94,-140.99 210.94,-140.99"/>
</g>
<!-- RolService  -->
<g id="node3" class="node">
<title>RolService </title>
<polygon fill="#fb8072" stroke="black" points="283.71,-252 202.29,-252 202.29,-216 283.71,-216 283.71,-252"/>
<text text-anchor="middle" x="243" y="-229.8" font-family="Times,serif" font-size="14.00">RolService </text>
</g>
<!-- RolModule&#45;&gt;RolService  -->
<g id="edge2" class="edge">
<title>RolModule&#45;&gt;RolService </title>
<path fill="none" stroke="black" stroke-dasharray="5,2" d="M243,-187.11C243,-187.11 243,-205.99 243,-205.99"/>
<polygon fill="black" stroke="black" points="239.5,-205.99 243,-215.99 246.5,-205.99 239.5,-205.99"/>
</g>
<!-- RolService -->
<g id="node4" class="node">
<title>RolService</title>
<ellipse fill="#fdb462" stroke="black" cx="304" cy="-104" rx="53.89" ry="18"/>
<text text-anchor="middle" x="304" y="-99.8" font-family="Times,serif" font-size="14.00">RolService</text>
</g>
<!-- RolService&#45;&gt;RolModule -->
<g id="edge3" class="edge">
<title>RolService&#45;&gt;RolModule</title>
<path fill="none" stroke="black" d="M266.47,-117.15C266.47,-117.15 266.47,-140.69 266.47,-140.69"/>
<polygon fill="black" stroke="black" points="262.97,-140.69 266.47,-150.69 269.97,-140.69 262.97,-140.69"/>
</g>
</g>
</svg>
