<?xml version="1.0" encoding="UTF-8" standalone="no"?>
<!DOCTYPE svg PUBLIC "-//W3C//DTD SVG 1.1//EN"
 "http://www.w3.org/Graphics/SVG/1.1/DTD/svg11.dtd">
<!-- Generated by graphviz version 2.47.0 (20210316.0004)
 -->
<!-- Title: dependencies Pages: 1 -->
<svg width="566pt" height="284pt"
 viewBox="0.00 0.00 566.00 284.00" xmlns="http://www.w3.org/2000/svg" xmlns:xlink="http://www.w3.org/1999/xlink">
<g id="graph0" class="graph" transform="scale(1 1) rotate(0) translate(4 280)">
<title>dependencies</title>
<polygon fill="white" stroke="transparent" points="-4,4 -4,-280 562,-280 562,4 -4,4"/>
<text text-anchor="start" x="258.01" y="-42.4" font-family="Times-12" font-weight="bold" font-size="14.00">Legend</text>
<polygon fill="#ffffb3" stroke="transparent" points="45,-10 45,-30 65,-30 65,-10 45,-10"/>
<text text-anchor="start" x="68.63" y="-15.4" font-family="Times-12" font-size="14.00"> &#160;Declarations</text>
<polygon fill="#8dd3c7" stroke="transparent" points="158,-10 158,-30 178,-30 178,-10 158,-10"/>
<text text-anchor="start" x="181.73" y="-15.4" font-family="Times-12" font-size="14.00"> &#160;Module</text>
<polygon fill="#80b1d3" stroke="transparent" points="244,-10 244,-30 264,-30 264,-10 244,-10"/>
<text text-anchor="start" x="267.78" y="-15.4" font-family="Times-12" font-size="14.00"> &#160;Bootstrap</text>
<polygon fill="#fdb462" stroke="transparent" points="341,-10 341,-30 361,-30 361,-10 341,-10"/>
<text text-anchor="start" x="364.67" y="-15.4" font-family="Times-12" font-size="14.00"> &#160;Providers</text>
<polygon fill="#fb8072" stroke="transparent" points="437,-10 437,-30 457,-30 457,-10 437,-10"/>
<text text-anchor="start" x="460.73" y="-15.4" font-family="Times-12" font-size="14.00"> &#160;Exports</text>
<g id="clust1" class="cluster">
<title>cluster_BusinessModule</title>
<polygon fill="none" stroke="black" stroke-dasharray="1,5" points="8,-70 8,-268 550,-268 550,-70 8,-70"/>
</g>
<g id="clust6" class="cluster">
<title>cluster_BusinessModule_providers</title>
<polygon fill="none" stroke="black" points="378,-78 378,-130 542,-130 542,-78 378,-78"/>
</g>
<g id="clust4" class="cluster">
<title>cluster_BusinessModule_exports</title>
<polygon fill="none" stroke="black" points="192,-208 192,-260 320,-260 320,-208 192,-208"/>
</g>
<g id="clust3" class="cluster">
<title>cluster_BusinessModule_imports</title>
<polygon fill="none" stroke="black" points="16,-78 16,-130 370,-130 370,-78 16,-78"/>
</g>
<!-- AuthModule -->
<g id="node1" class="node">
<title>AuthModule</title>
<polygon fill="#8dd3c7" stroke="black" points="361.55,-122 358.55,-126 337.55,-126 334.55,-122 274.45,-122 274.45,-86 361.55,-86 361.55,-122"/>
<text text-anchor="middle" x="318" y="-99.8" font-family="Times,serif" font-size="14.00">AuthModule</text>
</g>
<!-- BusinessModule -->
<g id="node4" class="node">
<title>BusinessModule</title>
<polygon fill="#8dd3c7" stroke="black" points="310.83,-187 307.83,-191 286.83,-191 283.83,-187 201.17,-187 201.17,-151 310.83,-151 310.83,-187"/>
<text text-anchor="middle" x="256" y="-164.8" font-family="Times,serif" font-size="14.00">BusinessModule</text>
</g>
<!-- AuthModule&#45;&gt;BusinessModule -->
<g id="edge1" class="edge">
<title>AuthModule&#45;&gt;BusinessModule</title>
<path fill="none" stroke="black" d="M292.44,-122.11C292.44,-122.11 292.44,-140.99 292.44,-140.99"/>
<polygon fill="black" stroke="black" points="288.94,-140.99 292.44,-150.99 295.94,-140.99 288.94,-140.99"/>
</g>
<!-- DownloadsModule -->
<g id="node2" class="node">
<title>DownloadsModule</title>
<polygon fill="#8dd3c7" stroke="black" points="256.81,-122 253.81,-126 232.81,-126 229.81,-122 133.19,-122 133.19,-86 256.81,-86 256.81,-122"/>
<text text-anchor="middle" x="195" y="-99.8" font-family="Times,serif" font-size="14.00">DownloadsModule</text>
</g>
<!-- DownloadsModule&#45;&gt;BusinessModule -->
<g id="edge2" class="edge">
<title>DownloadsModule&#45;&gt;BusinessModule</title>
<path fill="none" stroke="black" d="M229,-122.11C229,-122.11 229,-140.99 229,-140.99"/>
<polygon fill="black" stroke="black" points="225.5,-140.99 229,-150.99 232.5,-140.99 225.5,-140.99"/>
</g>
<!-- UsersModule -->
<g id="node3" class="node">
<title>UsersModule</title>
<polygon fill="#8dd3c7" stroke="black" points="115.92,-122 112.92,-126 91.92,-126 88.92,-122 24.08,-122 24.08,-86 115.92,-86 115.92,-122"/>
<text text-anchor="middle" x="70" y="-99.8" font-family="Times,serif" font-size="14.00">UsersModule</text>
</g>
<!-- UsersModule&#45;&gt;BusinessModule -->
<g id="edge3" class="edge">
<title>UsersModule&#45;&gt;BusinessModule</title>
<path fill="none" stroke="black" d="M70,-122.11C70,-141.34 70,-169 70,-169 70,-169 191.2,-169 191.2,-169"/>
<polygon fill="black" stroke="black" points="191.2,-172.5 201.2,-169 191.2,-165.5 191.2,-172.5"/>
</g>
<!-- BusinessService  -->
<g id="node5" class="node">
<title>BusinessService </title>
<polygon fill="#fb8072" stroke="black" points="311.75,-252 200.25,-252 200.25,-216 311.75,-216 311.75,-252"/>
<text text-anchor="middle" x="256" y="-229.8" font-family="Times,serif" font-size="14.00">BusinessService </text>
</g>
<!-- BusinessModule&#45;&gt;BusinessService  -->
<g id="edge4" class="edge">
<title>BusinessModule&#45;&gt;BusinessService </title>
<path fill="none" stroke="black" stroke-dasharray="5,2" d="M256,-187.11C256,-187.11 256,-205.99 256,-205.99"/>
<polygon fill="black" stroke="black" points="252.5,-205.99 256,-215.99 259.5,-205.99 252.5,-205.99"/>
</g>
<!-- BusinessService -->
<g id="node6" class="node">
<title>BusinessService</title>
<ellipse fill="#fdb462" stroke="black" cx="460" cy="-104" rx="74.15" ry="18"/>
<text text-anchor="middle" x="460" y="-99.8" font-family="Times,serif" font-size="14.00">BusinessService</text>
</g>
<!-- BusinessService&#45;&gt;BusinessModule -->
<g id="edge5" class="edge">
<title>BusinessService&#45;&gt;BusinessModule</title>
<path fill="none" stroke="black" d="M460,-122.11C460,-141.34 460,-169 460,-169 460,-169 320.67,-169 320.67,-169"/>
<polygon fill="black" stroke="black" points="320.67,-165.5 310.67,-169 320.67,-172.5 320.67,-165.5"/>
</g>
</g>
</svg>
