<?xml version="1.0" encoding="UTF-8" standalone="no"?>
<!DOCTYPE svg PUBLIC "-//W3C//DTD SVG 1.1//EN"
 "http://www.w3.org/Graphics/SVG/1.1/DTD/svg11.dtd">
<!-- Generated by graphviz version 2.47.0 (20210316.0004)
 -->
<!-- Title: dependencies Pages: 1 -->
<svg width="566pt" height="284pt"
 viewBox="0.00 0.00 566.00 284.00" xmlns="http://www.w3.org/2000/svg" xmlns:xlink="http://www.w3.org/1999/xlink">
<g id="graph0" class="graph" transform="scale(1 1) rotate(0) translate(4 280)">
<title>dependencies</title>
<polygon fill="white" stroke="transparent" points="-4,4 -4,-280 562,-280 562,4 -4,4"/>
<text text-anchor="start" x="258.01" y="-42.4" font-family="Times-12" font-weight="bold" font-size="14.00">Legend</text>
<polygon fill="#ffffb3" stroke="transparent" points="45,-10 45,-30 65,-30 65,-10 45,-10"/>
<text text-anchor="start" x="68.63" y="-15.4" font-family="Times-12" font-size="14.00"> &#160;Declarations</text>
<polygon fill="#8dd3c7" stroke="transparent" points="158,-10 158,-30 178,-30 178,-10 158,-10"/>
<text text-anchor="start" x="181.73" y="-15.4" font-family="Times-12" font-size="14.00"> &#160;Module</text>
<polygon fill="#80b1d3" stroke="transparent" points="244,-10 244,-30 264,-30 264,-10 244,-10"/>
<text text-anchor="start" x="267.78" y="-15.4" font-family="Times-12" font-size="14.00"> &#160;Bootstrap</text>
<polygon fill="#fdb462" stroke="transparent" points="341,-10 341,-30 361,-30 361,-10 341,-10"/>
<text text-anchor="start" x="364.67" y="-15.4" font-family="Times-12" font-size="14.00"> &#160;Providers</text>
<polygon fill="#fb8072" stroke="transparent" points="437,-10 437,-30 457,-30 457,-10 437,-10"/>
<text text-anchor="start" x="460.73" y="-15.4" font-family="Times-12" font-size="14.00"> &#160;Exports</text>
<g id="clust1" class="cluster">
<title>cluster_DownloadsModule</title>
<polygon fill="none" stroke="black" stroke-dasharray="1,5" points="8,-70 8,-268 550,-268 550,-70 8,-70"/>
</g>
<g id="clust3" class="cluster">
<title>cluster_DownloadsModule_imports</title>
<polygon fill="none" stroke="black" points="208,-78 208,-130 542,-130 542,-78 208,-78"/>
</g>
<g id="clust4" class="cluster">
<title>cluster_DownloadsModule_exports</title>
<polygon fill="none" stroke="black" points="248,-208 248,-260 390,-260 390,-208 248,-208"/>
</g>
<g id="clust6" class="cluster">
<title>cluster_DownloadsModule_providers</title>
<polygon fill="none" stroke="black" points="16,-78 16,-130 200,-130 200,-78 16,-78"/>
</g>
<!-- AuthModule -->
<g id="node1" class="node">
<title>AuthModule</title>
<polygon fill="#8dd3c7" stroke="black" points="533.55,-122 530.55,-126 509.55,-126 506.55,-122 446.45,-122 446.45,-86 533.55,-86 533.55,-122"/>
<text text-anchor="middle" x="490" y="-99.8" font-family="Times,serif" font-size="14.00">AuthModule</text>
</g>
<!-- DownloadsModule -->
<g id="node4" class="node">
<title>DownloadsModule</title>
<polygon fill="#8dd3c7" stroke="black" points="380.81,-187 377.81,-191 356.81,-191 353.81,-187 257.19,-187 257.19,-151 380.81,-151 380.81,-187"/>
<text text-anchor="middle" x="319" y="-164.8" font-family="Times,serif" font-size="14.00">DownloadsModule</text>
</g>
<!-- AuthModule&#45;&gt;DownloadsModule -->
<g id="edge1" class="edge">
<title>AuthModule&#45;&gt;DownloadsModule</title>
<path fill="none" stroke="black" d="M490,-122.11C490,-141.34 490,-169 490,-169 490,-169 390.73,-169 390.73,-169"/>
<polygon fill="black" stroke="black" points="390.73,-165.5 380.73,-169 390.73,-172.5 390.73,-165.5"/>
</g>
<!-- StorageModule -->
<g id="node2" class="node">
<title>StorageModule</title>
<polygon fill="#8dd3c7" stroke="black" points="428.31,-122 425.31,-126 404.31,-126 401.31,-122 325.69,-122 325.69,-86 428.31,-86 428.31,-122"/>
<text text-anchor="middle" x="377" y="-99.8" font-family="Times,serif" font-size="14.00">StorageModule</text>
</g>
<!-- StorageModule&#45;&gt;DownloadsModule -->
<g id="edge2" class="edge">
<title>StorageModule&#45;&gt;DownloadsModule</title>
<path fill="none" stroke="black" d="M353.25,-122.11C353.25,-122.11 353.25,-140.99 353.25,-140.99"/>
<polygon fill="black" stroke="black" points="349.75,-140.99 353.25,-150.99 356.75,-140.99 349.75,-140.99"/>
</g>
<!-- UsersModule -->
<g id="node3" class="node">
<title>UsersModule</title>
<polygon fill="#8dd3c7" stroke="black" points="307.92,-122 304.92,-126 283.92,-126 280.92,-122 216.08,-122 216.08,-86 307.92,-86 307.92,-122"/>
<text text-anchor="middle" x="262" y="-99.8" font-family="Times,serif" font-size="14.00">UsersModule</text>
</g>
<!-- UsersModule&#45;&gt;DownloadsModule -->
<g id="edge3" class="edge">
<title>UsersModule&#45;&gt;DownloadsModule</title>
<path fill="none" stroke="black" d="M282.53,-122.11C282.53,-122.11 282.53,-140.99 282.53,-140.99"/>
<polygon fill="black" stroke="black" points="279.03,-140.99 282.53,-150.99 286.03,-140.99 279.03,-140.99"/>
</g>
<!-- DownloadsService  -->
<g id="node5" class="node">
<title>DownloadsService </title>
<polygon fill="#fb8072" stroke="black" points="381.74,-252 256.26,-252 256.26,-216 381.74,-216 381.74,-252"/>
<text text-anchor="middle" x="319" y="-229.8" font-family="Times,serif" font-size="14.00">DownloadsService </text>
</g>
<!-- DownloadsModule&#45;&gt;DownloadsService  -->
<g id="edge4" class="edge">
<title>DownloadsModule&#45;&gt;DownloadsService </title>
<path fill="none" stroke="black" stroke-dasharray="5,2" d="M319,-187.11C319,-187.11 319,-205.99 319,-205.99"/>
<polygon fill="black" stroke="black" points="315.5,-205.99 319,-215.99 322.5,-205.99 315.5,-205.99"/>
</g>
<!-- DownloadsService -->
<g id="node6" class="node">
<title>DownloadsService</title>
<ellipse fill="#fdb462" stroke="black" cx="108" cy="-104" rx="83.95" ry="18"/>
<text text-anchor="middle" x="108" y="-99.8" font-family="Times,serif" font-size="14.00">DownloadsService</text>
</g>
<!-- DownloadsService&#45;&gt;DownloadsModule -->
<g id="edge5" class="edge">
<title>DownloadsService&#45;&gt;DownloadsModule</title>
<path fill="none" stroke="black" d="M108,-122.11C108,-141.34 108,-169 108,-169 108,-169 247.12,-169 247.12,-169"/>
<polygon fill="black" stroke="black" points="247.12,-172.5 257.12,-169 247.12,-165.5 247.12,-172.5"/>
</g>
</g>
</svg>
