<?xml version="1.0" encoding="UTF-8" standalone="no"?>
<!DOCTYPE svg PUBLIC "-//W3C//DTD SVG 1.1//EN"
 "http://www.w3.org/Graphics/SVG/1.1/DTD/svg11.dtd">
<!-- Generated by graphviz version 2.47.0 (20210316.0004)
 -->
<!-- Title: dependencies Pages: 1 -->
<svg width="504pt" height="284pt"
 viewBox="0.00 0.00 504.00 284.00" xmlns="http://www.w3.org/2000/svg" xmlns:xlink="http://www.w3.org/1999/xlink">
<g id="graph0" class="graph" transform="scale(1 1) rotate(0) translate(4 280)">
<title>dependencies</title>
<polygon fill="white" stroke="transparent" points="-4,4 -4,-280 500,-280 500,4 -4,4"/>
<text text-anchor="start" x="227.01" y="-42.4" font-family="Times-12" font-weight="bold" font-size="14.00">Legend</text>
<polygon fill="#ffffb3" stroke="transparent" points="14,-10 14,-30 34,-30 34,-10 14,-10"/>
<text text-anchor="start" x="37.63" y="-15.4" font-family="Times-12" font-size="14.00"> &#160;Declarations</text>
<polygon fill="#8dd3c7" stroke="transparent" points="127,-10 127,-30 147,-30 147,-10 127,-10"/>
<text text-anchor="start" x="150.73" y="-15.4" font-family="Times-12" font-size="14.00"> &#160;Module</text>
<polygon fill="#80b1d3" stroke="transparent" points="213,-10 213,-30 233,-30 233,-10 213,-10"/>
<text text-anchor="start" x="236.78" y="-15.4" font-family="Times-12" font-size="14.00"> &#160;Bootstrap</text>
<polygon fill="#fdb462" stroke="transparent" points="310,-10 310,-30 330,-30 330,-10 310,-10"/>
<text text-anchor="start" x="333.67" y="-15.4" font-family="Times-12" font-size="14.00"> &#160;Providers</text>
<polygon fill="#fb8072" stroke="transparent" points="406,-10 406,-30 426,-30 426,-10 406,-10"/>
<text text-anchor="start" x="429.73" y="-15.4" font-family="Times-12" font-size="14.00"> &#160;Exports</text>
<g id="clust1" class="cluster">
<title>cluster_ApplicantModule</title>
<polygon fill="none" stroke="black" stroke-dasharray="1,5" points="43.5,-70 43.5,-268 452.5,-268 452.5,-70 43.5,-70"/>
</g>
<g id="clust3" class="cluster">
<title>cluster_ApplicantModule_imports</title>
<polygon fill="none" stroke="black" points="231.5,-78 231.5,-130 444.5,-130 444.5,-78 231.5,-78"/>
</g>
<g id="clust4" class="cluster">
<title>cluster_ApplicantModule_exports</title>
<polygon fill="none" stroke="black" points="219.5,-208 219.5,-260 351.5,-260 351.5,-208 219.5,-208"/>
</g>
<g id="clust6" class="cluster">
<title>cluster_ApplicantModule_providers</title>
<polygon fill="none" stroke="black" points="51.5,-78 51.5,-130 223.5,-130 223.5,-78 51.5,-78"/>
</g>
<!-- AuthModule -->
<g id="node1" class="node">
<title>AuthModule</title>
<polygon fill="#8dd3c7" stroke="black" points="436.05,-122 433.05,-126 412.05,-126 409.05,-122 348.95,-122 348.95,-86 436.05,-86 436.05,-122"/>
<text text-anchor="middle" x="392.5" y="-99.8" font-family="Times,serif" font-size="14.00">AuthModule</text>
</g>
<!-- ApplicantModule -->
<g id="node3" class="node">
<title>ApplicantModule</title>
<polygon fill="#8dd3c7" stroke="black" points="342.76,-187 339.76,-191 318.76,-191 315.76,-187 228.24,-187 228.24,-151 342.76,-151 342.76,-187"/>
<text text-anchor="middle" x="285.5" y="-164.8" font-family="Times,serif" font-size="14.00">ApplicantModule</text>
</g>
<!-- AuthModule&#45;&gt;ApplicantModule -->
<g id="edge1" class="edge">
<title>AuthModule&#45;&gt;ApplicantModule</title>
<path fill="none" stroke="black" d="M348.81,-104C341.93,-104 337.04,-104 337.04,-104 337.04,-104 337.04,-140.89 337.04,-140.89"/>
<polygon fill="black" stroke="black" points="333.54,-140.89 337.04,-150.89 340.54,-140.89 333.54,-140.89"/>
</g>
<!-- UsersModule -->
<g id="node2" class="node">
<title>UsersModule</title>
<polygon fill="#8dd3c7" stroke="black" points="331.42,-122 328.42,-126 307.42,-126 304.42,-122 239.58,-122 239.58,-86 331.42,-86 331.42,-122"/>
<text text-anchor="middle" x="285.5" y="-99.8" font-family="Times,serif" font-size="14.00">UsersModule</text>
</g>
<!-- UsersModule&#45;&gt;ApplicantModule -->
<g id="edge2" class="edge">
<title>UsersModule&#45;&gt;ApplicantModule</title>
<path fill="none" stroke="black" d="M285.5,-122.11C285.5,-122.11 285.5,-140.99 285.5,-140.99"/>
<polygon fill="black" stroke="black" points="282,-140.99 285.5,-150.99 289,-140.99 282,-140.99"/>
</g>
<!-- ApplicantService  -->
<g id="node4" class="node">
<title>ApplicantService </title>
<polygon fill="#fb8072" stroke="black" points="343.69,-252 227.31,-252 227.31,-216 343.69,-216 343.69,-252"/>
<text text-anchor="middle" x="285.5" y="-229.8" font-family="Times,serif" font-size="14.00">ApplicantService </text>
</g>
<!-- ApplicantModule&#45;&gt;ApplicantService  -->
<g id="edge3" class="edge">
<title>ApplicantModule&#45;&gt;ApplicantService </title>
<path fill="none" stroke="black" stroke-dasharray="5,2" d="M285.5,-187.11C285.5,-187.11 285.5,-205.99 285.5,-205.99"/>
<polygon fill="black" stroke="black" points="282,-205.99 285.5,-215.99 289,-205.99 282,-205.99"/>
</g>
<!-- ApplicantService -->
<g id="node5" class="node">
<title>ApplicantService</title>
<ellipse fill="#fdb462" stroke="black" cx="137.5" cy="-104" rx="78.15" ry="18"/>
<text text-anchor="middle" x="137.5" y="-99.8" font-family="Times,serif" font-size="14.00">ApplicantService</text>
</g>
<!-- ApplicantService&#45;&gt;ApplicantModule -->
<g id="edge4" class="edge">
<title>ApplicantService&#45;&gt;ApplicantModule</title>
<path fill="none" stroke="black" d="M215.81,-104C226.54,-104 233.96,-104 233.96,-104 233.96,-104 233.96,-140.89 233.96,-140.89"/>
<polygon fill="black" stroke="black" points="230.46,-140.89 233.96,-150.89 237.46,-140.89 230.46,-140.89"/>
</g>
</g>
</svg>
