<?xml version="1.0" encoding="UTF-8" standalone="no"?>
<!DOCTYPE svg PUBLIC "-//W3C//DTD SVG 1.1//EN"
 "http://www.w3.org/Graphics/SVG/1.1/DTD/svg11.dtd">
<!-- Generated by graphviz version 2.47.0 (20210316.0004)
 -->
<!-- Title: dependencies Pages: 1 -->
<svg width="504pt" height="284pt"
 viewBox="0.00 0.00 504.00 284.00" xmlns="http://www.w3.org/2000/svg" xmlns:xlink="http://www.w3.org/1999/xlink">
<g id="graph0" class="graph" transform="scale(1 1) rotate(0) translate(4 280)">
<title>dependencies</title>
<polygon fill="white" stroke="transparent" points="-4,4 -4,-280 500,-280 500,4 -4,4"/>
<text text-anchor="start" x="227.01" y="-42.4" font-family="Times-12" font-weight="bold" font-size="14.00">Legend</text>
<polygon fill="#ffffb3" stroke="transparent" points="14,-10 14,-30 34,-30 34,-10 14,-10"/>
<text text-anchor="start" x="37.63" y="-15.4" font-family="Times-12" font-size="14.00"> &#160;Declarations</text>
<polygon fill="#8dd3c7" stroke="transparent" points="127,-10 127,-30 147,-30 147,-10 127,-10"/>
<text text-anchor="start" x="150.73" y="-15.4" font-family="Times-12" font-size="14.00"> &#160;Module</text>
<polygon fill="#80b1d3" stroke="transparent" points="213,-10 213,-30 233,-30 233,-10 213,-10"/>
<text text-anchor="start" x="236.78" y="-15.4" font-family="Times-12" font-size="14.00"> &#160;Bootstrap</text>
<polygon fill="#fdb462" stroke="transparent" points="310,-10 310,-30 330,-30 330,-10 310,-10"/>
<text text-anchor="start" x="333.67" y="-15.4" font-family="Times-12" font-size="14.00"> &#160;Providers</text>
<polygon fill="#fb8072" stroke="transparent" points="406,-10 406,-30 426,-30 426,-10 406,-10"/>
<text text-anchor="start" x="429.73" y="-15.4" font-family="Times-12" font-size="14.00"> &#160;Exports</text>
<g id="clust1" class="cluster">
<title>cluster_TypesEventsModule</title>
<polygon fill="none" stroke="black" stroke-dasharray="1,5" points="27,-70 27,-268 469,-268 469,-70 27,-70"/>
</g>
<g id="clust4" class="cluster">
<title>cluster_TypesEventsModule_exports</title>
<polygon fill="none" stroke="black" points="222,-208 222,-260 372,-260 372,-208 222,-208"/>
</g>
<g id="clust3" class="cluster">
<title>cluster_TypesEventsModule_imports</title>
<polygon fill="none" stroke="black" points="239,-78 239,-130 461,-130 461,-78 239,-78"/>
</g>
<g id="clust6" class="cluster">
<title>cluster_TypesEventsModule_providers</title>
<polygon fill="none" stroke="black" points="35,-78 35,-130 231,-130 231,-78 35,-78"/>
</g>
<!-- AuthModule -->
<g id="node1" class="node">
<title>AuthModule</title>
<polygon fill="#8dd3c7" stroke="black" points="452.55,-122 449.55,-126 428.55,-126 425.55,-122 365.45,-122 365.45,-86 452.55,-86 452.55,-122"/>
<text text-anchor="middle" x="409" y="-99.8" font-family="Times,serif" font-size="14.00">AuthModule</text>
</g>
<!-- TypesEventsModule -->
<g id="node3" class="node">
<title>TypesEventsModule</title>
<polygon fill="#8dd3c7" stroke="black" points="362.86,-187 359.86,-191 338.86,-191 335.86,-187 231.14,-187 231.14,-151 362.86,-151 362.86,-187"/>
<text text-anchor="middle" x="297" y="-164.8" font-family="Times,serif" font-size="14.00">TypesEventsModule</text>
</g>
<!-- AuthModule&#45;&gt;TypesEventsModule -->
<g id="edge1" class="edge">
<title>AuthModule&#45;&gt;TypesEventsModule</title>
<path fill="none" stroke="black" d="M365.38,-104C359.24,-104 354.96,-104 354.96,-104 354.96,-104 354.96,-140.89 354.96,-140.89"/>
<polygon fill="black" stroke="black" points="351.46,-140.89 354.96,-150.89 358.46,-140.89 351.46,-140.89"/>
</g>
<!-- LoggerModule -->
<g id="node2" class="node">
<title>LoggerModule</title>
<polygon fill="#8dd3c7" stroke="black" points="346.98,-122 343.98,-126 322.98,-126 319.98,-122 247.02,-122 247.02,-86 346.98,-86 346.98,-122"/>
<text text-anchor="middle" x="297" y="-99.8" font-family="Times,serif" font-size="14.00">LoggerModule</text>
</g>
<!-- LoggerModule&#45;&gt;TypesEventsModule -->
<g id="edge2" class="edge">
<title>LoggerModule&#45;&gt;TypesEventsModule</title>
<path fill="none" stroke="black" d="M297,-122.11C297,-122.11 297,-140.99 297,-140.99"/>
<polygon fill="black" stroke="black" points="293.5,-140.99 297,-150.99 300.5,-140.99 293.5,-140.99"/>
</g>
<!-- TypesEventsService  -->
<g id="node4" class="node">
<title>TypesEventsService </title>
<polygon fill="#fb8072" stroke="black" points="363.79,-252 230.21,-252 230.21,-216 363.79,-216 363.79,-252"/>
<text text-anchor="middle" x="297" y="-229.8" font-family="Times,serif" font-size="14.00">TypesEventsService </text>
</g>
<!-- TypesEventsModule&#45;&gt;TypesEventsService  -->
<g id="edge3" class="edge">
<title>TypesEventsModule&#45;&gt;TypesEventsService </title>
<path fill="none" stroke="black" stroke-dasharray="5,2" d="M297,-187.11C297,-187.11 297,-205.99 297,-205.99"/>
<polygon fill="black" stroke="black" points="293.5,-205.99 297,-215.99 300.5,-205.99 293.5,-205.99"/>
</g>
<!-- TypesEventsService -->
<g id="node5" class="node">
<title>TypesEventsService</title>
<ellipse fill="#fdb462" stroke="black" cx="133" cy="-104" rx="89.75" ry="18"/>
<text text-anchor="middle" x="133" y="-99.8" font-family="Times,serif" font-size="14.00">TypesEventsService</text>
</g>
<!-- TypesEventsService&#45;&gt;TypesEventsModule -->
<g id="edge4" class="edge">
<title>TypesEventsService&#45;&gt;TypesEventsModule</title>
<path fill="none" stroke="black" d="M222.93,-104C232.62,-104 239.04,-104 239.04,-104 239.04,-104 239.04,-140.89 239.04,-140.89"/>
<polygon fill="black" stroke="black" points="235.54,-140.89 239.04,-150.89 242.54,-140.89 235.54,-140.89"/>
</g>
</g>
</svg>
