<?xml version="1.0" encoding="UTF-8" standalone="no"?>
<!DOCTYPE svg PUBLIC "-//W3C//DTD SVG 1.1//EN"
 "http://www.w3.org/Graphics/SVG/1.1/DTD/svg11.dtd">
<!-- Generated by graphviz version 2.47.0 (20210316.0004)
 -->
<!-- Title: dependencies Pages: 1 -->
<svg width="528pt" height="211pt"
 viewBox="0.00 0.00 528.00 211.00" xmlns="http://www.w3.org/2000/svg" xmlns:xlink="http://www.w3.org/1999/xlink">
<g id="graph0" class="graph" transform="scale(1 1) rotate(0) translate(4 207)">
<title>dependencies</title>
<polygon fill="white" stroke="transparent" points="-4,4 -4,-207 524,-207 524,4 -4,4"/>
<text text-anchor="start" x="239.01" y="-42.4" font-family="Times-12" font-weight="bold" font-size="14.00">Legend</text>
<polygon fill="#ffffb3" stroke="transparent" points="26,-10 26,-30 46,-30 46,-10 26,-10"/>
<text text-anchor="start" x="49.63" y="-15.4" font-family="Times-12" font-size="14.00"> &#160;Declarations</text>
<polygon fill="#8dd3c7" stroke="transparent" points="139,-10 139,-30 159,-30 159,-10 139,-10"/>
<text text-anchor="start" x="162.73" y="-15.4" font-family="Times-12" font-size="14.00"> &#160;Module</text>
<polygon fill="#80b1d3" stroke="transparent" points="225,-10 225,-30 245,-30 245,-10 225,-10"/>
<text text-anchor="start" x="248.78" y="-15.4" font-family="Times-12" font-size="14.00"> &#160;Bootstrap</text>
<polygon fill="#fdb462" stroke="transparent" points="322,-10 322,-30 342,-30 342,-10 322,-10"/>
<text text-anchor="start" x="345.67" y="-15.4" font-family="Times-12" font-size="14.00"> &#160;Providers</text>
<polygon fill="#fb8072" stroke="transparent" points="418,-10 418,-30 438,-30 438,-10 418,-10"/>
<text text-anchor="start" x="441.73" y="-15.4" font-family="Times-12" font-size="14.00"> &#160;Exports</text>
<g id="clust1" class="cluster">
<title>cluster_UserConfigModule</title>
<polygon fill="none" stroke="black" stroke-dasharray="1,5" points="8,-70 8,-195 512,-195 512,-70 8,-70"/>
</g>
<g id="clust3" class="cluster">
<title>cluster_UserConfigModule_imports</title>
<polygon fill="none" stroke="black" points="210,-78 210,-130 504,-130 504,-78 210,-78"/>
</g>
<g id="clust6" class="cluster">
<title>cluster_UserConfigModule_providers</title>
<polygon fill="none" stroke="black" points="16,-78 16,-130 202,-130 202,-78 16,-78"/>
</g>
<!-- AuthModule -->
<g id="node1" class="node">
<title>AuthModule</title>
<polygon fill="#8dd3c7" stroke="black" points="495.55,-122 492.55,-126 471.55,-126 468.55,-122 408.45,-122 408.45,-86 495.55,-86 495.55,-122"/>
<text text-anchor="middle" x="452" y="-99.8" font-family="Times,serif" font-size="14.00">AuthModule</text>
</g>
<!-- UserConfigModule -->
<g id="node3" class="node">
<title>UserConfigModule</title>
<polygon fill="#8dd3c7" stroke="black" points="366.36,-187 363.36,-191 342.36,-191 339.36,-187 241.64,-187 241.64,-151 366.36,-151 366.36,-187"/>
<text text-anchor="middle" x="304" y="-164.8" font-family="Times,serif" font-size="14.00">UserConfigModule</text>
</g>
<!-- AuthModule&#45;&gt;UserConfigModule -->
<g id="edge1" class="edge">
<title>AuthModule&#45;&gt;UserConfigModule</title>
<path fill="none" stroke="black" d="M452,-122.11C452,-141.34 452,-169 452,-169 452,-169 376.77,-169 376.77,-169"/>
<polygon fill="black" stroke="black" points="376.77,-165.5 366.77,-169 376.77,-172.5 376.77,-165.5"/>
</g>
<!-- ConfigNotificationsModule -->
<g id="node2" class="node">
<title>ConfigNotificationsModule</title>
<polygon fill="#8dd3c7" stroke="black" points="389.53,-122 386.53,-126 365.53,-126 362.53,-122 218.47,-122 218.47,-86 389.53,-86 389.53,-122"/>
<text text-anchor="middle" x="304" y="-99.8" font-family="Times,serif" font-size="14.00">ConfigNotificationsModule</text>
</g>
<!-- ConfigNotificationsModule&#45;&gt;UserConfigModule -->
<g id="edge2" class="edge">
<title>ConfigNotificationsModule&#45;&gt;UserConfigModule</title>
<path fill="none" stroke="black" d="M304,-122.11C304,-122.11 304,-140.99 304,-140.99"/>
<polygon fill="black" stroke="black" points="300.5,-140.99 304,-150.99 307.5,-140.99 300.5,-140.99"/>
</g>
<!-- UserConfigService -->
<g id="node4" class="node">
<title>UserConfigService</title>
<ellipse fill="#fdb462" stroke="black" cx="109" cy="-104" rx="85.09" ry="18"/>
<text text-anchor="middle" x="109" y="-99.8" font-family="Times,serif" font-size="14.00">UserConfigService</text>
</g>
<!-- UserConfigService&#45;&gt;UserConfigModule -->
<g id="edge3" class="edge">
<title>UserConfigService&#45;&gt;UserConfigModule</title>
<path fill="none" stroke="black" d="M109,-122.11C109,-141.34 109,-169 109,-169 109,-169 231.5,-169 231.5,-169"/>
<polygon fill="black" stroke="black" points="231.5,-172.5 241.5,-169 231.5,-165.5 231.5,-172.5"/>
</g>
</g>
</svg>
