<?xml version="1.0" encoding="UTF-8" standalone="no"?>
<!DOCTYPE svg PUBLIC "-//W3C//DTD SVG 1.1//EN"
 "http://www.w3.org/Graphics/SVG/1.1/DTD/svg11.dtd">
<!-- Generated by graphviz version 2.47.0 (20210316.0004)
 -->
<!-- Title: dependencies Pages: 1 -->
<svg width="504pt" height="284pt"
 viewBox="0.00 0.00 504.00 284.00" xmlns="http://www.w3.org/2000/svg" xmlns:xlink="http://www.w3.org/1999/xlink">
<g id="graph0" class="graph" transform="scale(1 1) rotate(0) translate(4 280)">
<title>dependencies</title>
<polygon fill="white" stroke="transparent" points="-4,4 -4,-280 500,-280 500,4 -4,4"/>
<text text-anchor="start" x="227.01" y="-42.4" font-family="Times-12" font-weight="bold" font-size="14.00">Legend</text>
<polygon fill="#ffffb3" stroke="transparent" points="14,-10 14,-30 34,-30 34,-10 14,-10"/>
<text text-anchor="start" x="37.63" y="-15.4" font-family="Times-12" font-size="14.00"> &#160;Declarations</text>
<polygon fill="#8dd3c7" stroke="transparent" points="127,-10 127,-30 147,-30 147,-10 127,-10"/>
<text text-anchor="start" x="150.73" y="-15.4" font-family="Times-12" font-size="14.00"> &#160;Module</text>
<polygon fill="#80b1d3" stroke="transparent" points="213,-10 213,-30 233,-30 233,-10 213,-10"/>
<text text-anchor="start" x="236.78" y="-15.4" font-family="Times-12" font-size="14.00"> &#160;Bootstrap</text>
<polygon fill="#fdb462" stroke="transparent" points="310,-10 310,-30 330,-30 330,-10 310,-10"/>
<text text-anchor="start" x="333.67" y="-15.4" font-family="Times-12" font-size="14.00"> &#160;Providers</text>
<polygon fill="#fb8072" stroke="transparent" points="406,-10 406,-30 426,-30 426,-10 406,-10"/>
<text text-anchor="start" x="429.73" y="-15.4" font-family="Times-12" font-size="14.00"> &#160;Exports</text>
<g id="clust1" class="cluster">
<title>cluster_HelpDeskModule</title>
<polygon fill="none" stroke="black" stroke-dasharray="1,5" points="38,-70 38,-268 458,-268 458,-70 38,-70"/>
</g>
<g id="clust4" class="cluster">
<title>cluster_HelpDeskModule_exports</title>
<polygon fill="none" stroke="black" points="149,-208 149,-260 283,-260 283,-208 149,-208"/>
</g>
<g id="clust6" class="cluster">
<title>cluster_HelpDeskModule_providers</title>
<polygon fill="none" stroke="black" points="276,-78 276,-130 450,-130 450,-78 276,-78"/>
</g>
<g id="clust3" class="cluster">
<title>cluster_HelpDeskModule_imports</title>
<polygon fill="none" stroke="black" points="46,-78 46,-130 268,-130 268,-78 46,-78"/>
</g>
<!-- AuthModule -->
<g id="node1" class="node">
<title>AuthModule</title>
<polygon fill="#8dd3c7" stroke="black" points="259.55,-122 256.55,-126 235.55,-126 232.55,-122 172.45,-122 172.45,-86 259.55,-86 259.55,-122"/>
<text text-anchor="middle" x="216" y="-99.8" font-family="Times,serif" font-size="14.00">AuthModule</text>
</g>
<!-- HelpDeskModule -->
<g id="node3" class="node">
<title>HelpDeskModule</title>
<polygon fill="#8dd3c7" stroke="black" points="273.53,-187 270.53,-191 249.53,-191 246.53,-187 158.47,-187 158.47,-151 273.53,-151 273.53,-187"/>
<text text-anchor="middle" x="216" y="-164.8" font-family="Times,serif" font-size="14.00">HelpDeskModule</text>
</g>
<!-- AuthModule&#45;&gt;HelpDeskModule -->
<g id="edge1" class="edge">
<title>AuthModule&#45;&gt;HelpDeskModule</title>
<path fill="none" stroke="black" d="M216,-122.11C216,-122.11 216,-140.99 216,-140.99"/>
<polygon fill="black" stroke="black" points="212.5,-140.99 216,-150.99 219.5,-140.99 212.5,-140.99"/>
</g>
<!-- LoggerModule -->
<g id="node2" class="node">
<title>LoggerModule</title>
<polygon fill="#8dd3c7" stroke="black" points="153.98,-122 150.98,-126 129.98,-126 126.98,-122 54.02,-122 54.02,-86 153.98,-86 153.98,-122"/>
<text text-anchor="middle" x="104" y="-99.8" font-family="Times,serif" font-size="14.00">LoggerModule</text>
</g>
<!-- LoggerModule&#45;&gt;HelpDeskModule -->
<g id="edge2" class="edge">
<title>LoggerModule&#45;&gt;HelpDeskModule</title>
<path fill="none" stroke="black" d="M154,-104C160.65,-104 165.23,-104 165.23,-104 165.23,-104 165.23,-140.89 165.23,-140.89"/>
<polygon fill="black" stroke="black" points="161.73,-140.89 165.23,-150.89 168.73,-140.89 161.73,-140.89"/>
</g>
<!-- HelpDeskService  -->
<g id="node4" class="node">
<title>HelpDeskService </title>
<polygon fill="#fb8072" stroke="black" points="274.96,-252 157.04,-252 157.04,-216 274.96,-216 274.96,-252"/>
<text text-anchor="middle" x="216" y="-229.8" font-family="Times,serif" font-size="14.00">HelpDeskService </text>
</g>
<!-- HelpDeskModule&#45;&gt;HelpDeskService  -->
<g id="edge3" class="edge">
<title>HelpDeskModule&#45;&gt;HelpDeskService </title>
<path fill="none" stroke="black" stroke-dasharray="5,2" d="M216,-187.11C216,-187.11 216,-205.99 216,-205.99"/>
<polygon fill="black" stroke="black" points="212.5,-205.99 216,-215.99 219.5,-205.99 212.5,-205.99"/>
</g>
<!-- HelpDeskService -->
<g id="node5" class="node">
<title>HelpDeskService</title>
<ellipse fill="#fdb462" stroke="black" cx="363" cy="-104" rx="78.71" ry="18"/>
<text text-anchor="middle" x="363" y="-99.8" font-family="Times,serif" font-size="14.00">HelpDeskService</text>
</g>
<!-- HelpDeskService&#45;&gt;HelpDeskModule -->
<g id="edge4" class="edge">
<title>HelpDeskService&#45;&gt;HelpDeskModule</title>
<path fill="none" stroke="black" d="M283.97,-104C273.76,-104 266.77,-104 266.77,-104 266.77,-104 266.77,-140.89 266.77,-140.89"/>
<polygon fill="black" stroke="black" points="263.27,-140.89 266.77,-150.89 270.27,-140.89 263.27,-140.89"/>
</g>
</g>
</svg>
