<?xml version="1.0" encoding="UTF-8" standalone="no"?>
<!DOCTYPE svg PUBLIC "-//W3C//DTD SVG 1.1//EN"
 "http://www.w3.org/Graphics/SVG/1.1/DTD/svg11.dtd">
<!-- Generated by graphviz version 2.47.0 (20210316.0004)
 -->
<!-- Title: dependencies Pages: 1 -->
<svg width="504pt" height="284pt"
 viewBox="0.00 0.00 504.00 284.00" xmlns="http://www.w3.org/2000/svg" xmlns:xlink="http://www.w3.org/1999/xlink">
<g id="graph0" class="graph" transform="scale(1 1) rotate(0) translate(4 280)">
<title>dependencies</title>
<polygon fill="white" stroke="transparent" points="-4,4 -4,-280 500,-280 500,4 -4,4"/>
<text text-anchor="start" x="227.01" y="-42.4" font-family="Times-12" font-weight="bold" font-size="14.00">Legend</text>
<polygon fill="#ffffb3" stroke="transparent" points="14,-10 14,-30 34,-30 34,-10 14,-10"/>
<text text-anchor="start" x="37.63" y="-15.4" font-family="Times-12" font-size="14.00"> &#160;Declarations</text>
<polygon fill="#8dd3c7" stroke="transparent" points="127,-10 127,-30 147,-30 147,-10 127,-10"/>
<text text-anchor="start" x="150.73" y="-15.4" font-family="Times-12" font-size="14.00"> &#160;Module</text>
<polygon fill="#80b1d3" stroke="transparent" points="213,-10 213,-30 233,-30 233,-10 213,-10"/>
<text text-anchor="start" x="236.78" y="-15.4" font-family="Times-12" font-size="14.00"> &#160;Bootstrap</text>
<polygon fill="#fdb462" stroke="transparent" points="310,-10 310,-30 330,-30 330,-10 310,-10"/>
<text text-anchor="start" x="333.67" y="-15.4" font-family="Times-12" font-size="14.00"> &#160;Providers</text>
<polygon fill="#fb8072" stroke="transparent" points="406,-10 406,-30 426,-30 426,-10 406,-10"/>
<text text-anchor="start" x="429.73" y="-15.4" font-family="Times-12" font-size="14.00"> &#160;Exports</text>
<g id="clust1" class="cluster">
<title>cluster_ResourcesModule</title>
<polygon fill="none" stroke="black" stroke-dasharray="1,5" points="37,-70 37,-268 459,-268 459,-70 37,-70"/>
</g>
<g id="clust3" class="cluster">
<title>cluster_ResourcesModule_imports</title>
<polygon fill="none" stroke="black" points="229,-78 229,-130 451,-130 451,-78 229,-78"/>
</g>
<g id="clust6" class="cluster">
<title>cluster_ResourcesModule_providers</title>
<polygon fill="none" stroke="black" points="45,-78 45,-130 221,-130 221,-78 45,-78"/>
</g>
<g id="clust4" class="cluster">
<title>cluster_ResourcesModule_exports</title>
<polygon fill="none" stroke="black" points="219,-208 219,-260 355,-260 355,-208 219,-208"/>
</g>
<!-- AuthModule -->
<g id="node1" class="node">
<title>AuthModule</title>
<polygon fill="#8dd3c7" stroke="black" points="442.55,-122 439.55,-126 418.55,-126 415.55,-122 355.45,-122 355.45,-86 442.55,-86 442.55,-122"/>
<text text-anchor="middle" x="399" y="-99.8" font-family="Times,serif" font-size="14.00">AuthModule</text>
</g>
<!-- ResourcesModule -->
<g id="node3" class="node">
<title>ResourcesModule</title>
<polygon fill="#8dd3c7" stroke="black" points="345.58,-187 342.58,-191 321.58,-191 318.58,-187 228.42,-187 228.42,-151 345.58,-151 345.58,-187"/>
<text text-anchor="middle" x="287" y="-164.8" font-family="Times,serif" font-size="14.00">ResourcesModule</text>
</g>
<!-- AuthModule&#45;&gt;ResourcesModule -->
<g id="edge1" class="edge">
<title>AuthModule&#45;&gt;ResourcesModule</title>
<path fill="none" stroke="black" d="M355.24,-104C347.19,-104 341.26,-104 341.26,-104 341.26,-104 341.26,-140.89 341.26,-140.89"/>
<polygon fill="black" stroke="black" points="337.76,-140.89 341.26,-150.89 344.76,-140.89 337.76,-140.89"/>
</g>
<!-- LoggerModule -->
<g id="node2" class="node">
<title>LoggerModule</title>
<polygon fill="#8dd3c7" stroke="black" points="336.98,-122 333.98,-126 312.98,-126 309.98,-122 237.02,-122 237.02,-86 336.98,-86 336.98,-122"/>
<text text-anchor="middle" x="287" y="-99.8" font-family="Times,serif" font-size="14.00">LoggerModule</text>
</g>
<!-- LoggerModule&#45;&gt;ResourcesModule -->
<g id="edge2" class="edge">
<title>LoggerModule&#45;&gt;ResourcesModule</title>
<path fill="none" stroke="black" d="M287,-122.11C287,-122.11 287,-140.99 287,-140.99"/>
<polygon fill="black" stroke="black" points="283.5,-140.99 287,-150.99 290.5,-140.99 283.5,-140.99"/>
</g>
<!-- ResourcesService  -->
<g id="node4" class="node">
<title>ResourcesService </title>
<polygon fill="#fb8072" stroke="black" points="346.51,-252 227.49,-252 227.49,-216 346.51,-216 346.51,-252"/>
<text text-anchor="middle" x="287" y="-229.8" font-family="Times,serif" font-size="14.00">ResourcesService </text>
</g>
<!-- ResourcesModule&#45;&gt;ResourcesService  -->
<g id="edge3" class="edge">
<title>ResourcesModule&#45;&gt;ResourcesService </title>
<path fill="none" stroke="black" stroke-dasharray="5,2" d="M287,-187.11C287,-187.11 287,-205.99 287,-205.99"/>
<polygon fill="black" stroke="black" points="283.5,-205.99 287,-215.99 290.5,-205.99 283.5,-205.99"/>
</g>
<!-- ResourcesService -->
<g id="node5" class="node">
<title>ResourcesService</title>
<ellipse fill="#fdb462" stroke="black" cx="133" cy="-104" rx="79.85" ry="18"/>
<text text-anchor="middle" x="133" y="-99.8" font-family="Times,serif" font-size="14.00">ResourcesService</text>
</g>
<!-- ResourcesService&#45;&gt;ResourcesModule -->
<g id="edge4" class="edge">
<title>ResourcesService&#45;&gt;ResourcesModule</title>
<path fill="none" stroke="black" d="M213.03,-104C224.63,-104 232.74,-104 232.74,-104 232.74,-104 232.74,-140.89 232.74,-140.89"/>
<polygon fill="black" stroke="black" points="229.24,-140.89 232.74,-150.89 236.24,-140.89 229.24,-140.89"/>
</g>
</g>
</svg>
