<?xml version="1.0" encoding="UTF-8" standalone="no"?>
<!DOCTYPE svg PUBLIC "-//W3C//DTD SVG 1.1//EN"
 "http://www.w3.org/Graphics/SVG/1.1/DTD/svg11.dtd">
<!-- Generated by graphviz version 2.47.0 (20210316.0004)
 -->
<!-- Title: dependencies Pages: 1 -->
<svg width="728pt" height="211pt"
 viewBox="0.00 0.00 728.00 211.00" xmlns="http://www.w3.org/2000/svg" xmlns:xlink="http://www.w3.org/1999/xlink">
<g id="graph0" class="graph" transform="scale(1 1) rotate(0) translate(4 207)">
<title>dependencies</title>
<polygon fill="white" stroke="transparent" points="-4,4 -4,-207 724,-207 724,4 -4,4"/>
<text text-anchor="start" x="339.01" y="-42.4" font-family="Times-12" font-weight="bold" font-size="14.00">Legend</text>
<polygon fill="#ffffb3" stroke="transparent" points="126,-10 126,-30 146,-30 146,-10 126,-10"/>
<text text-anchor="start" x="149.63" y="-15.4" font-family="Times-12" font-size="14.00"> &#160;Declarations</text>
<polygon fill="#8dd3c7" stroke="transparent" points="239,-10 239,-30 259,-30 259,-10 239,-10"/>
<text text-anchor="start" x="262.73" y="-15.4" font-family="Times-12" font-size="14.00"> &#160;Module</text>
<polygon fill="#80b1d3" stroke="transparent" points="325,-10 325,-30 345,-30 345,-10 325,-10"/>
<text text-anchor="start" x="348.78" y="-15.4" font-family="Times-12" font-size="14.00"> &#160;Bootstrap</text>
<polygon fill="#fdb462" stroke="transparent" points="422,-10 422,-30 442,-30 442,-10 422,-10"/>
<text text-anchor="start" x="445.67" y="-15.4" font-family="Times-12" font-size="14.00"> &#160;Providers</text>
<polygon fill="#fb8072" stroke="transparent" points="518,-10 518,-30 538,-30 538,-10 518,-10"/>
<text text-anchor="start" x="541.73" y="-15.4" font-family="Times-12" font-size="14.00"> &#160;Exports</text>
<g id="clust1" class="cluster">
<title>cluster_AnnouncementsModule</title>
<polygon fill="none" stroke="black" stroke-dasharray="1,5" points="8,-70 8,-195 712,-195 712,-70 8,-70"/>
</g>
<g id="clust3" class="cluster">
<title>cluster_AnnouncementsModule_imports</title>
<polygon fill="none" stroke="black" points="246,-78 246,-130 704,-130 704,-78 246,-78"/>
</g>
<g id="clust6" class="cluster">
<title>cluster_AnnouncementsModule_providers</title>
<polygon fill="none" stroke="black" points="16,-78 16,-130 238,-130 238,-78 16,-78"/>
</g>
<!-- ApplicantModule -->
<g id="node1" class="node">
<title>ApplicantModule</title>
<polygon fill="#8dd3c7" stroke="black" points="696.26,-122 693.26,-126 672.26,-126 669.26,-122 581.74,-122 581.74,-86 696.26,-86 696.26,-122"/>
<text text-anchor="middle" x="639" y="-99.8" font-family="Times,serif" font-size="14.00">ApplicantModule</text>
</g>
<!-- AnnouncementsModule -->
<g id="node5" class="node">
<title>AnnouncementsModule</title>
<polygon fill="#8dd3c7" stroke="black" points="486.03,-187 483.03,-191 462.03,-191 459.03,-187 335.97,-187 335.97,-151 486.03,-151 486.03,-187"/>
<text text-anchor="middle" x="411" y="-164.8" font-family="Times,serif" font-size="14.00">AnnouncementsModule</text>
</g>
<!-- ApplicantModule&#45;&gt;AnnouncementsModule -->
<g id="edge1" class="edge">
<title>ApplicantModule&#45;&gt;AnnouncementsModule</title>
<path fill="none" stroke="black" d="M639,-122.11C639,-141.34 639,-169 639,-169 639,-169 496.29,-169 496.29,-169"/>
<polygon fill="black" stroke="black" points="496.29,-165.5 486.29,-169 496.29,-172.5 496.29,-165.5"/>
</g>
<!-- AuthModule -->
<g id="node2" class="node">
<title>AuthModule</title>
<polygon fill="#8dd3c7" stroke="black" points="563.55,-122 560.55,-126 539.55,-126 536.55,-122 476.45,-122 476.45,-86 563.55,-86 563.55,-122"/>
<text text-anchor="middle" x="520" y="-99.8" font-family="Times,serif" font-size="14.00">AuthModule</text>
</g>
<!-- AuthModule&#45;&gt;AnnouncementsModule -->
<g id="edge2" class="edge">
<title>AuthModule&#45;&gt;AnnouncementsModule</title>
<path fill="none" stroke="black" d="M481.24,-122.11C481.24,-122.11 481.24,-140.99 481.24,-140.99"/>
<polygon fill="black" stroke="black" points="477.74,-140.99 481.24,-150.99 484.74,-140.99 477.74,-140.99"/>
</g>
<!-- FormsModule -->
<g id="node3" class="node">
<title>FormsModule</title>
<polygon fill="#8dd3c7" stroke="black" points="458.83,-122 455.83,-126 434.83,-126 431.83,-122 363.17,-122 363.17,-86 458.83,-86 458.83,-122"/>
<text text-anchor="middle" x="411" y="-99.8" font-family="Times,serif" font-size="14.00">FormsModule</text>
</g>
<!-- FormsModule&#45;&gt;AnnouncementsModule -->
<g id="edge3" class="edge">
<title>FormsModule&#45;&gt;AnnouncementsModule</title>
<path fill="none" stroke="black" d="M411,-122.11C411,-122.11 411,-140.99 411,-140.99"/>
<polygon fill="black" stroke="black" points="407.5,-140.99 411,-150.99 414.5,-140.99 407.5,-140.99"/>
</g>
<!-- UsersModule -->
<g id="node4" class="node">
<title>UsersModule</title>
<polygon fill="#8dd3c7" stroke="black" points="345.92,-122 342.92,-126 321.92,-126 318.92,-122 254.08,-122 254.08,-86 345.92,-86 345.92,-122"/>
<text text-anchor="middle" x="300" y="-99.8" font-family="Times,serif" font-size="14.00">UsersModule</text>
</g>
<!-- UsersModule&#45;&gt;AnnouncementsModule -->
<g id="edge4" class="edge">
<title>UsersModule&#45;&gt;AnnouncementsModule</title>
<path fill="none" stroke="black" d="M340.72,-122.11C340.72,-122.11 340.72,-140.99 340.72,-140.99"/>
<polygon fill="black" stroke="black" points="337.22,-140.99 340.72,-150.99 344.22,-140.99 337.22,-140.99"/>
</g>
<!-- AnnouncementsService -->
<g id="node6" class="node">
<title>AnnouncementsService</title>
<ellipse fill="#fdb462" stroke="black" cx="127" cy="-104" rx="102.99" ry="18"/>
<text text-anchor="middle" x="127" y="-99.8" font-family="Times,serif" font-size="14.00">AnnouncementsService</text>
</g>
<!-- AnnouncementsService&#45;&gt;AnnouncementsModule -->
<g id="edge5" class="edge">
<title>AnnouncementsService&#45;&gt;AnnouncementsModule</title>
<path fill="none" stroke="black" d="M127,-122.11C127,-141.34 127,-169 127,-169 127,-169 325.64,-169 325.64,-169"/>
<polygon fill="black" stroke="black" points="325.64,-172.5 335.64,-169 325.64,-165.5 325.64,-172.5"/>
</g>
</g>
</svg>
