<?xml version="1.0" encoding="UTF-8" standalone="no"?>
<!DOCTYPE svg PUBLIC "-//W3C//DTD SVG 1.1//EN"
 "http://www.w3.org/Graphics/SVG/1.1/DTD/svg11.dtd">
<!-- Generated by graphviz version 2.47.0 (20210316.0004)
 -->
<!-- Title: dependencies Pages: 1 -->
<svg width="504pt" height="284pt"
 viewBox="0.00 0.00 504.00 284.00" xmlns="http://www.w3.org/2000/svg" xmlns:xlink="http://www.w3.org/1999/xlink">
<g id="graph0" class="graph" transform="scale(1 1) rotate(0) translate(4 280)">
<title>dependencies</title>
<polygon fill="white" stroke="transparent" points="-4,4 -4,-280 500,-280 500,4 -4,4"/>
<text text-anchor="start" x="227.01" y="-42.4" font-family="Times-12" font-weight="bold" font-size="14.00">Legend</text>
<polygon fill="#ffffb3" stroke="transparent" points="14,-10 14,-30 34,-30 34,-10 14,-10"/>
<text text-anchor="start" x="37.63" y="-15.4" font-family="Times-12" font-size="14.00"> &#160;Declarations</text>
<polygon fill="#8dd3c7" stroke="transparent" points="127,-10 127,-30 147,-30 147,-10 127,-10"/>
<text text-anchor="start" x="150.73" y="-15.4" font-family="Times-12" font-size="14.00"> &#160;Module</text>
<polygon fill="#80b1d3" stroke="transparent" points="213,-10 213,-30 233,-30 233,-10 213,-10"/>
<text text-anchor="start" x="236.78" y="-15.4" font-family="Times-12" font-size="14.00"> &#160;Bootstrap</text>
<polygon fill="#fdb462" stroke="transparent" points="310,-10 310,-30 330,-30 330,-10 310,-10"/>
<text text-anchor="start" x="333.67" y="-15.4" font-family="Times-12" font-size="14.00"> &#160;Providers</text>
<polygon fill="#fb8072" stroke="transparent" points="406,-10 406,-30 426,-30 426,-10 406,-10"/>
<text text-anchor="start" x="429.73" y="-15.4" font-family="Times-12" font-size="14.00"> &#160;Exports</text>
<g id="clust1" class="cluster">
<title>cluster_IntegrationsModule</title>
<polygon fill="none" stroke="black" stroke-dasharray="1,5" points="31,-70 31,-268 465,-268 465,-70 31,-70"/>
</g>
<g id="clust4" class="cluster">
<title>cluster_IntegrationsModule_exports</title>
<polygon fill="none" stroke="black" points="137,-208 137,-260 281,-260 281,-208 137,-208"/>
</g>
<g id="clust6" class="cluster">
<title>cluster_IntegrationsModule_providers</title>
<polygon fill="none" stroke="black" points="269,-78 269,-130 457,-130 457,-78 269,-78"/>
</g>
<g id="clust3" class="cluster">
<title>cluster_IntegrationsModule_imports</title>
<polygon fill="none" stroke="black" points="39,-78 39,-130 261,-130 261,-78 39,-78"/>
</g>
<!-- AuthModule -->
<g id="node1" class="node">
<title>AuthModule</title>
<polygon fill="#8dd3c7" stroke="black" points="252.55,-122 249.55,-126 228.55,-126 225.55,-122 165.45,-122 165.45,-86 252.55,-86 252.55,-122"/>
<text text-anchor="middle" x="209" y="-99.8" font-family="Times,serif" font-size="14.00">AuthModule</text>
</g>
<!-- IntegrationsModule -->
<g id="node3" class="node">
<title>IntegrationsModule</title>
<polygon fill="#8dd3c7" stroke="black" points="272.42,-187 269.42,-191 248.42,-191 245.42,-187 145.58,-187 145.58,-151 272.42,-151 272.42,-187"/>
<text text-anchor="middle" x="209" y="-164.8" font-family="Times,serif" font-size="14.00">IntegrationsModule</text>
</g>
<!-- AuthModule&#45;&gt;IntegrationsModule -->
<g id="edge1" class="edge">
<title>AuthModule&#45;&gt;IntegrationsModule</title>
<path fill="none" stroke="black" d="M209,-122.11C209,-122.11 209,-140.99 209,-140.99"/>
<polygon fill="black" stroke="black" points="205.5,-140.99 209,-150.99 212.5,-140.99 205.5,-140.99"/>
</g>
<!-- LoggerModule -->
<g id="node2" class="node">
<title>LoggerModule</title>
<polygon fill="#8dd3c7" stroke="black" points="146.98,-122 143.98,-126 122.98,-126 119.98,-122 47.02,-122 47.02,-86 146.98,-86 146.98,-122"/>
<text text-anchor="middle" x="97" y="-99.8" font-family="Times,serif" font-size="14.00">LoggerModule</text>
</g>
<!-- LoggerModule&#45;&gt;IntegrationsModule -->
<g id="edge2" class="edge">
<title>LoggerModule&#45;&gt;IntegrationsModule</title>
<path fill="none" stroke="black" d="M147.13,-104C152.53,-104 156.11,-104 156.11,-104 156.11,-104 156.11,-140.89 156.11,-140.89"/>
<polygon fill="black" stroke="black" points="152.61,-140.89 156.11,-150.89 159.61,-140.89 152.61,-140.89"/>
</g>
<!-- IntegrationsService  -->
<g id="node4" class="node">
<title>IntegrationsService </title>
<polygon fill="#fb8072" stroke="black" points="273.34,-252 144.66,-252 144.66,-216 273.34,-216 273.34,-252"/>
<text text-anchor="middle" x="209" y="-229.8" font-family="Times,serif" font-size="14.00">IntegrationsService </text>
</g>
<!-- IntegrationsModule&#45;&gt;IntegrationsService  -->
<g id="edge3" class="edge">
<title>IntegrationsModule&#45;&gt;IntegrationsService </title>
<path fill="none" stroke="black" stroke-dasharray="5,2" d="M209,-187.11C209,-187.11 209,-205.99 209,-205.99"/>
<polygon fill="black" stroke="black" points="205.5,-205.99 209,-215.99 212.5,-205.99 205.5,-205.99"/>
</g>
<!-- IntegrationsService -->
<g id="node5" class="node">
<title>IntegrationsService</title>
<ellipse fill="#fdb462" stroke="black" cx="363" cy="-104" rx="86.23" ry="18"/>
<text text-anchor="middle" x="363" y="-99.8" font-family="Times,serif" font-size="14.00">IntegrationsService</text>
</g>
<!-- IntegrationsService&#45;&gt;IntegrationsModule -->
<g id="edge4" class="edge">
<title>IntegrationsService&#45;&gt;IntegrationsModule</title>
<path fill="none" stroke="black" d="M276.47,-104C268.01,-104 262.49,-104 262.49,-104 262.49,-104 262.49,-140.89 262.49,-140.89"/>
<polygon fill="black" stroke="black" points="258.99,-140.89 262.49,-150.89 265.99,-140.89 258.99,-140.89"/>
</g>
</g>
</svg>
