<?xml version="1.0" encoding="UTF-8" standalone="no"?>
<!DOCTYPE svg PUBLIC "-//W3C//DTD SVG 1.1//EN"
 "http://www.w3.org/Graphics/SVG/1.1/DTD/svg11.dtd">
<!-- Generated by graphviz version 2.47.0 (20210316.0004)
 -->
<!-- Title: dependencies Pages: 1 -->
<svg width="674pt" height="284pt"
 viewBox="0.00 0.00 674.00 284.00" xmlns="http://www.w3.org/2000/svg" xmlns:xlink="http://www.w3.org/1999/xlink">
<g id="graph0" class="graph" transform="scale(1 1) rotate(0) translate(4 280)">
<title>dependencies</title>
<polygon fill="white" stroke="transparent" points="-4,4 -4,-280 670,-280 670,4 -4,4"/>
<text text-anchor="start" x="312.01" y="-42.4" font-family="Times-12" font-weight="bold" font-size="14.00">Legend</text>
<polygon fill="#ffffb3" stroke="transparent" points="99,-10 99,-30 119,-30 119,-10 99,-10"/>
<text text-anchor="start" x="122.63" y="-15.4" font-family="Times-12" font-size="14.00"> &#160;Declarations</text>
<polygon fill="#8dd3c7" stroke="transparent" points="212,-10 212,-30 232,-30 232,-10 212,-10"/>
<text text-anchor="start" x="235.73" y="-15.4" font-family="Times-12" font-size="14.00"> &#160;Module</text>
<polygon fill="#80b1d3" stroke="transparent" points="298,-10 298,-30 318,-30 318,-10 298,-10"/>
<text text-anchor="start" x="321.78" y="-15.4" font-family="Times-12" font-size="14.00"> &#160;Bootstrap</text>
<polygon fill="#fdb462" stroke="transparent" points="395,-10 395,-30 415,-30 415,-10 395,-10"/>
<text text-anchor="start" x="418.67" y="-15.4" font-family="Times-12" font-size="14.00"> &#160;Providers</text>
<polygon fill="#fb8072" stroke="transparent" points="491,-10 491,-30 511,-30 511,-10 491,-10"/>
<text text-anchor="start" x="514.73" y="-15.4" font-family="Times-12" font-size="14.00"> &#160;Exports</text>
<g id="clust1" class="cluster">
<title>cluster_InvitationsModule</title>
<polygon fill="none" stroke="black" stroke-dasharray="1,5" points="8,-70 8,-268 658,-268 658,-70 8,-70"/>
</g>
<g id="clust6" class="cluster">
<title>cluster_InvitationsModule_providers</title>
<polygon fill="none" stroke="black" points="472,-78 472,-130 650,-130 650,-78 472,-78"/>
</g>
<g id="clust3" class="cluster">
<title>cluster_InvitationsModule_imports</title>
<polygon fill="none" stroke="black" points="16,-78 16,-130 464,-130 464,-78 16,-78"/>
</g>
<g id="clust4" class="cluster">
<title>cluster_InvitationsModule_exports</title>
<polygon fill="none" stroke="black" points="232,-208 232,-260 370,-260 370,-208 232,-208"/>
</g>
<!-- AuthModule -->
<g id="node1" class="node">
<title>AuthModule</title>
<polygon fill="#8dd3c7" stroke="black" points="455.55,-122 452.55,-126 431.55,-126 428.55,-122 368.45,-122 368.45,-86 455.55,-86 455.55,-122"/>
<text text-anchor="middle" x="412" y="-99.8" font-family="Times,serif" font-size="14.00">AuthModule</text>
</g>
<!-- InvitationsModule -->
<g id="node5" class="node">
<title>InvitationsModule</title>
<polygon fill="#8dd3c7" stroke="black" points="360.93,-187 357.93,-191 336.93,-191 333.93,-187 241.07,-187 241.07,-151 360.93,-151 360.93,-187"/>
<text text-anchor="middle" x="301" y="-164.8" font-family="Times,serif" font-size="14.00">InvitationsModule</text>
</g>
<!-- AuthModule&#45;&gt;InvitationsModule -->
<g id="edge1" class="edge">
<title>AuthModule&#45;&gt;InvitationsModule</title>
<path fill="none" stroke="black" d="M368.29,-104C360.85,-104 355.47,-104 355.47,-104 355.47,-104 355.47,-140.89 355.47,-140.89"/>
<polygon fill="black" stroke="black" points="351.97,-140.89 355.47,-150.89 358.97,-140.89 351.97,-140.89"/>
</g>
<!-- EmailsModule -->
<g id="node2" class="node">
<title>EmailsModule</title>
<polygon fill="#8dd3c7" stroke="black" points="350.43,-122 347.43,-126 326.43,-126 323.43,-122 251.57,-122 251.57,-86 350.43,-86 350.43,-122"/>
<text text-anchor="middle" x="301" y="-99.8" font-family="Times,serif" font-size="14.00">EmailsModule</text>
</g>
<!-- EmailsModule&#45;&gt;InvitationsModule -->
<g id="edge2" class="edge">
<title>EmailsModule&#45;&gt;InvitationsModule</title>
<path fill="none" stroke="black" d="M301,-122.11C301,-122.11 301,-140.99 301,-140.99"/>
<polygon fill="black" stroke="black" points="297.5,-140.99 301,-150.99 304.5,-140.99 297.5,-140.99"/>
</g>
<!-- LoggerModule -->
<g id="node3" class="node">
<title>LoggerModule</title>
<polygon fill="#8dd3c7" stroke="black" points="233.98,-122 230.98,-126 209.98,-126 206.98,-122 134.02,-122 134.02,-86 233.98,-86 233.98,-122"/>
<text text-anchor="middle" x="184" y="-99.8" font-family="Times,serif" font-size="14.00">LoggerModule</text>
</g>
<!-- LoggerModule&#45;&gt;InvitationsModule -->
<g id="edge3" class="edge">
<title>LoggerModule&#45;&gt;InvitationsModule</title>
<path fill="none" stroke="black" d="M234.18,-104C241.45,-104 246.53,-104 246.53,-104 246.53,-104 246.53,-140.89 246.53,-140.89"/>
<polygon fill="black" stroke="black" points="243.03,-140.89 246.53,-150.89 250.03,-140.89 243.03,-140.89"/>
</g>
<!-- UsersModule -->
<g id="node4" class="node">
<title>UsersModule</title>
<polygon fill="#8dd3c7" stroke="black" points="115.92,-122 112.92,-126 91.92,-126 88.92,-122 24.08,-122 24.08,-86 115.92,-86 115.92,-122"/>
<text text-anchor="middle" x="70" y="-99.8" font-family="Times,serif" font-size="14.00">UsersModule</text>
</g>
<!-- UsersModule&#45;&gt;InvitationsModule -->
<g id="edge4" class="edge">
<title>UsersModule&#45;&gt;InvitationsModule</title>
<path fill="none" stroke="black" d="M70,-122.11C70,-141.34 70,-169 70,-169 70,-169 231.21,-169 231.21,-169"/>
<polygon fill="black" stroke="black" points="231.21,-172.5 241.21,-169 231.21,-165.5 231.21,-172.5"/>
</g>
<!-- InvitationsService  -->
<g id="node6" class="node">
<title>InvitationsService </title>
<polygon fill="#fb8072" stroke="black" points="361.86,-252 240.14,-252 240.14,-216 361.86,-216 361.86,-252"/>
<text text-anchor="middle" x="301" y="-229.8" font-family="Times,serif" font-size="14.00">InvitationsService </text>
</g>
<!-- InvitationsModule&#45;&gt;InvitationsService  -->
<g id="edge5" class="edge">
<title>InvitationsModule&#45;&gt;InvitationsService </title>
<path fill="none" stroke="black" stroke-dasharray="5,2" d="M301,-187.11C301,-187.11 301,-205.99 301,-205.99"/>
<polygon fill="black" stroke="black" points="297.5,-205.99 301,-215.99 304.5,-205.99 297.5,-205.99"/>
</g>
<!-- InvitationsService -->
<g id="node7" class="node">
<title>InvitationsService</title>
<ellipse fill="#fdb462" stroke="black" cx="561" cy="-104" rx="81.1" ry="18"/>
<text text-anchor="middle" x="561" y="-99.8" font-family="Times,serif" font-size="14.00">InvitationsService</text>
</g>
<!-- InvitationsService&#45;&gt;InvitationsModule -->
<g id="edge6" class="edge">
<title>InvitationsService&#45;&gt;InvitationsModule</title>
<path fill="none" stroke="black" d="M561,-122.11C561,-141.34 561,-169 561,-169 561,-169 370.98,-169 370.98,-169"/>
<polygon fill="black" stroke="black" points="370.98,-165.5 360.98,-169 370.98,-172.5 370.98,-165.5"/>
</g>
</g>
</svg>
