<?xml version="1.0" encoding="UTF-8" standalone="no"?>
<!DOCTYPE svg PUBLIC "-//W3C//DTD SVG 1.1//EN"
 "http://www.w3.org/Graphics/SVG/1.1/DTD/svg11.dtd">
<!-- Generated by graphviz version 2.47.0 (20210316.0004)
 -->
<!-- Title: dependencies Pages: 1 -->
<svg width="616pt" height="284pt"
 viewBox="0.00 0.00 616.00 284.00" xmlns="http://www.w3.org/2000/svg" xmlns:xlink="http://www.w3.org/1999/xlink">
<g id="graph0" class="graph" transform="scale(1 1) rotate(0) translate(4 280)">
<title>dependencies</title>
<polygon fill="white" stroke="transparent" points="-4,4 -4,-280 612,-280 612,4 -4,4"/>
<text text-anchor="start" x="283.01" y="-42.4" font-family="Times-12" font-weight="bold" font-size="14.00">Legend</text>
<polygon fill="#ffffb3" stroke="transparent" points="70,-10 70,-30 90,-30 90,-10 70,-10"/>
<text text-anchor="start" x="93.63" y="-15.4" font-family="Times-12" font-size="14.00"> &#160;Declarations</text>
<polygon fill="#8dd3c7" stroke="transparent" points="183,-10 183,-30 203,-30 203,-10 183,-10"/>
<text text-anchor="start" x="206.73" y="-15.4" font-family="Times-12" font-size="14.00"> &#160;Module</text>
<polygon fill="#80b1d3" stroke="transparent" points="269,-10 269,-30 289,-30 289,-10 269,-10"/>
<text text-anchor="start" x="292.78" y="-15.4" font-family="Times-12" font-size="14.00"> &#160;Bootstrap</text>
<polygon fill="#fdb462" stroke="transparent" points="366,-10 366,-30 386,-30 386,-10 366,-10"/>
<text text-anchor="start" x="389.67" y="-15.4" font-family="Times-12" font-size="14.00"> &#160;Providers</text>
<polygon fill="#fb8072" stroke="transparent" points="462,-10 462,-30 482,-30 482,-10 462,-10"/>
<text text-anchor="start" x="485.73" y="-15.4" font-family="Times-12" font-size="14.00"> &#160;Exports</text>
<g id="clust1" class="cluster">
<title>cluster_NotificationsModule</title>
<polygon fill="none" stroke="black" stroke-dasharray="1,5" points="8,-70 8,-268 600,-268 600,-70 8,-70"/>
</g>
<g id="clust6" class="cluster">
<title>cluster_NotificationsModule_providers</title>
<polygon fill="none" stroke="black" points="396,-78 396,-130 592,-130 592,-78 396,-78"/>
</g>
<g id="clust3" class="cluster">
<title>cluster_NotificationsModule_imports</title>
<polygon fill="none" stroke="black" points="16,-78 16,-130 388,-130 388,-78 16,-78"/>
</g>
<g id="clust4" class="cluster">
<title>cluster_NotificationsModule_exports</title>
<polygon fill="none" stroke="black" points="133,-208 133,-260 476,-260 476,-208 133,-208"/>
</g>
<!-- ConfigNotificationsModule -->
<g id="node1" class="node">
<title>ConfigNotificationsModule</title>
<polygon fill="#8dd3c7" stroke="black" points="379.53,-122 376.53,-126 355.53,-126 352.53,-122 208.47,-122 208.47,-86 379.53,-86 379.53,-122"/>
<text text-anchor="middle" x="294" y="-99.8" font-family="Times,serif" font-size="14.00">ConfigNotificationsModule</text>
</g>
<!-- NotificationsModule -->
<g id="node3" class="node">
<title>NotificationsModule</title>
<polygon fill="#8dd3c7" stroke="black" points="360.14,-187 357.14,-191 336.14,-191 333.14,-187 227.86,-187 227.86,-151 360.14,-151 360.14,-187"/>
<text text-anchor="middle" x="294" y="-164.8" font-family="Times,serif" font-size="14.00">NotificationsModule</text>
</g>
<!-- ConfigNotificationsModule&#45;&gt;NotificationsModule -->
<g id="edge1" class="edge">
<title>ConfigNotificationsModule&#45;&gt;NotificationsModule</title>
<path fill="none" stroke="black" d="M294,-122.11C294,-122.11 294,-140.99 294,-140.99"/>
<polygon fill="black" stroke="black" points="290.5,-140.99 294,-150.99 297.5,-140.99 290.5,-140.99"/>
</g>
<!-- TypesNotificationsModule -->
<g id="node2" class="node">
<title>TypesNotificationsModule</title>
<polygon fill="#8dd3c7" stroke="black" points="190.36,-122 187.36,-126 166.36,-126 163.36,-122 23.64,-122 23.64,-86 190.36,-86 190.36,-122"/>
<text text-anchor="middle" x="107" y="-99.8" font-family="Times,serif" font-size="14.00">TypesNotificationsModule</text>
</g>
<!-- TypesNotificationsModule&#45;&gt;NotificationsModule -->
<g id="edge2" class="edge">
<title>TypesNotificationsModule&#45;&gt;NotificationsModule</title>
<path fill="none" stroke="black" d="M165.57,-122.11C165.57,-141.34 165.57,-169 165.57,-169 165.57,-169 217.53,-169 217.53,-169"/>
<polygon fill="black" stroke="black" points="217.53,-172.5 227.53,-169 217.53,-165.5 217.53,-172.5"/>
</g>
<!-- NotificationListenerService  -->
<g id="node4" class="node">
<title>NotificationListenerService </title>
<polygon fill="#fb8072" stroke="black" points="468.5,-252 293.5,-252 293.5,-216 468.5,-216 468.5,-252"/>
<text text-anchor="middle" x="381" y="-229.8" font-family="Times,serif" font-size="14.00">NotificationListenerService </text>
</g>
<!-- NotificationsModule&#45;&gt;NotificationListenerService  -->
<g id="edge3" class="edge">
<title>NotificationsModule&#45;&gt;NotificationListenerService </title>
<path fill="none" stroke="black" stroke-dasharray="5,2" d="M326.91,-187.11C326.91,-187.11 326.91,-205.99 326.91,-205.99"/>
<polygon fill="black" stroke="black" points="323.41,-205.99 326.91,-215.99 330.41,-205.99 323.41,-205.99"/>
</g>
<!-- NotificationsService  -->
<g id="node5" class="node">
<title>NotificationsService </title>
<polygon fill="#fb8072" stroke="black" points="275.07,-252 140.93,-252 140.93,-216 275.07,-216 275.07,-252"/>
<text text-anchor="middle" x="208" y="-229.8" font-family="Times,serif" font-size="14.00">NotificationsService </text>
</g>
<!-- NotificationsModule&#45;&gt;NotificationsService  -->
<g id="edge4" class="edge">
<title>NotificationsModule&#45;&gt;NotificationsService </title>
<path fill="none" stroke="black" stroke-dasharray="5,2" d="M251.48,-187.11C251.48,-187.11 251.48,-205.99 251.48,-205.99"/>
<polygon fill="black" stroke="black" points="247.98,-205.99 251.48,-215.99 254.98,-205.99 247.98,-205.99"/>
</g>
<!-- NotificationsService -->
<g id="node6" class="node">
<title>NotificationsService</title>
<ellipse fill="#fdb462" stroke="black" cx="494" cy="-104" rx="90.32" ry="18"/>
<text text-anchor="middle" x="494" y="-99.8" font-family="Times,serif" font-size="14.00">NotificationsService</text>
</g>
<!-- NotificationsService&#45;&gt;NotificationsModule -->
<g id="edge5" class="edge">
<title>NotificationsService&#45;&gt;NotificationsModule</title>
<path fill="none" stroke="black" d="M436.04,-118.1C436.04,-137.22 436.04,-169 436.04,-169 436.04,-169 370.45,-169 370.45,-169"/>
<polygon fill="black" stroke="black" points="370.45,-165.5 360.45,-169 370.45,-172.5 370.45,-165.5"/>
</g>
</g>
</svg>
