<?xml version="1.0" encoding="UTF-8" standalone="no"?>
<!DOCTYPE svg PUBLIC "-//W3C//DTD SVG 1.1//EN"
 "http://www.w3.org/Graphics/SVG/1.1/DTD/svg11.dtd">
<!-- Generated by graphviz version 2.47.0 (20210316.0004)
 -->
<!-- Title: dependencies Pages: 1 -->
<svg width="504pt" height="284pt"
 viewBox="0.00 0.00 504.00 284.00" xmlns="http://www.w3.org/2000/svg" xmlns:xlink="http://www.w3.org/1999/xlink">
<g id="graph0" class="graph" transform="scale(1 1) rotate(0) translate(4 280)">
<title>dependencies</title>
<polygon fill="white" stroke="transparent" points="-4,4 -4,-280 500,-280 500,4 -4,4"/>
<text text-anchor="start" x="227.01" y="-42.4" font-family="Times-12" font-weight="bold" font-size="14.00">Legend</text>
<polygon fill="#ffffb3" stroke="transparent" points="14,-10 14,-30 34,-30 34,-10 14,-10"/>
<text text-anchor="start" x="37.63" y="-15.4" font-family="Times-12" font-size="14.00"> &#160;Declarations</text>
<polygon fill="#8dd3c7" stroke="transparent" points="127,-10 127,-30 147,-30 147,-10 127,-10"/>
<text text-anchor="start" x="150.73" y="-15.4" font-family="Times-12" font-size="14.00"> &#160;Module</text>
<polygon fill="#80b1d3" stroke="transparent" points="213,-10 213,-30 233,-30 233,-10 213,-10"/>
<text text-anchor="start" x="236.78" y="-15.4" font-family="Times-12" font-size="14.00"> &#160;Bootstrap</text>
<polygon fill="#fdb462" stroke="transparent" points="310,-10 310,-30 330,-30 330,-10 310,-10"/>
<text text-anchor="start" x="333.67" y="-15.4" font-family="Times-12" font-size="14.00"> &#160;Providers</text>
<polygon fill="#fb8072" stroke="transparent" points="406,-10 406,-30 426,-30 426,-10 406,-10"/>
<text text-anchor="start" x="429.73" y="-15.4" font-family="Times-12" font-size="14.00"> &#160;Exports</text>
<g id="clust1" class="cluster">
<title>cluster_SitesModule</title>
<polygon fill="none" stroke="black" stroke-dasharray="1,5" points="58,-70 58,-268 438,-268 438,-70 58,-70"/>
</g>
<g id="clust4" class="cluster">
<title>cluster_SitesModule_exports</title>
<polygon fill="none" stroke="black" points="184,-208 184,-260 288,-260 288,-208 184,-208"/>
</g>
<g id="clust6" class="cluster">
<title>cluster_SitesModule_providers</title>
<polygon fill="none" stroke="black" points="296,-78 296,-130 430,-130 430,-78 296,-78"/>
</g>
<g id="clust3" class="cluster">
<title>cluster_SitesModule_imports</title>
<polygon fill="none" stroke="black" points="66,-78 66,-130 288,-130 288,-78 66,-78"/>
</g>
<!-- AuthModule -->
<g id="node1" class="node">
<title>AuthModule</title>
<polygon fill="#8dd3c7" stroke="black" points="279.55,-122 276.55,-126 255.55,-126 252.55,-122 192.45,-122 192.45,-86 279.55,-86 279.55,-122"/>
<text text-anchor="middle" x="236" y="-99.8" font-family="Times,serif" font-size="14.00">AuthModule</text>
</g>
<!-- SitesModule -->
<g id="node3" class="node">
<title>SitesModule</title>
<polygon fill="#8dd3c7" stroke="black" points="279.27,-187 276.27,-191 255.27,-191 252.27,-187 192.73,-187 192.73,-151 279.27,-151 279.27,-187"/>
<text text-anchor="middle" x="236" y="-164.8" font-family="Times,serif" font-size="14.00">SitesModule</text>
</g>
<!-- AuthModule&#45;&gt;SitesModule -->
<g id="edge1" class="edge">
<title>AuthModule&#45;&gt;SitesModule</title>
<path fill="none" stroke="black" d="M236,-122.11C236,-122.11 236,-140.99 236,-140.99"/>
<polygon fill="black" stroke="black" points="232.5,-140.99 236,-150.99 239.5,-140.99 232.5,-140.99"/>
</g>
<!-- LoggerModule -->
<g id="node2" class="node">
<title>LoggerModule</title>
<polygon fill="#8dd3c7" stroke="black" points="173.98,-122 170.98,-126 149.98,-126 146.98,-122 74.02,-122 74.02,-86 173.98,-86 173.98,-122"/>
<text text-anchor="middle" x="124" y="-99.8" font-family="Times,serif" font-size="14.00">LoggerModule</text>
</g>
<!-- LoggerModule&#45;&gt;SitesModule -->
<g id="edge2" class="edge">
<title>LoggerModule&#45;&gt;SitesModule</title>
<path fill="none" stroke="black" d="M124,-122.11C124,-141.34 124,-169 124,-169 124,-169 182.7,-169 182.7,-169"/>
<polygon fill="black" stroke="black" points="182.7,-172.5 192.7,-169 182.7,-165.5 182.7,-172.5"/>
</g>
<!-- SitesService  -->
<g id="node4" class="node">
<title>SitesService </title>
<polygon fill="#fb8072" stroke="black" points="280.2,-252 191.8,-252 191.8,-216 280.2,-216 280.2,-252"/>
<text text-anchor="middle" x="236" y="-229.8" font-family="Times,serif" font-size="14.00">SitesService </text>
</g>
<!-- SitesModule&#45;&gt;SitesService  -->
<g id="edge3" class="edge">
<title>SitesModule&#45;&gt;SitesService </title>
<path fill="none" stroke="black" stroke-dasharray="5,2" d="M236,-187.11C236,-187.11 236,-205.99 236,-205.99"/>
<polygon fill="black" stroke="black" points="232.5,-205.99 236,-215.99 239.5,-205.99 232.5,-205.99"/>
</g>
<!-- SitesService -->
<g id="node5" class="node">
<title>SitesService</title>
<ellipse fill="#fdb462" stroke="black" cx="363" cy="-104" rx="58.54" ry="18"/>
<text text-anchor="middle" x="363" y="-99.8" font-family="Times,serif" font-size="14.00">SitesService</text>
</g>
<!-- SitesService&#45;&gt;SitesModule -->
<g id="edge4" class="edge">
<title>SitesService&#45;&gt;SitesModule</title>
<path fill="none" stroke="black" d="M363,-122.11C363,-141.34 363,-169 363,-169 363,-169 289.35,-169 289.35,-169"/>
<polygon fill="black" stroke="black" points="289.35,-165.5 279.35,-169 289.35,-172.5 289.35,-165.5"/>
</g>
</g>
</svg>
