<?xml version="1.0" encoding="UTF-8" standalone="no"?>
<!DOCTYPE svg PUBLIC "-//W3C//DTD SVG 1.1//EN"
 "http://www.w3.org/Graphics/SVG/1.1/DTD/svg11.dtd">
<!-- Generated by graphviz version 2.47.0 (20210316.0004)
 -->
<!-- Title: dependencies Pages: 1 -->
<svg width="510pt" height="284pt"
 viewBox="0.00 0.00 510.00 284.00" xmlns="http://www.w3.org/2000/svg" xmlns:xlink="http://www.w3.org/1999/xlink">
<g id="graph0" class="graph" transform="scale(1 1) rotate(0) translate(4 280)">
<title>dependencies</title>
<polygon fill="white" stroke="transparent" points="-4,4 -4,-280 506,-280 506,4 -4,4"/>
<text text-anchor="start" x="230.01" y="-42.4" font-family="Times-12" font-weight="bold" font-size="14.00">Legend</text>
<polygon fill="#ffffb3" stroke="transparent" points="17,-10 17,-30 37,-30 37,-10 17,-10"/>
<text text-anchor="start" x="40.63" y="-15.4" font-family="Times-12" font-size="14.00"> &#160;Declarations</text>
<polygon fill="#8dd3c7" stroke="transparent" points="130,-10 130,-30 150,-30 150,-10 130,-10"/>
<text text-anchor="start" x="153.73" y="-15.4" font-family="Times-12" font-size="14.00"> &#160;Module</text>
<polygon fill="#80b1d3" stroke="transparent" points="216,-10 216,-30 236,-30 236,-10 216,-10"/>
<text text-anchor="start" x="239.78" y="-15.4" font-family="Times-12" font-size="14.00"> &#160;Bootstrap</text>
<polygon fill="#fdb462" stroke="transparent" points="313,-10 313,-30 333,-30 333,-10 313,-10"/>
<text text-anchor="start" x="336.67" y="-15.4" font-family="Times-12" font-size="14.00"> &#160;Providers</text>
<polygon fill="#fb8072" stroke="transparent" points="409,-10 409,-30 429,-30 429,-10 409,-10"/>
<text text-anchor="start" x="432.73" y="-15.4" font-family="Times-12" font-size="14.00"> &#160;Exports</text>
<g id="clust1" class="cluster">
<title>cluster_ConfigEvaluationsModule</title>
<polygon fill="none" stroke="black" stroke-dasharray="1,5" points="8,-70 8,-268 494,-268 494,-70 8,-70"/>
</g>
<g id="clust3" class="cluster">
<title>cluster_ConfigEvaluationsModule_imports</title>
<polygon fill="none" stroke="black" points="264,-78 264,-130 486,-130 486,-78 264,-78"/>
</g>
<g id="clust4" class="cluster">
<title>cluster_ConfigEvaluationsModule_exports</title>
<polygon fill="none" stroke="black" points="231,-208 231,-260 413,-260 413,-208 231,-208"/>
</g>
<g id="clust6" class="cluster">
<title>cluster_ConfigEvaluationsModule_providers</title>
<polygon fill="none" stroke="black" points="16,-78 16,-130 256,-130 256,-78 16,-78"/>
</g>
<!-- AuthModule -->
<g id="node1" class="node">
<title>AuthModule</title>
<polygon fill="#8dd3c7" stroke="black" points="477.55,-122 474.55,-126 453.55,-126 450.55,-122 390.45,-122 390.45,-86 477.55,-86 477.55,-122"/>
<text text-anchor="middle" x="434" y="-99.8" font-family="Times,serif" font-size="14.00">AuthModule</text>
</g>
<!-- ConfigEvaluationsModule -->
<g id="node3" class="node">
<title>ConfigEvaluationsModule</title>
<polygon fill="#8dd3c7" stroke="black" points="404.04,-187 401.04,-191 380.04,-191 377.04,-187 239.96,-187 239.96,-151 404.04,-151 404.04,-187"/>
<text text-anchor="middle" x="322" y="-164.8" font-family="Times,serif" font-size="14.00">ConfigEvaluationsModule</text>
</g>
<!-- AuthModule&#45;&gt;ConfigEvaluationsModule -->
<g id="edge1" class="edge">
<title>AuthModule&#45;&gt;ConfigEvaluationsModule</title>
<path fill="none" stroke="black" d="M397.25,-122.11C397.25,-122.11 397.25,-140.99 397.25,-140.99"/>
<polygon fill="black" stroke="black" points="393.75,-140.99 397.25,-150.99 400.75,-140.99 393.75,-140.99"/>
</g>
<!-- LoggerModule -->
<g id="node2" class="node">
<title>LoggerModule</title>
<polygon fill="#8dd3c7" stroke="black" points="371.98,-122 368.98,-126 347.98,-126 344.98,-122 272.02,-122 272.02,-86 371.98,-86 371.98,-122"/>
<text text-anchor="middle" x="322" y="-99.8" font-family="Times,serif" font-size="14.00">LoggerModule</text>
</g>
<!-- LoggerModule&#45;&gt;ConfigEvaluationsModule -->
<g id="edge2" class="edge">
<title>LoggerModule&#45;&gt;ConfigEvaluationsModule</title>
<path fill="none" stroke="black" d="M322,-122.11C322,-122.11 322,-140.99 322,-140.99"/>
<polygon fill="black" stroke="black" points="318.5,-140.99 322,-150.99 325.5,-140.99 318.5,-140.99"/>
</g>
<!-- ConfigEvaluationsService  -->
<g id="node4" class="node">
<title>ConfigEvaluationsService </title>
<polygon fill="#fb8072" stroke="black" points="405.46,-252 238.54,-252 238.54,-216 405.46,-216 405.46,-252"/>
<text text-anchor="middle" x="322" y="-229.8" font-family="Times,serif" font-size="14.00">ConfigEvaluationsService </text>
</g>
<!-- ConfigEvaluationsModule&#45;&gt;ConfigEvaluationsService  -->
<g id="edge3" class="edge">
<title>ConfigEvaluationsModule&#45;&gt;ConfigEvaluationsService </title>
<path fill="none" stroke="black" stroke-dasharray="5,2" d="M322,-187.11C322,-187.11 322,-205.99 322,-205.99"/>
<polygon fill="black" stroke="black" points="318.5,-205.99 322,-215.99 325.5,-205.99 318.5,-205.99"/>
</g>
<!-- ConfigEvaluationsService -->
<g id="node5" class="node">
<title>ConfigEvaluationsService</title>
<ellipse fill="#fdb462" stroke="black" cx="136" cy="-104" rx="112.32" ry="18"/>
<text text-anchor="middle" x="136" y="-99.8" font-family="Times,serif" font-size="14.00">ConfigEvaluationsService</text>
</g>
<!-- ConfigEvaluationsService&#45;&gt;ConfigEvaluationsModule -->
<g id="edge4" class="edge">
<title>ConfigEvaluationsService&#45;&gt;ConfigEvaluationsModule</title>
<path fill="none" stroke="black" d="M244.07,-109.1C244.07,-109.1 244.07,-140.74 244.07,-140.74"/>
<polygon fill="black" stroke="black" points="240.57,-140.74 244.07,-150.74 247.57,-140.74 240.57,-140.74"/>
</g>
</g>
</svg>
