<?xml version="1.0" encoding="UTF-8" standalone="no"?>
<!DOCTYPE svg PUBLIC "-//W3C//DTD SVG 1.1//EN"
 "http://www.w3.org/Graphics/SVG/1.1/DTD/svg11.dtd">
<!-- Generated by graphviz version 2.47.0 (20210316.0004)
 -->
<!-- Title: dependencies Pages: 1 -->
<svg width="504pt" height="211pt"
 viewBox="0.00 0.00 504.00 211.00" xmlns="http://www.w3.org/2000/svg" xmlns:xlink="http://www.w3.org/1999/xlink">
<g id="graph0" class="graph" transform="scale(1 1) rotate(0) translate(4 207)">
<title>dependencies</title>
<polygon fill="white" stroke="transparent" points="-4,4 -4,-207 500,-207 500,4 -4,4"/>
<text text-anchor="start" x="227.01" y="-42.4" font-family="Times-12" font-weight="bold" font-size="14.00">Legend</text>
<polygon fill="#ffffb3" stroke="transparent" points="14,-10 14,-30 34,-30 34,-10 14,-10"/>
<text text-anchor="start" x="37.63" y="-15.4" font-family="Times-12" font-size="14.00"> &#160;Declarations</text>
<polygon fill="#8dd3c7" stroke="transparent" points="127,-10 127,-30 147,-30 147,-10 127,-10"/>
<text text-anchor="start" x="150.73" y="-15.4" font-family="Times-12" font-size="14.00"> &#160;Module</text>
<polygon fill="#80b1d3" stroke="transparent" points="213,-10 213,-30 233,-30 233,-10 213,-10"/>
<text text-anchor="start" x="236.78" y="-15.4" font-family="Times-12" font-size="14.00"> &#160;Bootstrap</text>
<polygon fill="#fdb462" stroke="transparent" points="310,-10 310,-30 330,-30 330,-10 310,-10"/>
<text text-anchor="start" x="333.67" y="-15.4" font-family="Times-12" font-size="14.00"> &#160;Providers</text>
<polygon fill="#fb8072" stroke="transparent" points="406,-10 406,-30 426,-30 426,-10 406,-10"/>
<text text-anchor="start" x="429.73" y="-15.4" font-family="Times-12" font-size="14.00"> &#160;Exports</text>
<g id="clust1" class="cluster">
<title>cluster_RatingModule</title>
<polygon fill="none" stroke="black" stroke-dasharray="1,5" points="86,-70 86,-195 410,-195 410,-70 86,-70"/>
</g>
<g id="clust6" class="cluster">
<title>cluster_RatingModule_providers</title>
<polygon fill="none" stroke="black" points="254,-78 254,-130 402,-130 402,-78 254,-78"/>
</g>
<g id="clust3" class="cluster">
<title>cluster_RatingModule_imports</title>
<polygon fill="none" stroke="black" points="94,-78 94,-130 246,-130 246,-78 94,-78"/>
</g>
<!-- RatingConfigModule -->
<g id="node1" class="node">
<title>RatingConfigModule</title>
<polygon fill="#8dd3c7" stroke="black" points="237.77,-122 234.77,-126 213.77,-126 210.77,-122 102.23,-122 102.23,-86 237.77,-86 237.77,-122"/>
<text text-anchor="middle" x="170" y="-99.8" font-family="Times,serif" font-size="14.00">RatingConfigModule</text>
</g>
<!-- RatingModule -->
<g id="node2" class="node">
<title>RatingModule</title>
<polygon fill="#8dd3c7" stroke="black" points="297.38,-187 294.38,-191 273.38,-191 270.38,-187 200.62,-187 200.62,-151 297.38,-151 297.38,-187"/>
<text text-anchor="middle" x="249" y="-164.8" font-family="Times,serif" font-size="14.00">RatingModule</text>
</g>
<!-- RatingConfigModule&#45;&gt;RatingModule -->
<g id="edge1" class="edge">
<title>RatingConfigModule&#45;&gt;RatingModule</title>
<path fill="none" stroke="black" d="M219.22,-122.11C219.22,-122.11 219.22,-140.99 219.22,-140.99"/>
<polygon fill="black" stroke="black" points="215.72,-140.99 219.22,-150.99 222.72,-140.99 215.72,-140.99"/>
</g>
<!-- RatingService -->
<g id="node3" class="node">
<title>RatingService</title>
<ellipse fill="#fdb462" stroke="black" cx="328" cy="-104" rx="65.99" ry="18"/>
<text text-anchor="middle" x="328" y="-99.8" font-family="Times,serif" font-size="14.00">RatingService</text>
</g>
<!-- RatingService&#45;&gt;RatingModule -->
<g id="edge2" class="edge">
<title>RatingService&#45;&gt;RatingModule</title>
<path fill="none" stroke="black" d="M279.85,-116.53C279.85,-116.53 279.85,-140.85 279.85,-140.85"/>
<polygon fill="black" stroke="black" points="276.35,-140.85 279.85,-150.85 283.35,-140.85 276.35,-140.85"/>
</g>
</g>
</svg>
