<?xml version="1.0" encoding="UTF-8" standalone="no"?>
<!DOCTYPE svg PUBLIC "-//W3C//DTD SVG 1.1//EN"
 "http://www.w3.org/Graphics/SVG/1.1/DTD/svg11.dtd">
<!-- Generated by graphviz version 2.47.0 (20210316.0004)
 -->
<!-- Title: dependencies Pages: 1 -->
<svg width="4897pt" height="211pt"
 viewBox="0.00 0.00 4897.00 211.00" xmlns="http://www.w3.org/2000/svg" xmlns:xlink="http://www.w3.org/1999/xlink">
<g id="graph0" class="graph" transform="scale(1 1) rotate(0) translate(4 207)">
<title>dependencies</title>
<polygon fill="white" stroke="transparent" points="-4,4 -4,-207 4893,-207 4893,4 -4,4"/>
<text text-anchor="start" x="2423.51" y="-42.4" font-family="Times-12" font-weight="bold" font-size="14.00">Legend</text>
<polygon fill="#ffffb3" stroke="transparent" points="2210.5,-10 2210.5,-30 2230.5,-30 2230.5,-10 2210.5,-10"/>
<text text-anchor="start" x="2234.13" y="-15.4" font-family="Times-12" font-size="14.00"> &#160;Declarations</text>
<polygon fill="#8dd3c7" stroke="transparent" points="2323.5,-10 2323.5,-30 2343.5,-30 2343.5,-10 2323.5,-10"/>
<text text-anchor="start" x="2347.23" y="-15.4" font-family="Times-12" font-size="14.00"> &#160;Module</text>
<polygon fill="#80b1d3" stroke="transparent" points="2409.5,-10 2409.5,-30 2429.5,-30 2429.5,-10 2409.5,-10"/>
<text text-anchor="start" x="2433.28" y="-15.4" font-family="Times-12" font-size="14.00"> &#160;Bootstrap</text>
<polygon fill="#fdb462" stroke="transparent" points="2506.5,-10 2506.5,-30 2526.5,-30 2526.5,-10 2506.5,-10"/>
<text text-anchor="start" x="2530.17" y="-15.4" font-family="Times-12" font-size="14.00"> &#160;Providers</text>
<polygon fill="#fb8072" stroke="transparent" points="2602.5,-10 2602.5,-30 2622.5,-30 2622.5,-10 2602.5,-10"/>
<text text-anchor="start" x="2626.23" y="-15.4" font-family="Times-12" font-size="14.00"> &#160;Exports</text>
<g id="clust1" class="cluster">
<title>cluster_AppModule</title>
<polygon fill="none" stroke="black" stroke-dasharray="1,5" points="8,-70 8,-195 4881,-195 4881,-70 8,-70"/>
</g>
<g id="clust3" class="cluster">
<title>cluster_AppModule_imports</title>
<polygon fill="none" stroke="black" points="16,-78 16,-130 4873,-130 4873,-78 16,-78"/>
</g>
<!-- ActivitiesConfigModule -->
<g id="node1" class="node">
<title>ActivitiesConfigModule</title>
<polygon fill="#8dd3c7" stroke="black" points="4865.37,-122 4862.37,-126 4841.37,-126 4838.37,-122 4712.63,-122 4712.63,-86 4865.37,-86 4865.37,-122"/>
<text text-anchor="middle" x="4789" y="-99.8" font-family="Times,serif" font-size="14.00">ActivitiesConfigModule</text>
</g>
<!-- AppModule -->
<g id="node37" class="node">
<title>AppModule</title>
<polygon fill="#8dd3c7" stroke="black" points="2418.66,-187 2415.66,-191 2394.66,-191 2391.66,-187 2335.34,-187 2335.34,-151 2418.66,-151 2418.66,-187"/>
<text text-anchor="middle" x="2377" y="-164.8" font-family="Times,serif" font-size="14.00">AppModule</text>
</g>
<!-- ActivitiesConfigModule&#45;&gt;AppModule -->
<g id="edge1" class="edge">
<title>ActivitiesConfigModule&#45;&gt;AppModule</title>
<path fill="none" stroke="black" d="M4789,-122.38C4789,-146.28 4789,-185 4789,-185 4789,-185 2428.86,-185 2428.86,-185"/>
<polygon fill="black" stroke="black" points="2428.86,-181.5 2418.86,-185 2428.86,-188.5 2428.86,-181.5"/>
</g>
<!-- AnnouncementsModule -->
<g id="node2" class="node">
<title>AnnouncementsModule</title>
<polygon fill="#8dd3c7" stroke="black" points="4694.03,-122 4691.03,-126 4670.03,-126 4667.03,-122 4543.97,-122 4543.97,-86 4694.03,-86 4694.03,-122"/>
<text text-anchor="middle" x="4619" y="-99.8" font-family="Times,serif" font-size="14.00">AnnouncementsModule</text>
</g>
<!-- AnnouncementsModule&#45;&gt;AppModule -->
<g id="edge2" class="edge">
<title>AnnouncementsModule&#45;&gt;AppModule</title>
<path fill="none" stroke="black" d="M4619,-122.32C4619,-145.66 4619,-183 4619,-183 4619,-183 2428.8,-183 2428.8,-183"/>
<polygon fill="black" stroke="black" points="2428.8,-179.5 2418.8,-183 2428.8,-186.5 2428.8,-179.5"/>
</g>
<!-- ApplicantModule -->
<g id="node3" class="node">
<title>ApplicantModule</title>
<polygon fill="#8dd3c7" stroke="black" points="4525.26,-122 4522.26,-126 4501.26,-126 4498.26,-122 4410.74,-122 4410.74,-86 4525.26,-86 4525.26,-122"/>
<text text-anchor="middle" x="4468" y="-99.8" font-family="Times,serif" font-size="14.00">ApplicantModule</text>
</g>
<!-- ApplicantModule&#45;&gt;AppModule -->
<g id="edge3" class="edge">
<title>ApplicantModule&#45;&gt;AppModule</title>
<path fill="none" stroke="black" d="M4468,-122.09C4468,-145.13 4468,-182 4468,-182 4468,-182 2428.77,-182 2428.77,-182"/>
<polygon fill="black" stroke="black" points="2428.77,-178.5 2418.77,-182 2428.77,-185.5 2428.77,-178.5"/>
</g>
<!-- AuthCodeModule -->
<g id="node4" class="node">
<title>AuthCodeModule</title>
<polygon fill="#8dd3c7" stroke="black" points="4392.6,-122 4389.6,-126 4368.6,-126 4365.6,-122 4275.4,-122 4275.4,-86 4392.6,-86 4392.6,-122"/>
<text text-anchor="middle" x="4334" y="-99.8" font-family="Times,serif" font-size="14.00">AuthCodeModule</text>
</g>
<!-- AuthCodeModule&#45;&gt;AppModule -->
<g id="edge4" class="edge">
<title>AuthCodeModule&#45;&gt;AppModule</title>
<path fill="none" stroke="black" d="M4334,-122.16C4334,-144.35 4334,-179 4334,-179 4334,-179 2428.78,-179 2428.78,-179"/>
<polygon fill="black" stroke="black" points="2428.78,-175.5 2418.78,-179 2428.78,-182.5 2428.78,-175.5"/>
</g>
<!-- AuthModule -->
<g id="node5" class="node">
<title>AuthModule</title>
<polygon fill="#8dd3c7" stroke="black" points="4257.55,-122 4254.55,-126 4233.55,-126 4230.55,-122 4170.45,-122 4170.45,-86 4257.55,-86 4257.55,-122"/>
<text text-anchor="middle" x="4214" y="-99.8" font-family="Times,serif" font-size="14.00">AuthModule</text>
</g>
<!-- AuthModule&#45;&gt;AppModule -->
<g id="edge5" class="edge">
<title>AuthModule&#45;&gt;AppModule</title>
<path fill="none" stroke="black" d="M4214,-122.04C4214,-143.66 4214,-177 4214,-177 4214,-177 2428.82,-177 2428.82,-177"/>
<polygon fill="black" stroke="black" points="2428.82,-173.5 2418.82,-177 2428.82,-180.5 2428.82,-173.5"/>
</g>
<!-- BusinessModule -->
<g id="node6" class="node">
<title>BusinessModule</title>
<polygon fill="#8dd3c7" stroke="black" points="4152.83,-122 4149.83,-126 4128.83,-126 4125.83,-122 4043.17,-122 4043.17,-86 4152.83,-86 4152.83,-122"/>
<text text-anchor="middle" x="4098" y="-99.8" font-family="Times,serif" font-size="14.00">BusinessModule</text>
</g>
<!-- BusinessModule&#45;&gt;AppModule -->
<g id="edge6" class="edge">
<title>BusinessModule&#45;&gt;AppModule</title>
<path fill="none" stroke="black" d="M4098,-122.28C4098,-143.32 4098,-175 4098,-175 4098,-175 2428.69,-175 2428.69,-175"/>
<polygon fill="black" stroke="black" points="2428.69,-171.5 2418.69,-175 2428.69,-178.5 2428.69,-171.5"/>
</g>
<!-- ConfigEvaluationsModule -->
<g id="node7" class="node">
<title>ConfigEvaluationsModule</title>
<polygon fill="#8dd3c7" stroke="black" points="4025.04,-122 4022.04,-126 4001.04,-126 3998.04,-122 3860.96,-122 3860.96,-86 4025.04,-86 4025.04,-122"/>
<text text-anchor="middle" x="3943" y="-99.8" font-family="Times,serif" font-size="14.00">ConfigEvaluationsModule</text>
</g>
<!-- ConfigEvaluationsModule&#45;&gt;AppModule -->
<g id="edge7" class="edge">
<title>ConfigEvaluationsModule&#45;&gt;AppModule</title>
<path fill="none" stroke="black" d="M3943,-122.13C3943,-142.57 3943,-173 3943,-173 3943,-173 2428.89,-173 2428.89,-173"/>
<polygon fill="black" stroke="black" points="2428.89,-169.5 2418.89,-173 2428.89,-176.5 2428.89,-169.5"/>
</g>
<!-- ConfigurationAppModule -->
<g id="node8" class="node">
<title>ConfigurationAppModule</title>
<polygon fill="#8dd3c7" stroke="black" points="3843.2,-122 3840.2,-126 3819.2,-126 3816.2,-122 3680.8,-122 3680.8,-86 3843.2,-86 3843.2,-122"/>
<text text-anchor="middle" x="3762" y="-99.8" font-family="Times,serif" font-size="14.00">ConfigurationAppModule</text>
</g>
<!-- ConfigurationAppModule&#45;&gt;AppModule -->
<g id="edge8" class="edge">
<title>ConfigurationAppModule&#45;&gt;AppModule</title>
<path fill="none" stroke="black" d="M3762,-122.31C3762,-142.15 3762,-171 3762,-171 3762,-171 2428.83,-171 2428.83,-171"/>
<polygon fill="black" stroke="black" points="2428.83,-167.5 2418.83,-171 2428.83,-174.5 2428.83,-167.5"/>
</g>
<!-- ContentModule -->
<g id="node9" class="node">
<title>ContentModule</title>
<polygon fill="#8dd3c7" stroke="black" points="3662.88,-122 3659.88,-126 3638.88,-126 3635.88,-122 3559.12,-122 3559.12,-86 3662.88,-86 3662.88,-122"/>
<text text-anchor="middle" x="3611" y="-99.8" font-family="Times,serif" font-size="14.00">ContentModule</text>
</g>
<!-- ContentModule&#45;&gt;AppModule -->
<g id="edge9" class="edge">
<title>ContentModule&#45;&gt;AppModule</title>
<path fill="none" stroke="black" d="M3611,-122.11C3611,-141.34 3611,-169 3611,-169 3611,-169 2428.76,-169 2428.76,-169"/>
<polygon fill="black" stroke="black" points="2428.76,-165.5 2418.76,-169 2428.76,-172.5 2428.76,-165.5"/>
</g>
<!-- DownloadsModule -->
<g id="node10" class="node">
<title>DownloadsModule</title>
<polygon fill="#8dd3c7" stroke="black" points="3540.81,-122 3537.81,-126 3516.81,-126 3513.81,-122 3417.19,-122 3417.19,-86 3540.81,-86 3540.81,-122"/>
<text text-anchor="middle" x="3479" y="-99.8" font-family="Times,serif" font-size="14.00">DownloadsModule</text>
</g>
<!-- DownloadsModule&#45;&gt;AppModule -->
<g id="edge10" class="edge">
<title>DownloadsModule&#45;&gt;AppModule</title>
<path fill="none" stroke="black" d="M3479,-122.22C3479,-140.83 3479,-167 3479,-167 3479,-167 2428.85,-167 2428.85,-167"/>
<polygon fill="black" stroke="black" points="2428.85,-163.5 2418.85,-167 2428.85,-170.5 2428.85,-163.5"/>
</g>
<!-- EmailsModule -->
<g id="node11" class="node">
<title>EmailsModule</title>
<polygon fill="#8dd3c7" stroke="black" points="3399.43,-122 3396.43,-126 3375.43,-126 3372.43,-122 3300.57,-122 3300.57,-86 3399.43,-86 3399.43,-122"/>
<text text-anchor="middle" x="3350" y="-99.8" font-family="Times,serif" font-size="14.00">EmailsModule</text>
</g>
<!-- EmailsModule&#45;&gt;AppModule -->
<g id="edge11" class="edge">
<title>EmailsModule&#45;&gt;AppModule</title>
<path fill="none" stroke="black" d="M3350,-122.3C3350,-140.27 3350,-165 3350,-165 3350,-165 2428.81,-165 2428.81,-165"/>
<polygon fill="black" stroke="black" points="2428.81,-161.5 2418.81,-165 2428.81,-168.5 2428.81,-161.5"/>
</g>
<!-- EntrepreneurModule -->
<g id="node12" class="node">
<title>EntrepreneurModule</title>
<polygon fill="#8dd3c7" stroke="black" points="3282.12,-122 3279.12,-126 3258.12,-126 3255.12,-122 3149.88,-122 3149.88,-86 3282.12,-86 3282.12,-122"/>
<text text-anchor="middle" x="3216" y="-99.8" font-family="Times,serif" font-size="14.00">EntrepreneurModule</text>
</g>
<!-- EntrepreneurModule&#45;&gt;AppModule -->
<g id="edge12" class="edge">
<title>EntrepreneurModule&#45;&gt;AppModule</title>
<path fill="none" stroke="black" d="M3216,-122.02C3216,-139.37 3216,-163 3216,-163 3216,-163 2428.89,-163 2428.89,-163"/>
<polygon fill="black" stroke="black" points="2428.89,-159.5 2418.89,-163 2428.89,-166.5 2428.89,-159.5"/>
</g>
<!-- EvaluationsModule -->
<g id="node13" class="node">
<title>EvaluationsModule</title>
<polygon fill="#8dd3c7" stroke="black" points="3131.65,-122 3128.65,-126 3107.65,-126 3104.65,-122 3006.35,-122 3006.35,-86 3131.65,-86 3131.65,-122"/>
<text text-anchor="middle" x="3069" y="-99.8" font-family="Times,serif" font-size="14.00">EvaluationsModule</text>
</g>
<!-- EvaluationsModule&#45;&gt;AppModule -->
<g id="edge13" class="edge">
<title>EvaluationsModule&#45;&gt;AppModule</title>
<path fill="none" stroke="black" d="M3069,-122.04C3069,-138.73 3069,-161 3069,-161 3069,-161 2428.73,-161 2428.73,-161"/>
<polygon fill="black" stroke="black" points="2428.73,-157.5 2418.73,-161 2428.73,-164.5 2428.73,-157.5"/>
</g>
<!-- EventsModule -->
<g id="node14" class="node">
<title>EventsModule</title>
<polygon fill="#8dd3c7" stroke="black" points="2987.65,-122 2984.65,-126 2963.65,-126 2960.65,-122 2890.35,-122 2890.35,-86 2987.65,-86 2987.65,-122"/>
<text text-anchor="middle" x="2939" y="-99.8" font-family="Times,serif" font-size="14.00">EventsModule</text>
</g>
<!-- EventsModule&#45;&gt;AppModule -->
<g id="edge14" class="edge">
<title>EventsModule&#45;&gt;AppModule</title>
<path fill="none" stroke="black" d="M2939,-122.01C2939,-138.05 2939,-159 2939,-159 2939,-159 2428.78,-159 2428.78,-159"/>
<polygon fill="black" stroke="black" points="2428.78,-155.5 2418.78,-159 2428.78,-162.5 2428.78,-155.5"/>
</g>
<!-- ExpertModule -->
<g id="node15" class="node">
<title>ExpertModule</title>
<polygon fill="#8dd3c7" stroke="black" points="2872.37,-122 2869.37,-126 2848.37,-126 2845.37,-122 2775.63,-122 2775.63,-86 2872.37,-86 2872.37,-122"/>
<text text-anchor="middle" x="2824" y="-99.8" font-family="Times,serif" font-size="14.00">ExpertModule</text>
</g>
<!-- ExpertModule&#45;&gt;AppModule -->
<g id="edge15" class="edge">
<title>ExpertModule&#45;&gt;AppModule</title>
<path fill="none" stroke="black" d="M2824,-122.24C2824,-137.57 2824,-157 2824,-157 2824,-157 2429.05,-157 2429.05,-157"/>
<polygon fill="black" stroke="black" points="2429.05,-153.5 2419.05,-157 2429.05,-160.5 2429.05,-153.5"/>
</g>
<!-- FormsModule -->
<g id="node16" class="node">
<title>FormsModule</title>
<polygon fill="#8dd3c7" stroke="black" points="2757.83,-122 2754.83,-126 2733.83,-126 2730.83,-122 2662.17,-122 2662.17,-86 2757.83,-86 2757.83,-122"/>
<text text-anchor="middle" x="2710" y="-99.8" font-family="Times,serif" font-size="14.00">FormsModule</text>
</g>
<!-- FormsModule&#45;&gt;AppModule -->
<g id="edge16" class="edge">
<title>FormsModule&#45;&gt;AppModule</title>
<path fill="none" stroke="black" d="M2710,-122.12C2710,-136.78 2710,-155 2710,-155 2710,-155 2428.84,-155 2428.84,-155"/>
<polygon fill="black" stroke="black" points="2428.84,-151.5 2418.84,-155 2428.84,-158.5 2428.84,-151.5"/>
</g>
<!-- HelpDeskModule -->
<g id="node17" class="node">
<title>HelpDeskModule</title>
<polygon fill="#8dd3c7" stroke="black" points="2644.53,-122 2641.53,-126 2620.53,-126 2617.53,-122 2529.47,-122 2529.47,-86 2644.53,-86 2644.53,-122"/>
<text text-anchor="middle" x="2587" y="-99.8" font-family="Times,serif" font-size="14.00">HelpDeskModule</text>
</g>
<!-- HelpDeskModule&#45;&gt;AppModule -->
<g id="edge17" class="edge">
<title>HelpDeskModule&#45;&gt;AppModule</title>
<path fill="none" stroke="black" d="M2587,-122.25C2587,-136.18 2587,-153 2587,-153 2587,-153 2428.74,-153 2428.74,-153"/>
<polygon fill="black" stroke="black" points="2428.74,-149.5 2418.74,-153 2428.74,-156.5 2428.74,-149.5"/>
</g>
<!-- IntegrationsModule -->
<g id="node18" class="node">
<title>IntegrationsModule</title>
<polygon fill="#8dd3c7" stroke="black" points="2511.42,-122 2508.42,-126 2487.42,-126 2484.42,-122 2384.58,-122 2384.58,-86 2511.42,-86 2511.42,-122"/>
<text text-anchor="middle" x="2448" y="-99.8" font-family="Times,serif" font-size="14.00">IntegrationsModule</text>
</g>
<!-- IntegrationsModule&#45;&gt;AppModule -->
<g id="edge18" class="edge">
<title>IntegrationsModule&#45;&gt;AppModule</title>
<path fill="none" stroke="black" d="M2401.81,-122.11C2401.81,-122.11 2401.81,-140.99 2401.81,-140.99"/>
<polygon fill="black" stroke="black" points="2398.31,-140.99 2401.81,-150.99 2405.31,-140.99 2398.31,-140.99"/>
</g>
<!-- InvitationsModule -->
<g id="node19" class="node">
<title>InvitationsModule</title>
<polygon fill="#8dd3c7" stroke="black" points="2366.93,-122 2363.93,-126 2342.93,-126 2339.93,-122 2247.07,-122 2247.07,-86 2366.93,-86 2366.93,-122"/>
<text text-anchor="middle" x="2307" y="-99.8" font-family="Times,serif" font-size="14.00">InvitationsModule</text>
</g>
<!-- InvitationsModule&#45;&gt;AppModule -->
<g id="edge19" class="edge">
<title>InvitationsModule&#45;&gt;AppModule</title>
<path fill="none" stroke="black" d="M2350.94,-122.11C2350.94,-122.11 2350.94,-140.99 2350.94,-140.99"/>
<polygon fill="black" stroke="black" points="2347.44,-140.99 2350.94,-150.99 2354.44,-140.99 2347.44,-140.99"/>
</g>
<!-- LoggerModule -->
<g id="node20" class="node">
<title>LoggerModule</title>
<polygon fill="#8dd3c7" stroke="black" points="2228.98,-122 2225.98,-126 2204.98,-126 2201.98,-122 2129.02,-122 2129.02,-86 2228.98,-86 2228.98,-122"/>
<text text-anchor="middle" x="2179" y="-99.8" font-family="Times,serif" font-size="14.00">LoggerModule</text>
</g>
<!-- LoggerModule&#45;&gt;AppModule -->
<g id="edge20" class="edge">
<title>LoggerModule&#45;&gt;AppModule</title>
<path fill="none" stroke="black" d="M2179,-122.25C2179,-136.18 2179,-153 2179,-153 2179,-153 2325.01,-153 2325.01,-153"/>
<polygon fill="black" stroke="black" points="2325.01,-156.5 2335.01,-153 2325.01,-149.5 2325.01,-156.5"/>
</g>
<!-- NotificationsModule -->
<g id="node21" class="node">
<title>NotificationsModule</title>
<polygon fill="#8dd3c7" stroke="black" points="2111.14,-122 2108.14,-126 2087.14,-126 2084.14,-122 1978.86,-122 1978.86,-86 2111.14,-86 2111.14,-122"/>
<text text-anchor="middle" x="2045" y="-99.8" font-family="Times,serif" font-size="14.00">NotificationsModule</text>
</g>
<!-- NotificationsModule&#45;&gt;AppModule -->
<g id="edge21" class="edge">
<title>NotificationsModule&#45;&gt;AppModule</title>
<path fill="none" stroke="black" d="M2045,-122.12C2045,-136.78 2045,-155 2045,-155 2045,-155 2325.29,-155 2325.29,-155"/>
<polygon fill="black" stroke="black" points="2325.29,-158.5 2335.29,-155 2325.29,-151.5 2325.29,-158.5"/>
</g>
<!-- PhasesModule -->
<g id="node22" class="node">
<title>PhasesModule</title>
<polygon fill="#8dd3c7" stroke="black" points="1960.65,-122 1957.65,-126 1936.65,-126 1933.65,-122 1863.35,-122 1863.35,-86 1960.65,-86 1960.65,-122"/>
<text text-anchor="middle" x="1912" y="-99.8" font-family="Times,serif" font-size="14.00">PhasesModule</text>
</g>
<!-- PhasesModule&#45;&gt;AppModule -->
<g id="edge22" class="edge">
<title>PhasesModule&#45;&gt;AppModule</title>
<path fill="none" stroke="black" d="M1912,-122.24C1912,-137.57 1912,-157 1912,-157 1912,-157 2325.33,-157 2325.33,-157"/>
<polygon fill="black" stroke="black" points="2325.33,-160.5 2335.33,-157 2325.33,-153.5 2325.33,-160.5"/>
</g>
<!-- ResourcesModule -->
<g id="node23" class="node">
<title>ResourcesModule</title>
<polygon fill="#8dd3c7" stroke="black" points="1845.58,-122 1842.58,-126 1821.58,-126 1818.58,-122 1728.42,-122 1728.42,-86 1845.58,-86 1845.58,-122"/>
<text text-anchor="middle" x="1787" y="-99.8" font-family="Times,serif" font-size="14.00">ResourcesModule</text>
</g>
<!-- ResourcesModule&#45;&gt;AppModule -->
<g id="edge23" class="edge">
<title>ResourcesModule&#45;&gt;AppModule</title>
<path fill="none" stroke="black" d="M1787,-122.01C1787,-138.05 1787,-159 1787,-159 1787,-159 2325.04,-159 2325.04,-159"/>
<polygon fill="black" stroke="black" points="2325.04,-162.5 2335.04,-159 2325.04,-155.5 2325.04,-162.5"/>
</g>
<!-- ResourcesRepliesModule -->
<g id="node24" class="node">
<title>ResourcesRepliesModule</title>
<polygon fill="#8dd3c7" stroke="black" points="1710.57,-122 1707.57,-126 1686.57,-126 1683.57,-122 1551.43,-122 1551.43,-86 1710.57,-86 1710.57,-122"/>
<text text-anchor="middle" x="1631" y="-99.8" font-family="Times,serif" font-size="14.00">ResourcesRepliesModule</text>
</g>
<!-- ResourcesRepliesModule&#45;&gt;AppModule -->
<g id="edge24" class="edge">
<title>ResourcesRepliesModule&#45;&gt;AppModule</title>
<path fill="none" stroke="black" d="M1631,-122.04C1631,-138.73 1631,-161 1631,-161 1631,-161 2325.29,-161 2325.29,-161"/>
<polygon fill="black" stroke="black" points="2325.29,-164.5 2335.29,-161 2325.29,-157.5 2325.29,-164.5"/>
</g>
<!-- RolModule -->
<g id="node25" class="node">
<title>RolModule</title>
<polygon fill="#8dd3c7" stroke="black" points="1533.78,-122 1530.78,-126 1509.78,-126 1506.78,-122 1454.22,-122 1454.22,-86 1533.78,-86 1533.78,-122"/>
<text text-anchor="middle" x="1494" y="-99.8" font-family="Times,serif" font-size="14.00">RolModule</text>
</g>
<!-- RolModule&#45;&gt;AppModule -->
<g id="edge25" class="edge">
<title>RolModule&#45;&gt;AppModule</title>
<path fill="none" stroke="black" d="M1494,-122.02C1494,-139.37 1494,-163 1494,-163 1494,-163 2325.3,-163 2325.3,-163"/>
<polygon fill="black" stroke="black" points="2325.3,-166.5 2335.3,-163 2325.3,-159.5 2325.3,-166.5"/>
</g>
<!-- SitesModule -->
<g id="node26" class="node">
<title>SitesModule</title>
<polygon fill="#8dd3c7" stroke="black" points="1436.27,-122 1433.27,-126 1412.27,-126 1409.27,-122 1349.73,-122 1349.73,-86 1436.27,-86 1436.27,-122"/>
<text text-anchor="middle" x="1393" y="-99.8" font-family="Times,serif" font-size="14.00">SitesModule</text>
</g>
<!-- SitesModule&#45;&gt;AppModule -->
<g id="edge26" class="edge">
<title>SitesModule&#45;&gt;AppModule</title>
<path fill="none" stroke="black" d="M1393,-122.3C1393,-140.27 1393,-165 1393,-165 1393,-165 2325.03,-165 2325.03,-165"/>
<polygon fill="black" stroke="black" points="2325.03,-168.5 2335.03,-165 2325.03,-161.5 2325.03,-168.5"/>
</g>
<!-- StagesModule -->
<g id="node27" class="node">
<title>StagesModule</title>
<polygon fill="#8dd3c7" stroke="black" points="1332.1,-122 1329.1,-126 1308.1,-126 1305.1,-122 1235.9,-122 1235.9,-86 1332.1,-86 1332.1,-122"/>
<text text-anchor="middle" x="1284" y="-99.8" font-family="Times,serif" font-size="14.00">StagesModule</text>
</g>
<!-- StagesModule&#45;&gt;AppModule -->
<g id="edge27" class="edge">
<title>StagesModule&#45;&gt;AppModule</title>
<path fill="none" stroke="black" d="M1284,-122.22C1284,-140.83 1284,-167 1284,-167 1284,-167 2325.16,-167 2325.16,-167"/>
<polygon fill="black" stroke="black" points="2325.16,-170.5 2335.16,-167 2325.16,-163.5 2325.16,-170.5"/>
</g>
<!-- StartupModule -->
<g id="node28" class="node">
<title>StartupModule</title>
<polygon fill="#8dd3c7" stroke="black" points="1217.99,-122 1214.99,-126 1193.99,-126 1190.99,-122 1118.01,-122 1118.01,-86 1217.99,-86 1217.99,-122"/>
<text text-anchor="middle" x="1168" y="-99.8" font-family="Times,serif" font-size="14.00">StartupModule</text>
</g>
<!-- StartupModule&#45;&gt;AppModule -->
<g id="edge28" class="edge">
<title>StartupModule&#45;&gt;AppModule</title>
<path fill="none" stroke="black" d="M1168,-122.11C1168,-141.34 1168,-169 1168,-169 1168,-169 2325.03,-169 2325.03,-169"/>
<polygon fill="black" stroke="black" points="2325.03,-172.5 2335.03,-169 2325.03,-165.5 2325.03,-172.5"/>
</g>
<!-- StorageModule -->
<g id="node29" class="node">
<title>StorageModule</title>
<polygon fill="#8dd3c7" stroke="black" points="1100.31,-122 1097.31,-126 1076.31,-126 1073.31,-122 997.69,-122 997.69,-86 1100.31,-86 1100.31,-122"/>
<text text-anchor="middle" x="1049" y="-99.8" font-family="Times,serif" font-size="14.00">StorageModule</text>
</g>
<!-- StorageModule&#45;&gt;AppModule -->
<g id="edge29" class="edge">
<title>StorageModule&#45;&gt;AppModule</title>
<path fill="none" stroke="black" d="M1049,-122.31C1049,-142.15 1049,-171 1049,-171 1049,-171 2325.06,-171 2325.06,-171"/>
<polygon fill="black" stroke="black" points="2325.06,-174.5 2335.06,-171 2325.06,-167.5 2325.06,-174.5"/>
</g>
<!-- TableModule -->
<g id="node30" class="node">
<title>TableModule</title>
<polygon fill="#8dd3c7" stroke="black" points="979.92,-122 976.92,-126 955.92,-126 952.92,-122 888.08,-122 888.08,-86 979.92,-86 979.92,-122"/>
<text text-anchor="middle" x="934" y="-99.8" font-family="Times,serif" font-size="14.00">TableModule</text>
</g>
<!-- TableModule&#45;&gt;AppModule -->
<g id="edge30" class="edge">
<title>TableModule&#45;&gt;AppModule</title>
<path fill="none" stroke="black" d="M934,-122.13C934,-142.57 934,-173 934,-173 934,-173 2324.98,-173 2324.98,-173"/>
<polygon fill="black" stroke="black" points="2324.98,-176.5 2334.98,-173 2324.98,-169.5 2324.98,-176.5"/>
</g>
<!-- TermsOfUseModule -->
<g id="node31" class="node">
<title>TermsOfUseModule</title>
<polygon fill="#8dd3c7" stroke="black" points="869.85,-122 866.85,-126 845.85,-126 842.85,-122 738.15,-122 738.15,-86 869.85,-86 869.85,-122"/>
<text text-anchor="middle" x="804" y="-99.8" font-family="Times,serif" font-size="14.00">TermsOfUseModule</text>
</g>
<!-- TermsOfUseModule&#45;&gt;AppModule -->
<g id="edge31" class="edge">
<title>TermsOfUseModule&#45;&gt;AppModule</title>
<path fill="none" stroke="black" d="M804,-122.28C804,-143.32 804,-175 804,-175 804,-175 2325.33,-175 2325.33,-175"/>
<polygon fill="black" stroke="black" points="2325.33,-178.5 2335.33,-175 2325.33,-171.5 2325.33,-178.5"/>
</g>
<!-- TypesEventsModule -->
<g id="node32" class="node">
<title>TypesEventsModule</title>
<polygon fill="#8dd3c7" stroke="black" points="719.86,-122 716.86,-126 695.86,-126 692.86,-122 588.14,-122 588.14,-86 719.86,-86 719.86,-122"/>
<text text-anchor="middle" x="654" y="-99.8" font-family="Times,serif" font-size="14.00">TypesEventsModule</text>
</g>
<!-- TypesEventsModule&#45;&gt;AppModule -->
<g id="edge32" class="edge">
<title>TypesEventsModule&#45;&gt;AppModule</title>
<path fill="none" stroke="black" d="M654,-122.04C654,-143.66 654,-177 654,-177 654,-177 2325.26,-177 2325.26,-177"/>
<polygon fill="black" stroke="black" points="2325.26,-180.5 2335.26,-177 2325.26,-173.5 2325.26,-180.5"/>
</g>
<!-- TypesNotificationsModule -->
<g id="node33" class="node">
<title>TypesNotificationsModule</title>
<polygon fill="#8dd3c7" stroke="black" points="570.36,-122 567.36,-126 546.36,-126 543.36,-122 403.64,-122 403.64,-86 570.36,-86 570.36,-122"/>
<text text-anchor="middle" x="487" y="-99.8" font-family="Times,serif" font-size="14.00">TypesNotificationsModule</text>
</g>
<!-- TypesNotificationsModule&#45;&gt;AppModule -->
<g id="edge33" class="edge">
<title>TypesNotificationsModule&#45;&gt;AppModule</title>
<path fill="none" stroke="black" d="M487,-122.16C487,-144.35 487,-179 487,-179 487,-179 2325.32,-179 2325.32,-179"/>
<polygon fill="black" stroke="black" points="2325.32,-182.5 2335.32,-179 2325.32,-175.5 2325.32,-182.5"/>
</g>
<!-- UserConfigModule -->
<g id="node34" class="node">
<title>UserConfigModule</title>
<polygon fill="#8dd3c7" stroke="black" points="385.36,-122 382.36,-126 361.36,-126 358.36,-122 260.64,-122 260.64,-86 385.36,-86 385.36,-122"/>
<text text-anchor="middle" x="323" y="-99.8" font-family="Times,serif" font-size="14.00">UserConfigModule</text>
</g>
<!-- UserConfigModule&#45;&gt;AppModule -->
<g id="edge34" class="edge">
<title>UserConfigModule&#45;&gt;AppModule</title>
<path fill="none" stroke="black" d="M323,-122.09C323,-145.13 323,-182 323,-182 323,-182 2325.04,-182 2325.04,-182"/>
<polygon fill="black" stroke="black" points="2325.04,-185.5 2335.04,-182 2325.04,-178.5 2325.04,-185.5"/>
</g>
<!-- UserLogModule -->
<g id="node35" class="node">
<title>UserLogModule</title>
<polygon fill="#8dd3c7" stroke="black" points="242.03,-122 239.03,-126 218.03,-126 215.03,-122 133.97,-122 133.97,-86 242.03,-86 242.03,-122"/>
<text text-anchor="middle" x="188" y="-99.8" font-family="Times,serif" font-size="14.00">UserLogModule</text>
</g>
<!-- UserLogModule&#45;&gt;AppModule -->
<g id="edge35" class="edge">
<title>UserLogModule&#45;&gt;AppModule</title>
<path fill="none" stroke="black" d="M188,-122.32C188,-145.66 188,-183 188,-183 188,-183 2325.23,-183 2325.23,-183"/>
<polygon fill="black" stroke="black" points="2325.23,-186.5 2335.23,-183 2325.23,-179.5 2325.23,-186.5"/>
</g>
<!-- UsersModule -->
<g id="node36" class="node">
<title>UsersModule</title>
<polygon fill="#8dd3c7" stroke="black" points="115.92,-122 112.92,-126 91.92,-126 88.92,-122 24.08,-122 24.08,-86 115.92,-86 115.92,-122"/>
<text text-anchor="middle" x="70" y="-99.8" font-family="Times,serif" font-size="14.00">UsersModule</text>
</g>
<!-- UsersModule&#45;&gt;AppModule -->
<g id="edge36" class="edge">
<title>UsersModule&#45;&gt;AppModule</title>
<path fill="none" stroke="black" d="M70,-122.38C70,-146.28 70,-185 70,-185 70,-185 2324.99,-185 2324.99,-185"/>
<polygon fill="black" stroke="black" points="2324.99,-188.5 2334.99,-185 2324.99,-181.5 2324.99,-188.5"/>
</g>
</g>
</svg>
