<?xml version="1.0" encoding="UTF-8" standalone="no"?>
<!DOCTYPE svg PUBLIC "-//W3C//DTD SVG 1.1//EN"
 "http://www.w3.org/Graphics/SVG/1.1/DTD/svg11.dtd">
<!-- Generated by graphviz version 2.47.0 (20210316.0004)
 -->
<!-- Title: dependencies Pages: 1 -->
<svg width="518pt" height="284pt"
 viewBox="0.00 0.00 518.00 284.00" xmlns="http://www.w3.org/2000/svg" xmlns:xlink="http://www.w3.org/1999/xlink">
<g id="graph0" class="graph" transform="scale(1 1) rotate(0) translate(4 280)">
<title>dependencies</title>
<polygon fill="white" stroke="transparent" points="-4,4 -4,-280 514,-280 514,4 -4,4"/>
<text text-anchor="start" x="234.01" y="-42.4" font-family="Times-12" font-weight="bold" font-size="14.00">Legend</text>
<polygon fill="#ffffb3" stroke="transparent" points="21,-10 21,-30 41,-30 41,-10 21,-10"/>
<text text-anchor="start" x="44.63" y="-15.4" font-family="Times-12" font-size="14.00"> &#160;Declarations</text>
<polygon fill="#8dd3c7" stroke="transparent" points="134,-10 134,-30 154,-30 154,-10 134,-10"/>
<text text-anchor="start" x="157.73" y="-15.4" font-family="Times-12" font-size="14.00"> &#160;Module</text>
<polygon fill="#80b1d3" stroke="transparent" points="220,-10 220,-30 240,-30 240,-10 220,-10"/>
<text text-anchor="start" x="243.78" y="-15.4" font-family="Times-12" font-size="14.00"> &#160;Bootstrap</text>
<polygon fill="#fdb462" stroke="transparent" points="317,-10 317,-30 337,-30 337,-10 317,-10"/>
<text text-anchor="start" x="340.67" y="-15.4" font-family="Times-12" font-size="14.00"> &#160;Providers</text>
<polygon fill="#fb8072" stroke="transparent" points="413,-10 413,-30 433,-30 433,-10 413,-10"/>
<text text-anchor="start" x="436.73" y="-15.4" font-family="Times-12" font-size="14.00"> &#160;Exports</text>
<g id="clust1" class="cluster">
<title>cluster_ParticipationEventsModule</title>
<polygon fill="none" stroke="black" stroke-dasharray="1,5" points="8,-70 8,-268 502,-268 502,-70 8,-70"/>
</g>
<g id="clust3" class="cluster">
<title>cluster_ParticipationEventsModule_imports</title>
<polygon fill="none" stroke="black" points="272,-78 272,-130 494,-130 494,-78 272,-78"/>
</g>
<g id="clust6" class="cluster">
<title>cluster_ParticipationEventsModule_providers</title>
<polygon fill="none" stroke="black" points="16,-78 16,-130 264,-130 264,-78 16,-78"/>
</g>
<g id="clust4" class="cluster">
<title>cluster_ParticipationEventsModule_exports</title>
<polygon fill="none" stroke="black" points="236,-208 236,-260 424,-260 424,-208 236,-208"/>
</g>
<!-- AuthModule -->
<g id="node1" class="node">
<title>AuthModule</title>
<polygon fill="#8dd3c7" stroke="black" points="485.55,-122 482.55,-126 461.55,-126 458.55,-122 398.45,-122 398.45,-86 485.55,-86 485.55,-122"/>
<text text-anchor="middle" x="442" y="-99.8" font-family="Times,serif" font-size="14.00">AuthModule</text>
</g>
<!-- ParticipationEventsModule -->
<g id="node3" class="node">
<title>ParticipationEventsModule</title>
<polygon fill="#8dd3c7" stroke="black" points="414.69,-187 411.69,-191 390.69,-191 387.69,-187 245.31,-187 245.31,-151 414.69,-151 414.69,-187"/>
<text text-anchor="middle" x="330" y="-164.8" font-family="Times,serif" font-size="14.00">ParticipationEventsModule</text>
</g>
<!-- AuthModule&#45;&gt;ParticipationEventsModule -->
<g id="edge1" class="edge">
<title>AuthModule&#45;&gt;ParticipationEventsModule</title>
<path fill="none" stroke="black" d="M406.41,-122.11C406.41,-122.11 406.41,-140.99 406.41,-140.99"/>
<polygon fill="black" stroke="black" points="402.91,-140.99 406.41,-150.99 409.91,-140.99 402.91,-140.99"/>
</g>
<!-- LoggerModule -->
<g id="node2" class="node">
<title>LoggerModule</title>
<polygon fill="#8dd3c7" stroke="black" points="379.98,-122 376.98,-126 355.98,-126 352.98,-122 280.02,-122 280.02,-86 379.98,-86 379.98,-122"/>
<text text-anchor="middle" x="330" y="-99.8" font-family="Times,serif" font-size="14.00">LoggerModule</text>
</g>
<!-- LoggerModule&#45;&gt;ParticipationEventsModule -->
<g id="edge2" class="edge">
<title>LoggerModule&#45;&gt;ParticipationEventsModule</title>
<path fill="none" stroke="black" d="M330,-122.11C330,-122.11 330,-140.99 330,-140.99"/>
<polygon fill="black" stroke="black" points="326.5,-140.99 330,-150.99 333.5,-140.99 326.5,-140.99"/>
</g>
<!-- ParticipationEventsService  -->
<g id="node4" class="node">
<title>ParticipationEventsService </title>
<polygon fill="#fb8072" stroke="black" points="415.62,-252 244.38,-252 244.38,-216 415.62,-216 415.62,-252"/>
<text text-anchor="middle" x="330" y="-229.8" font-family="Times,serif" font-size="14.00">ParticipationEventsService </text>
</g>
<!-- ParticipationEventsModule&#45;&gt;ParticipationEventsService  -->
<g id="edge3" class="edge">
<title>ParticipationEventsModule&#45;&gt;ParticipationEventsService </title>
<path fill="none" stroke="black" stroke-dasharray="5,2" d="M330,-187.11C330,-187.11 330,-205.99 330,-205.99"/>
<polygon fill="black" stroke="black" points="326.5,-205.99 330,-215.99 333.5,-205.99 326.5,-205.99"/>
</g>
<!-- ParticipationEventsService -->
<g id="node5" class="node">
<title>ParticipationEventsService</title>
<ellipse fill="#fdb462" stroke="black" cx="140" cy="-104" rx="115.74" ry="18"/>
<text text-anchor="middle" x="140" y="-99.8" font-family="Times,serif" font-size="14.00">ParticipationEventsService</text>
</g>
<!-- ParticipationEventsService&#45;&gt;ParticipationEventsModule -->
<g id="edge4" class="edge">
<title>ParticipationEventsService&#45;&gt;ParticipationEventsModule</title>
<path fill="none" stroke="black" d="M250.51,-109.54C250.51,-109.54 250.51,-140.75 250.51,-140.75"/>
<polygon fill="black" stroke="black" points="247.01,-140.75 250.51,-150.75 254.01,-140.75 247.01,-140.75"/>
</g>
</g>
</svg>
