<?xml version="1.0" encoding="UTF-8" standalone="no"?>
<!DOCTYPE svg PUBLIC "-//W3C//DTD SVG 1.1//EN"
 "http://www.w3.org/Graphics/SVG/1.1/DTD/svg11.dtd">
<!-- Generated by graphviz version 2.47.0 (20210316.0004)
 -->
<!-- Title: dependencies Pages: 1 -->
<svg width="504pt" height="284pt"
 viewBox="0.00 0.00 504.00 284.00" xmlns="http://www.w3.org/2000/svg" xmlns:xlink="http://www.w3.org/1999/xlink">
<g id="graph0" class="graph" transform="scale(1 1) rotate(0) translate(4 280)">
<title>dependencies</title>
<polygon fill="white" stroke="transparent" points="-4,4 -4,-280 500,-280 500,4 -4,4"/>
<text text-anchor="start" x="227.01" y="-42.4" font-family="Times-12" font-weight="bold" font-size="14.00">Legend</text>
<polygon fill="#ffffb3" stroke="transparent" points="14,-10 14,-30 34,-30 34,-10 14,-10"/>
<text text-anchor="start" x="37.63" y="-15.4" font-family="Times-12" font-size="14.00"> &#160;Declarations</text>
<polygon fill="#8dd3c7" stroke="transparent" points="127,-10 127,-30 147,-30 147,-10 127,-10"/>
<text text-anchor="start" x="150.73" y="-15.4" font-family="Times-12" font-size="14.00"> &#160;Module</text>
<polygon fill="#80b1d3" stroke="transparent" points="213,-10 213,-30 233,-30 233,-10 213,-10"/>
<text text-anchor="start" x="236.78" y="-15.4" font-family="Times-12" font-size="14.00"> &#160;Bootstrap</text>
<polygon fill="#fdb462" stroke="transparent" points="310,-10 310,-30 330,-30 330,-10 310,-10"/>
<text text-anchor="start" x="333.67" y="-15.4" font-family="Times-12" font-size="14.00"> &#160;Providers</text>
<polygon fill="#fb8072" stroke="transparent" points="406,-10 406,-30 426,-30 426,-10 406,-10"/>
<text text-anchor="start" x="429.73" y="-15.4" font-family="Times-12" font-size="14.00"> &#160;Exports</text>
<g id="clust1" class="cluster">
<title>cluster_ActivitiesConfigModule</title>
<polygon fill="none" stroke="black" stroke-dasharray="1,5" points="13,-70 13,-268 483,-268 483,-70 13,-70"/>
</g>
<g id="clust3" class="cluster">
<title>cluster_ActivitiesConfigModule_imports</title>
<polygon fill="none" stroke="black" points="253,-78 253,-130 475,-130 475,-78 253,-78"/>
</g>
<g id="clust4" class="cluster">
<title>cluster_ActivitiesConfigModule_exports</title>
<polygon fill="none" stroke="black" points="226,-208 226,-260 396,-260 396,-208 226,-208"/>
</g>
<g id="clust6" class="cluster">
<title>cluster_ActivitiesConfigModule_providers</title>
<polygon fill="none" stroke="black" points="21,-78 21,-130 245,-130 245,-78 21,-78"/>
</g>
<!-- AuthModule -->
<g id="node1" class="node">
<title>AuthModule</title>
<polygon fill="#8dd3c7" stroke="black" points="466.55,-122 463.55,-126 442.55,-126 439.55,-122 379.45,-122 379.45,-86 466.55,-86 466.55,-122"/>
<text text-anchor="middle" x="423" y="-99.8" font-family="Times,serif" font-size="14.00">AuthModule</text>
</g>
<!-- ActivitiesConfigModule -->
<g id="node3" class="node">
<title>ActivitiesConfigModule</title>
<polygon fill="#8dd3c7" stroke="black" points="387.37,-187 384.37,-191 363.37,-191 360.37,-187 234.63,-187 234.63,-151 387.37,-151 387.37,-187"/>
<text text-anchor="middle" x="311" y="-164.8" font-family="Times,serif" font-size="14.00">ActivitiesConfigModule</text>
</g>
<!-- AuthModule&#45;&gt;ActivitiesConfigModule -->
<g id="edge1" class="edge">
<title>AuthModule&#45;&gt;ActivitiesConfigModule</title>
<path fill="none" stroke="black" d="M383.33,-122.11C383.33,-122.11 383.33,-140.99 383.33,-140.99"/>
<polygon fill="black" stroke="black" points="379.83,-140.99 383.33,-150.99 386.83,-140.99 379.83,-140.99"/>
</g>
<!-- LoggerModule -->
<g id="node2" class="node">
<title>LoggerModule</title>
<polygon fill="#8dd3c7" stroke="black" points="360.98,-122 357.98,-126 336.98,-126 333.98,-122 261.02,-122 261.02,-86 360.98,-86 360.98,-122"/>
<text text-anchor="middle" x="311" y="-99.8" font-family="Times,serif" font-size="14.00">LoggerModule</text>
</g>
<!-- LoggerModule&#45;&gt;ActivitiesConfigModule -->
<g id="edge2" class="edge">
<title>LoggerModule&#45;&gt;ActivitiesConfigModule</title>
<path fill="none" stroke="black" d="M311,-122.11C311,-122.11 311,-140.99 311,-140.99"/>
<polygon fill="black" stroke="black" points="307.5,-140.99 311,-150.99 314.5,-140.99 307.5,-140.99"/>
</g>
<!-- ActivitiesConfigService  -->
<g id="node4" class="node">
<title>ActivitiesConfigService </title>
<polygon fill="#fb8072" stroke="black" points="388.3,-252 233.7,-252 233.7,-216 388.3,-216 388.3,-252"/>
<text text-anchor="middle" x="311" y="-229.8" font-family="Times,serif" font-size="14.00">ActivitiesConfigService </text>
</g>
<!-- ActivitiesConfigModule&#45;&gt;ActivitiesConfigService  -->
<g id="edge3" class="edge">
<title>ActivitiesConfigModule&#45;&gt;ActivitiesConfigService </title>
<path fill="none" stroke="black" stroke-dasharray="5,2" d="M311,-187.11C311,-187.11 311,-205.99 311,-205.99"/>
<polygon fill="black" stroke="black" points="307.5,-205.99 311,-215.99 314.5,-205.99 307.5,-205.99"/>
</g>
<!-- ActivitiesConfigService -->
<g id="node5" class="node">
<title>ActivitiesConfigService</title>
<ellipse fill="#fdb462" stroke="black" cx="133" cy="-104" rx="104.23" ry="18"/>
<text text-anchor="middle" x="133" y="-99.8" font-family="Times,serif" font-size="14.00">ActivitiesConfigService</text>
</g>
<!-- ActivitiesConfigService&#45;&gt;ActivitiesConfigModule -->
<g id="edge4" class="edge">
<title>ActivitiesConfigService&#45;&gt;ActivitiesConfigModule</title>
<path fill="none" stroke="black" d="M237.62,-104C244.75,-104 249.19,-104 249.19,-104 249.19,-104 249.19,-140.89 249.19,-140.89"/>
<polygon fill="black" stroke="black" points="245.69,-140.89 249.19,-150.89 252.69,-140.89 245.69,-140.89"/>
</g>
</g>
</svg>
