<?xml version="1.0" encoding="UTF-8" standalone="no"?>
<!DOCTYPE svg PUBLIC "-//W3C//DTD SVG 1.1//EN"
 "http://www.w3.org/Graphics/SVG/1.1/DTD/svg11.dtd">
<!-- Generated by graphviz version 2.47.0 (20210316.0004)
 -->
<!-- Title: dependencies Pages: 1 -->
<svg width="504pt" height="284pt"
 viewBox="0.00 0.00 504.00 284.00" xmlns="http://www.w3.org/2000/svg" xmlns:xlink="http://www.w3.org/1999/xlink">
<g id="graph0" class="graph" transform="scale(1 1) rotate(0) translate(4 280)">
<title>dependencies</title>
<polygon fill="white" stroke="transparent" points="-4,4 -4,-280 500,-280 500,4 -4,4"/>
<text text-anchor="start" x="227.01" y="-42.4" font-family="Times-12" font-weight="bold" font-size="14.00">Legend</text>
<polygon fill="#ffffb3" stroke="transparent" points="14,-10 14,-30 34,-30 34,-10 14,-10"/>
<text text-anchor="start" x="37.63" y="-15.4" font-family="Times-12" font-size="14.00"> &#160;Declarations</text>
<polygon fill="#8dd3c7" stroke="transparent" points="127,-10 127,-30 147,-30 147,-10 127,-10"/>
<text text-anchor="start" x="150.73" y="-15.4" font-family="Times-12" font-size="14.00"> &#160;Module</text>
<polygon fill="#80b1d3" stroke="transparent" points="213,-10 213,-30 233,-30 233,-10 213,-10"/>
<text text-anchor="start" x="236.78" y="-15.4" font-family="Times-12" font-size="14.00"> &#160;Bootstrap</text>
<polygon fill="#fdb462" stroke="transparent" points="310,-10 310,-30 330,-30 330,-10 310,-10"/>
<text text-anchor="start" x="333.67" y="-15.4" font-family="Times-12" font-size="14.00"> &#160;Providers</text>
<polygon fill="#fb8072" stroke="transparent" points="406,-10 406,-30 426,-30 426,-10 406,-10"/>
<text text-anchor="start" x="429.73" y="-15.4" font-family="Times-12" font-size="14.00"> &#160;Exports</text>
<g id="clust1" class="cluster">
<title>cluster_ContentModule</title>
<polygon fill="none" stroke="black" stroke-dasharray="1,5" points="46,-70 46,-268 450,-268 450,-70 46,-70"/>
</g>
<g id="clust4" class="cluster">
<title>cluster_ContentModule_exports</title>
<polygon fill="none" stroke="black" points="217,-208 217,-260 339,-260 339,-208 217,-208"/>
</g>
<g id="clust3" class="cluster">
<title>cluster_ContentModule_imports</title>
<polygon fill="none" stroke="black" points="220,-78 220,-130 442,-130 442,-78 220,-78"/>
</g>
<g id="clust6" class="cluster">
<title>cluster_ContentModule_providers</title>
<polygon fill="none" stroke="black" points="54,-78 54,-130 212,-130 212,-78 54,-78"/>
</g>
<!-- AuthModule -->
<g id="node1" class="node">
<title>AuthModule</title>
<polygon fill="#8dd3c7" stroke="black" points="433.55,-122 430.55,-126 409.55,-126 406.55,-122 346.45,-122 346.45,-86 433.55,-86 433.55,-122"/>
<text text-anchor="middle" x="390" y="-99.8" font-family="Times,serif" font-size="14.00">AuthModule</text>
</g>
<!-- ContentModule -->
<g id="node3" class="node">
<title>ContentModule</title>
<polygon fill="#8dd3c7" stroke="black" points="329.88,-187 326.88,-191 305.88,-191 302.88,-187 226.12,-187 226.12,-151 329.88,-151 329.88,-187"/>
<text text-anchor="middle" x="278" y="-164.8" font-family="Times,serif" font-size="14.00">ContentModule</text>
</g>
<!-- AuthModule&#45;&gt;ContentModule -->
<g id="edge1" class="edge">
<title>AuthModule&#45;&gt;ContentModule</title>
<path fill="none" stroke="black" d="M390,-122.11C390,-141.34 390,-169 390,-169 390,-169 340.07,-169 340.07,-169"/>
<polygon fill="black" stroke="black" points="340.07,-165.5 330.07,-169 340.07,-172.5 340.07,-165.5"/>
</g>
<!-- LoggerModule -->
<g id="node2" class="node">
<title>LoggerModule</title>
<polygon fill="#8dd3c7" stroke="black" points="327.98,-122 324.98,-126 303.98,-126 300.98,-122 228.02,-122 228.02,-86 327.98,-86 327.98,-122"/>
<text text-anchor="middle" x="278" y="-99.8" font-family="Times,serif" font-size="14.00">LoggerModule</text>
</g>
<!-- LoggerModule&#45;&gt;ContentModule -->
<g id="edge2" class="edge">
<title>LoggerModule&#45;&gt;ContentModule</title>
<path fill="none" stroke="black" d="M278,-122.11C278,-122.11 278,-140.99 278,-140.99"/>
<polygon fill="black" stroke="black" points="274.5,-140.99 278,-150.99 281.5,-140.99 274.5,-140.99"/>
</g>
<!-- ContentService  -->
<g id="node4" class="node">
<title>ContentService </title>
<polygon fill="#fb8072" stroke="black" points="330.81,-252 225.19,-252 225.19,-216 330.81,-216 330.81,-252"/>
<text text-anchor="middle" x="278" y="-229.8" font-family="Times,serif" font-size="14.00">ContentService </text>
</g>
<!-- ContentModule&#45;&gt;ContentService  -->
<g id="edge3" class="edge">
<title>ContentModule&#45;&gt;ContentService </title>
<path fill="none" stroke="black" stroke-dasharray="5,2" d="M278,-187.11C278,-187.11 278,-205.99 278,-205.99"/>
<polygon fill="black" stroke="black" points="274.5,-205.99 278,-215.99 281.5,-205.99 274.5,-205.99"/>
</g>
<!-- ContentService -->
<g id="node5" class="node">
<title>ContentService</title>
<ellipse fill="#fdb462" stroke="black" cx="133" cy="-104" rx="70.64" ry="18"/>
<text text-anchor="middle" x="133" y="-99.8" font-family="Times,serif" font-size="14.00">ContentService</text>
</g>
<!-- ContentService&#45;&gt;ContentModule -->
<g id="edge4" class="edge">
<title>ContentService&#45;&gt;ContentModule</title>
<path fill="none" stroke="black" d="M133,-122.11C133,-141.34 133,-169 133,-169 133,-169 216.06,-169 216.06,-169"/>
<polygon fill="black" stroke="black" points="216.06,-172.5 226.06,-169 216.06,-165.5 216.06,-172.5"/>
</g>
</g>
</svg>
