<?xml version="1.0" encoding="UTF-8" standalone="no"?>
<!DOCTYPE svg PUBLIC "-//W3C//DTD SVG 1.1//EN"
 "http://www.w3.org/Graphics/SVG/1.1/DTD/svg11.dtd">
<!-- Generated by graphviz version 2.47.0 (20210316.0004)
 -->
<!-- Title: dependencies Pages: 1 -->
<svg width="1020pt" height="284pt"
 viewBox="0.00 0.00 1020.00 284.00" xmlns="http://www.w3.org/2000/svg" xmlns:xlink="http://www.w3.org/1999/xlink">
<g id="graph0" class="graph" transform="scale(1 1) rotate(0) translate(4 280)">
<title>dependencies</title>
<polygon fill="white" stroke="transparent" points="-4,4 -4,-280 1016,-280 1016,4 -4,4"/>
<text text-anchor="start" x="485.01" y="-42.4" font-family="Times-12" font-weight="bold" font-size="14.00">Legend</text>
<polygon fill="#ffffb3" stroke="transparent" points="272,-10 272,-30 292,-30 292,-10 272,-10"/>
<text text-anchor="start" x="295.63" y="-15.4" font-family="Times-12" font-size="14.00"> &#160;Declarations</text>
<polygon fill="#8dd3c7" stroke="transparent" points="385,-10 385,-30 405,-30 405,-10 385,-10"/>
<text text-anchor="start" x="408.73" y="-15.4" font-family="Times-12" font-size="14.00"> &#160;Module</text>
<polygon fill="#80b1d3" stroke="transparent" points="471,-10 471,-30 491,-30 491,-10 471,-10"/>
<text text-anchor="start" x="494.78" y="-15.4" font-family="Times-12" font-size="14.00"> &#160;Bootstrap</text>
<polygon fill="#fdb462" stroke="transparent" points="568,-10 568,-30 588,-30 588,-10 568,-10"/>
<text text-anchor="start" x="591.67" y="-15.4" font-family="Times-12" font-size="14.00"> &#160;Providers</text>
<polygon fill="#fb8072" stroke="transparent" points="664,-10 664,-30 684,-30 684,-10 664,-10"/>
<text text-anchor="start" x="687.73" y="-15.4" font-family="Times-12" font-size="14.00"> &#160;Exports</text>
<g id="clust1" class="cluster">
<title>cluster_FormsModule</title>
<polygon fill="none" stroke="black" stroke-dasharray="1,5" points="8,-70 8,-268 1004,-268 1004,-70 8,-70"/>
</g>
<g id="clust6" class="cluster">
<title>cluster_FormsModule_providers</title>
<polygon fill="none" stroke="black" points="442,-78 442,-130 996,-130 996,-78 442,-78"/>
</g>
<g id="clust3" class="cluster">
<title>cluster_FormsModule_imports</title>
<polygon fill="none" stroke="black" points="16,-78 16,-130 434,-130 434,-78 16,-78"/>
</g>
<g id="clust4" class="cluster">
<title>cluster_FormsModule_exports</title>
<polygon fill="none" stroke="black" points="391,-208 391,-260 505,-260 505,-208 391,-208"/>
</g>
<!-- AuthModule -->
<g id="node1" class="node">
<title>AuthModule</title>
<polygon fill="#8dd3c7" stroke="black" points="425.55,-122 422.55,-126 401.55,-126 398.55,-122 338.45,-122 338.45,-86 425.55,-86 425.55,-122"/>
<text text-anchor="middle" x="382" y="-99.8" font-family="Times,serif" font-size="14.00">AuthModule</text>
</g>
<!-- FormsModule -->
<g id="node4" class="node">
<title>FormsModule</title>
<polygon fill="#8dd3c7" stroke="black" points="495.83,-187 492.83,-191 471.83,-191 468.83,-187 400.17,-187 400.17,-151 495.83,-151 495.83,-187"/>
<text text-anchor="middle" x="448" y="-164.8" font-family="Times,serif" font-size="14.00">FormsModule</text>
</g>
<!-- AuthModule&#45;&gt;FormsModule -->
<g id="edge1" class="edge">
<title>AuthModule&#45;&gt;FormsModule</title>
<path fill="none" stroke="black" d="M413.05,-122.11C413.05,-122.11 413.05,-140.99 413.05,-140.99"/>
<polygon fill="black" stroke="black" points="409.55,-140.99 413.05,-150.99 416.55,-140.99 409.55,-140.99"/>
</g>
<!-- UsersModule -->
<g id="node2" class="node">
<title>UsersModule</title>
<polygon fill="#8dd3c7" stroke="black" points="320.92,-122 317.92,-126 296.92,-126 293.92,-122 229.08,-122 229.08,-86 320.92,-86 320.92,-122"/>
<text text-anchor="middle" x="275" y="-99.8" font-family="Times,serif" font-size="14.00">UsersModule</text>
</g>
<!-- UsersModule&#45;&gt;FormsModule -->
<g id="edge2" class="edge">
<title>UsersModule&#45;&gt;FormsModule</title>
<path fill="none" stroke="black" d="M275,-122.02C275,-139.37 275,-163 275,-163 275,-163 390.27,-163 390.27,-163"/>
<polygon fill="black" stroke="black" points="390.27,-166.5 400.27,-163 390.27,-159.5 390.27,-166.5"/>
</g>
<!-- formDocumentServiceImports -->
<g id="node3" class="node">
<title>formDocumentServiceImports</title>
<polygon fill="#8dd3c7" stroke="black" points="211.55,-122 208.55,-126 187.55,-126 184.55,-122 24.45,-122 24.45,-86 211.55,-86 211.55,-122"/>
<text text-anchor="middle" x="118" y="-99.8" font-family="Times,serif" font-size="14.00">formDocumentServiceImports</text>
</g>
<!-- formDocumentServiceImports&#45;&gt;FormsModule -->
<g id="edge3" class="edge">
<title>formDocumentServiceImports&#45;&gt;FormsModule</title>
<path fill="none" stroke="black" d="M118,-122.28C118,-143.32 118,-175 118,-175 118,-175 390.02,-175 390.02,-175"/>
<polygon fill="black" stroke="black" points="390.02,-178.5 400.02,-175 390.02,-171.5 390.02,-178.5"/>
</g>
<!-- FormsService  -->
<g id="node5" class="node">
<title>FormsService </title>
<polygon fill="#fb8072" stroke="black" points="496.76,-252 399.24,-252 399.24,-216 496.76,-216 496.76,-252"/>
<text text-anchor="middle" x="448" y="-229.8" font-family="Times,serif" font-size="14.00">FormsService </text>
</g>
<!-- FormsModule&#45;&gt;FormsService  -->
<g id="edge4" class="edge">
<title>FormsModule&#45;&gt;FormsService </title>
<path fill="none" stroke="black" stroke-dasharray="5,2" d="M448,-187.11C448,-187.11 448,-205.99 448,-205.99"/>
<polygon fill="black" stroke="black" points="444.5,-205.99 448,-215.99 451.5,-205.99 444.5,-205.99"/>
</g>
<!-- FormSubscriptionService -->
<g id="node6" class="node">
<title>FormSubscriptionService</title>
<ellipse fill="#fdb462" stroke="black" cx="878" cy="-104" rx="109.97" ry="18"/>
<text text-anchor="middle" x="878" y="-99.8" font-family="Times,serif" font-size="14.00">FormSubscriptionService</text>
</g>
<!-- FormSubscriptionService&#45;&gt;FormsModule -->
<g id="edge5" class="edge">
<title>FormSubscriptionService&#45;&gt;FormsModule</title>
<path fill="none" stroke="black" d="M878,-122.28C878,-143.32 878,-175 878,-175 878,-175 506.07,-175 506.07,-175"/>
<polygon fill="black" stroke="black" points="506.07,-171.5 496.07,-175 506.07,-178.5 506.07,-171.5"/>
</g>
<!-- FormTagService -->
<g id="node7" class="node">
<title>FormTagService</title>
<ellipse fill="#fdb462" stroke="black" cx="674" cy="-104" rx="75.86" ry="18"/>
<text text-anchor="middle" x="674" y="-99.8" font-family="Times,serif" font-size="14.00">FormTagService</text>
</g>
<!-- FormTagService&#45;&gt;FormsModule -->
<g id="edge6" class="edge">
<title>FormTagService&#45;&gt;FormsModule</title>
<path fill="none" stroke="black" d="M674,-122.02C674,-139.37 674,-163 674,-163 674,-163 505.93,-163 505.93,-163"/>
<polygon fill="black" stroke="black" points="505.93,-159.5 495.93,-163 505.93,-166.5 505.93,-159.5"/>
</g>
<!-- FormsService -->
<g id="node8" class="node">
<title>FormsService</title>
<ellipse fill="#fdb462" stroke="black" cx="515" cy="-104" rx="64.84" ry="18"/>
<text text-anchor="middle" x="515" y="-99.8" font-family="Times,serif" font-size="14.00">FormsService</text>
</g>
<!-- FormsService&#45;&gt;FormsModule -->
<g id="edge7" class="edge">
<title>FormsService&#45;&gt;FormsModule</title>
<path fill="none" stroke="black" d="M473,-117.78C473,-117.78 473,-140.55 473,-140.55"/>
<polygon fill="black" stroke="black" points="469.5,-140.55 473,-150.55 476.5,-140.55 469.5,-140.55"/>
</g>
</g>
</svg>
