<?xml version="1.0" encoding="UTF-8" standalone="no"?>
<!DOCTYPE svg PUBLIC "-//W3C//DTD SVG 1.1//EN"
 "http://www.w3.org/Graphics/SVG/1.1/DTD/svg11.dtd">
<!-- Generated by graphviz version 2.47.0 (20210316.0004)
 -->
<!-- Title: dependencies Pages: 1 -->
<svg width="597pt" height="284pt"
 viewBox="0.00 0.00 597.00 284.00" xmlns="http://www.w3.org/2000/svg" xmlns:xlink="http://www.w3.org/1999/xlink">
<g id="graph0" class="graph" transform="scale(1 1) rotate(0) translate(4 280)">
<title>dependencies</title>
<polygon fill="white" stroke="transparent" points="-4,4 -4,-280 593,-280 593,4 -4,4"/>
<text text-anchor="start" x="273.51" y="-42.4" font-family="Times-12" font-weight="bold" font-size="14.00">Legend</text>
<polygon fill="#ffffb3" stroke="transparent" points="60.5,-10 60.5,-30 80.5,-30 80.5,-10 60.5,-10"/>
<text text-anchor="start" x="84.13" y="-15.4" font-family="Times-12" font-size="14.00"> &#160;Declarations</text>
<polygon fill="#8dd3c7" stroke="transparent" points="173.5,-10 173.5,-30 193.5,-30 193.5,-10 173.5,-10"/>
<text text-anchor="start" x="197.23" y="-15.4" font-family="Times-12" font-size="14.00"> &#160;Module</text>
<polygon fill="#80b1d3" stroke="transparent" points="259.5,-10 259.5,-30 279.5,-30 279.5,-10 259.5,-10"/>
<text text-anchor="start" x="283.28" y="-15.4" font-family="Times-12" font-size="14.00"> &#160;Bootstrap</text>
<polygon fill="#fdb462" stroke="transparent" points="356.5,-10 356.5,-30 376.5,-30 376.5,-10 356.5,-10"/>
<text text-anchor="start" x="380.17" y="-15.4" font-family="Times-12" font-size="14.00"> &#160;Providers</text>
<polygon fill="#fb8072" stroke="transparent" points="452.5,-10 452.5,-30 472.5,-30 472.5,-10 452.5,-10"/>
<text text-anchor="start" x="476.23" y="-15.4" font-family="Times-12" font-size="14.00"> &#160;Exports</text>
<g id="clust1" class="cluster">
<title>cluster_TableModule</title>
<polygon fill="none" stroke="black" stroke-dasharray="1,5" points="8,-70 8,-268 581,-268 581,-70 8,-70"/>
</g>
<g id="clust6" class="cluster">
<title>cluster_TableModule_providers</title>
<polygon fill="none" stroke="black" points="237,-78 237,-130 573,-130 573,-78 237,-78"/>
</g>
<g id="clust3" class="cluster">
<title>cluster_TableModule_imports</title>
<polygon fill="none" stroke="black" points="16,-78 16,-130 229,-130 229,-78 16,-78"/>
</g>
<g id="clust4" class="cluster">
<title>cluster_TableModule_exports</title>
<polygon fill="none" stroke="black" points="168,-208 168,-260 316,-260 316,-208 168,-208"/>
</g>
<!-- AuthModule -->
<g id="node1" class="node">
<title>AuthModule</title>
<polygon fill="#8dd3c7" stroke="black" points="220.55,-122 217.55,-126 196.55,-126 193.55,-122 133.45,-122 133.45,-86 220.55,-86 220.55,-122"/>
<text text-anchor="middle" x="177" y="-99.8" font-family="Times,serif" font-size="14.00">AuthModule</text>
</g>
<!-- TableModule -->
<g id="node3" class="node">
<title>TableModule</title>
<polygon fill="#8dd3c7" stroke="black" points="287.92,-187 284.92,-191 263.92,-191 260.92,-187 196.08,-187 196.08,-151 287.92,-151 287.92,-187"/>
<text text-anchor="middle" x="242" y="-164.8" font-family="Times,serif" font-size="14.00">TableModule</text>
</g>
<!-- AuthModule&#45;&gt;TableModule -->
<g id="edge1" class="edge">
<title>AuthModule&#45;&gt;TableModule</title>
<path fill="none" stroke="black" d="M208.53,-122.11C208.53,-122.11 208.53,-140.99 208.53,-140.99"/>
<polygon fill="black" stroke="black" points="205.03,-140.99 208.53,-150.99 212.03,-140.99 205.03,-140.99"/>
</g>
<!-- UsersModule -->
<g id="node2" class="node">
<title>UsersModule</title>
<polygon fill="#8dd3c7" stroke="black" points="115.92,-122 112.92,-126 91.92,-126 88.92,-122 24.08,-122 24.08,-86 115.92,-86 115.92,-122"/>
<text text-anchor="middle" x="70" y="-99.8" font-family="Times,serif" font-size="14.00">UsersModule</text>
</g>
<!-- UsersModule&#45;&gt;TableModule -->
<g id="edge2" class="edge">
<title>UsersModule&#45;&gt;TableModule</title>
<path fill="none" stroke="black" d="M70,-122.11C70,-141.34 70,-169 70,-169 70,-169 185.91,-169 185.91,-169"/>
<polygon fill="black" stroke="black" points="185.91,-172.5 195.91,-169 185.91,-165.5 185.91,-172.5"/>
</g>
<!-- TableConfigService  -->
<g id="node4" class="node">
<title>TableConfigService </title>
<polygon fill="#fb8072" stroke="black" points="308.24,-252 175.76,-252 175.76,-216 308.24,-216 308.24,-252"/>
<text text-anchor="middle" x="242" y="-229.8" font-family="Times,serif" font-size="14.00">TableConfigService </text>
</g>
<!-- TableModule&#45;&gt;TableConfigService  -->
<g id="edge3" class="edge">
<title>TableModule&#45;&gt;TableConfigService </title>
<path fill="none" stroke="black" stroke-dasharray="5,2" d="M242,-187.11C242,-187.11 242,-205.99 242,-205.99"/>
<polygon fill="black" stroke="black" points="238.5,-205.99 242,-215.99 245.5,-205.99 238.5,-205.99"/>
</g>
<!-- TableConfigService -->
<g id="node5" class="node">
<title>TableConfigService</title>
<ellipse fill="#fdb462" stroke="black" cx="476" cy="-104" rx="88.6" ry="18"/>
<text text-anchor="middle" x="476" y="-99.8" font-family="Times,serif" font-size="14.00">TableConfigService</text>
</g>
<!-- TableConfigService&#45;&gt;TableModule -->
<g id="edge4" class="edge">
<title>TableConfigService&#45;&gt;TableModule</title>
<path fill="none" stroke="black" d="M476,-122.11C476,-141.34 476,-169 476,-169 476,-169 297.95,-169 297.95,-169"/>
<polygon fill="black" stroke="black" points="297.95,-165.5 287.95,-169 297.95,-172.5 297.95,-165.5"/>
</g>
<!-- TableService -->
<g id="node6" class="node">
<title>TableService</title>
<ellipse fill="#fdb462" stroke="black" cx="307" cy="-104" rx="61.95" ry="18"/>
<text text-anchor="middle" x="307" y="-99.8" font-family="Times,serif" font-size="14.00">TableService</text>
</g>
<!-- TableService&#45;&gt;TableModule -->
<g id="edge5" class="edge">
<title>TableService&#45;&gt;TableModule</title>
<path fill="none" stroke="black" d="M266.37,-117.78C266.37,-117.78 266.37,-140.55 266.37,-140.55"/>
<polygon fill="black" stroke="black" points="262.87,-140.55 266.37,-150.55 269.87,-140.55 262.87,-140.55"/>
</g>
</g>
</svg>
