<?xml version="1.0" encoding="UTF-8" standalone="no"?>
<!DOCTYPE svg PUBLIC "-//W3C//DTD SVG 1.1//EN"
 "http://www.w3.org/Graphics/SVG/1.1/DTD/svg11.dtd">
<!-- Generated by graphviz version 2.47.0 (20210316.0004)
 -->
<!-- Title: dependencies Pages: 1 -->
<svg width="550pt" height="284pt"
 viewBox="0.00 0.00 550.00 284.00" xmlns="http://www.w3.org/2000/svg" xmlns:xlink="http://www.w3.org/1999/xlink">
<g id="graph0" class="graph" transform="scale(1 1) rotate(0) translate(4 280)">
<title>dependencies</title>
<polygon fill="white" stroke="transparent" points="-4,4 -4,-280 546,-280 546,4 -4,4"/>
<text text-anchor="start" x="250.01" y="-42.4" font-family="Times-12" font-weight="bold" font-size="14.00">Legend</text>
<polygon fill="#ffffb3" stroke="transparent" points="37,-10 37,-30 57,-30 57,-10 37,-10"/>
<text text-anchor="start" x="60.63" y="-15.4" font-family="Times-12" font-size="14.00"> &#160;Declarations</text>
<polygon fill="#8dd3c7" stroke="transparent" points="150,-10 150,-30 170,-30 170,-10 150,-10"/>
<text text-anchor="start" x="173.73" y="-15.4" font-family="Times-12" font-size="14.00"> &#160;Module</text>
<polygon fill="#80b1d3" stroke="transparent" points="236,-10 236,-30 256,-30 256,-10 236,-10"/>
<text text-anchor="start" x="259.78" y="-15.4" font-family="Times-12" font-size="14.00"> &#160;Bootstrap</text>
<polygon fill="#fdb462" stroke="transparent" points="333,-10 333,-30 353,-30 353,-10 333,-10"/>
<text text-anchor="start" x="356.67" y="-15.4" font-family="Times-12" font-size="14.00"> &#160;Providers</text>
<polygon fill="#fb8072" stroke="transparent" points="429,-10 429,-30 449,-30 449,-10 429,-10"/>
<text text-anchor="start" x="452.73" y="-15.4" font-family="Times-12" font-size="14.00"> &#160;Exports</text>
<g id="clust1" class="cluster">
<title>cluster_ExpertModule</title>
<polygon fill="none" stroke="black" stroke-dasharray="1,5" points="8,-70 8,-268 534,-268 534,-70 8,-70"/>
</g>
<g id="clust4" class="cluster">
<title>cluster_ExpertModule_exports</title>
<polygon fill="none" stroke="black" points="169,-208 169,-260 283,-260 283,-208 169,-208"/>
</g>
<g id="clust3" class="cluster">
<title>cluster_ExpertModule_imports</title>
<polygon fill="none" stroke="black" points="172,-78 172,-130 526,-130 526,-78 172,-78"/>
</g>
<g id="clust6" class="cluster">
<title>cluster_ExpertModule_providers</title>
<polygon fill="none" stroke="black" points="16,-78 16,-130 164,-130 164,-78 16,-78"/>
</g>
<!-- AuthModule -->
<g id="node1" class="node">
<title>AuthModule</title>
<polygon fill="#8dd3c7" stroke="black" points="517.55,-122 514.55,-126 493.55,-126 490.55,-122 430.45,-122 430.45,-86 517.55,-86 517.55,-122"/>
<text text-anchor="middle" x="474" y="-99.8" font-family="Times,serif" font-size="14.00">AuthModule</text>
</g>
<!-- ExpertModule -->
<g id="node4" class="node">
<title>ExpertModule</title>
<polygon fill="#8dd3c7" stroke="black" points="274.37,-187 271.37,-191 250.37,-191 247.37,-187 177.63,-187 177.63,-151 274.37,-151 274.37,-187"/>
<text text-anchor="middle" x="226" y="-164.8" font-family="Times,serif" font-size="14.00">ExpertModule</text>
</g>
<!-- AuthModule&#45;&gt;ExpertModule -->
<g id="edge1" class="edge">
<title>AuthModule&#45;&gt;ExpertModule</title>
<path fill="none" stroke="black" d="M474,-122.28C474,-143.32 474,-175 474,-175 474,-175 284.41,-175 284.41,-175"/>
<polygon fill="black" stroke="black" points="284.41,-171.5 274.41,-175 284.41,-178.5 284.41,-171.5"/>
</g>
<!-- DownloadsModule -->
<g id="node2" class="node">
<title>DownloadsModule</title>
<polygon fill="#8dd3c7" stroke="black" points="412.81,-122 409.81,-126 388.81,-126 385.81,-122 289.19,-122 289.19,-86 412.81,-86 412.81,-122"/>
<text text-anchor="middle" x="351" y="-99.8" font-family="Times,serif" font-size="14.00">DownloadsModule</text>
</g>
<!-- DownloadsModule&#45;&gt;ExpertModule -->
<g id="edge2" class="edge">
<title>DownloadsModule&#45;&gt;ExpertModule</title>
<path fill="none" stroke="black" d="M351,-122.02C351,-139.37 351,-163 351,-163 351,-163 284.69,-163 284.69,-163"/>
<polygon fill="black" stroke="black" points="284.69,-159.5 274.69,-163 284.69,-166.5 284.69,-159.5"/>
</g>
<!-- UsersModule -->
<g id="node3" class="node">
<title>UsersModule</title>
<polygon fill="#8dd3c7" stroke="black" points="271.92,-122 268.92,-126 247.92,-126 244.92,-122 180.08,-122 180.08,-86 271.92,-86 271.92,-122"/>
<text text-anchor="middle" x="226" y="-99.8" font-family="Times,serif" font-size="14.00">UsersModule</text>
</g>
<!-- UsersModule&#45;&gt;ExpertModule -->
<g id="edge3" class="edge">
<title>UsersModule&#45;&gt;ExpertModule</title>
<path fill="none" stroke="black" d="M210.76,-122.11C210.76,-122.11 210.76,-140.99 210.76,-140.99"/>
<polygon fill="black" stroke="black" points="207.26,-140.99 210.76,-150.99 214.26,-140.99 207.26,-140.99"/>
</g>
<!-- UsersModule&#45;&gt;ExpertModule -->
<g id="edge4" class="edge">
<title>UsersModule&#45;&gt;ExpertModule</title>
<path fill="none" stroke="black" d="M241.24,-122.11C241.24,-122.11 241.24,-140.99 241.24,-140.99"/>
<polygon fill="black" stroke="black" points="237.74,-140.99 241.24,-150.99 244.74,-140.99 237.74,-140.99"/>
</g>
<!-- ExpertService  -->
<g id="node5" class="node">
<title>ExpertService </title>
<polygon fill="#fb8072" stroke="black" points="275.3,-252 176.7,-252 176.7,-216 275.3,-216 275.3,-252"/>
<text text-anchor="middle" x="226" y="-229.8" font-family="Times,serif" font-size="14.00">ExpertService </text>
</g>
<!-- ExpertModule&#45;&gt;ExpertService  -->
<g id="edge5" class="edge">
<title>ExpertModule&#45;&gt;ExpertService </title>
<path fill="none" stroke="black" stroke-dasharray="5,2" d="M226,-187.11C226,-187.11 226,-205.99 226,-205.99"/>
<polygon fill="black" stroke="black" points="222.5,-205.99 226,-215.99 229.5,-205.99 222.5,-205.99"/>
</g>
<!-- ExpertService -->
<g id="node6" class="node">
<title>ExpertService</title>
<ellipse fill="#fdb462" stroke="black" cx="90" cy="-104" rx="65.97" ry="18"/>
<text text-anchor="middle" x="90" y="-99.8" font-family="Times,serif" font-size="14.00">ExpertService</text>
</g>
<!-- ExpertService&#45;&gt;ExpertModule -->
<g id="edge6" class="edge">
<title>ExpertService&#45;&gt;ExpertModule</title>
<path fill="none" stroke="black" d="M90,-122.11C90,-141.34 90,-169 90,-169 90,-169 167.29,-169 167.29,-169"/>
<polygon fill="black" stroke="black" points="167.29,-172.5 177.29,-169 167.28,-165.5 167.29,-172.5"/>
</g>
</g>
</svg>
