<?xml version="1.0" encoding="UTF-8" standalone="no"?>
<!DOCTYPE svg PUBLIC "-//W3C//DTD SVG 1.1//EN"
 "http://www.w3.org/Graphics/SVG/1.1/DTD/svg11.dtd">
<!-- Generated by graphviz version 2.47.0 (20210316.0004)
 -->
<!-- Title: dependencies Pages: 1 -->
<svg width="504pt" height="284pt"
 viewBox="0.00 0.00 504.00 284.00" xmlns="http://www.w3.org/2000/svg" xmlns:xlink="http://www.w3.org/1999/xlink">
<g id="graph0" class="graph" transform="scale(1 1) rotate(0) translate(4 280)">
<title>dependencies</title>
<polygon fill="white" stroke="transparent" points="-4,4 -4,-280 500,-280 500,4 -4,4"/>
<text text-anchor="start" x="227.01" y="-42.4" font-family="Times-12" font-weight="bold" font-size="14.00">Legend</text>
<polygon fill="#ffffb3" stroke="transparent" points="14,-10 14,-30 34,-30 34,-10 14,-10"/>
<text text-anchor="start" x="37.63" y="-15.4" font-family="Times-12" font-size="14.00"> &#160;Declarations</text>
<polygon fill="#8dd3c7" stroke="transparent" points="127,-10 127,-30 147,-30 147,-10 127,-10"/>
<text text-anchor="start" x="150.73" y="-15.4" font-family="Times-12" font-size="14.00"> &#160;Module</text>
<polygon fill="#80b1d3" stroke="transparent" points="213,-10 213,-30 233,-30 233,-10 213,-10"/>
<text text-anchor="start" x="236.78" y="-15.4" font-family="Times-12" font-size="14.00"> &#160;Bootstrap</text>
<polygon fill="#fdb462" stroke="transparent" points="310,-10 310,-30 330,-30 330,-10 310,-10"/>
<text text-anchor="start" x="333.67" y="-15.4" font-family="Times-12" font-size="14.00"> &#160;Providers</text>
<polygon fill="#fb8072" stroke="transparent" points="406,-10 406,-30 426,-30 426,-10 406,-10"/>
<text text-anchor="start" x="429.73" y="-15.4" font-family="Times-12" font-size="14.00"> &#160;Exports</text>
<g id="clust1" class="cluster">
<title>cluster_TermsOfUseModule</title>
<polygon fill="none" stroke="black" stroke-dasharray="1,5" points="27,-70 27,-268 469,-268 469,-70 27,-70"/>
</g>
<g id="clust4" class="cluster">
<title>cluster_TermsOfUseModule_exports</title>
<polygon fill="none" stroke="black" points="130,-208 130,-260 280,-260 280,-208 130,-208"/>
</g>
<g id="clust6" class="cluster">
<title>cluster_TermsOfUseModule_providers</title>
<polygon fill="none" stroke="black" points="265,-78 265,-130 461,-130 461,-78 265,-78"/>
</g>
<g id="clust3" class="cluster">
<title>cluster_TermsOfUseModule_imports</title>
<polygon fill="none" stroke="black" points="35,-78 35,-130 257,-130 257,-78 35,-78"/>
</g>
<!-- AuthModule -->
<g id="node1" class="node">
<title>AuthModule</title>
<polygon fill="#8dd3c7" stroke="black" points="248.55,-122 245.55,-126 224.55,-126 221.55,-122 161.45,-122 161.45,-86 248.55,-86 248.55,-122"/>
<text text-anchor="middle" x="205" y="-99.8" font-family="Times,serif" font-size="14.00">AuthModule</text>
</g>
<!-- TermsOfUseModule -->
<g id="node3" class="node">
<title>TermsOfUseModule</title>
<polygon fill="#8dd3c7" stroke="black" points="270.85,-187 267.85,-191 246.85,-191 243.85,-187 139.15,-187 139.15,-151 270.85,-151 270.85,-187"/>
<text text-anchor="middle" x="205" y="-164.8" font-family="Times,serif" font-size="14.00">TermsOfUseModule</text>
</g>
<!-- AuthModule&#45;&gt;TermsOfUseModule -->
<g id="edge1" class="edge">
<title>AuthModule&#45;&gt;TermsOfUseModule</title>
<path fill="none" stroke="black" d="M205,-122.11C205,-122.11 205,-140.99 205,-140.99"/>
<polygon fill="black" stroke="black" points="201.5,-140.99 205,-150.99 208.5,-140.99 201.5,-140.99"/>
</g>
<!-- LoggerModule -->
<g id="node2" class="node">
<title>LoggerModule</title>
<polygon fill="#8dd3c7" stroke="black" points="142.98,-122 139.98,-126 118.98,-126 115.98,-122 43.02,-122 43.02,-86 142.98,-86 142.98,-122"/>
<text text-anchor="middle" x="93" y="-99.8" font-family="Times,serif" font-size="14.00">LoggerModule</text>
</g>
<!-- LoggerModule&#45;&gt;TermsOfUseModule -->
<g id="edge2" class="edge">
<title>LoggerModule&#45;&gt;TermsOfUseModule</title>
<path fill="none" stroke="black" d="M143.13,-104C148.53,-104 152.11,-104 152.11,-104 152.11,-104 152.11,-140.89 152.11,-140.89"/>
<polygon fill="black" stroke="black" points="148.61,-140.89 152.11,-150.89 155.61,-140.89 148.61,-140.89"/>
</g>
<!-- TermsOfUseService  -->
<g id="node4" class="node">
<title>TermsOfUseService </title>
<polygon fill="#fb8072" stroke="black" points="271.77,-252 138.23,-252 138.23,-216 271.77,-216 271.77,-252"/>
<text text-anchor="middle" x="205" y="-229.8" font-family="Times,serif" font-size="14.00">TermsOfUseService </text>
</g>
<!-- TermsOfUseModule&#45;&gt;TermsOfUseService  -->
<g id="edge3" class="edge">
<title>TermsOfUseModule&#45;&gt;TermsOfUseService </title>
<path fill="none" stroke="black" stroke-dasharray="5,2" d="M205,-187.11C205,-187.11 205,-205.99 205,-205.99"/>
<polygon fill="black" stroke="black" points="201.5,-205.99 205,-215.99 208.5,-205.99 201.5,-205.99"/>
</g>
<!-- TermsOfUseService -->
<g id="node5" class="node">
<title>TermsOfUseService</title>
<ellipse fill="#fdb462" stroke="black" cx="363" cy="-104" rx="89.72" ry="18"/>
<text text-anchor="middle" x="363" y="-99.8" font-family="Times,serif" font-size="14.00">TermsOfUseService</text>
</g>
<!-- TermsOfUseService&#45;&gt;TermsOfUseModule -->
<g id="edge4" class="edge">
<title>TermsOfUseService&#45;&gt;TermsOfUseModule</title>
<path fill="none" stroke="black" d="M272.91,-104C264.96,-104 259.85,-104 259.85,-104 259.85,-104 259.85,-140.89 259.85,-140.89"/>
<polygon fill="black" stroke="black" points="256.35,-140.89 259.85,-150.89 263.35,-140.89 256.35,-140.89"/>
</g>
</g>
</svg>
