<?xml version="1.0" encoding="UTF-8" standalone="no"?>
<!DOCTYPE svg PUBLIC "-//W3C//DTD SVG 1.1//EN"
 "http://www.w3.org/Graphics/SVG/1.1/DTD/svg11.dtd">
<!-- Generated by graphviz version 2.47.0 (20210316.0004)
 -->
<!-- Title: dependencies Pages: 1 -->
<svg width="562pt" height="284pt"
 viewBox="0.00 0.00 562.00 284.00" xmlns="http://www.w3.org/2000/svg" xmlns:xlink="http://www.w3.org/1999/xlink">
<g id="graph0" class="graph" transform="scale(1 1) rotate(0) translate(4 280)">
<title>dependencies</title>
<polygon fill="white" stroke="transparent" points="-4,4 -4,-280 558,-280 558,4 -4,4"/>
<text text-anchor="start" x="256.01" y="-42.4" font-family="Times-12" font-weight="bold" font-size="14.00">Legend</text>
<polygon fill="#ffffb3" stroke="transparent" points="43,-10 43,-30 63,-30 63,-10 43,-10"/>
<text text-anchor="start" x="66.63" y="-15.4" font-family="Times-12" font-size="14.00"> &#160;Declarations</text>
<polygon fill="#8dd3c7" stroke="transparent" points="156,-10 156,-30 176,-30 176,-10 156,-10"/>
<text text-anchor="start" x="179.73" y="-15.4" font-family="Times-12" font-size="14.00"> &#160;Module</text>
<polygon fill="#80b1d3" stroke="transparent" points="242,-10 242,-30 262,-30 262,-10 242,-10"/>
<text text-anchor="start" x="265.78" y="-15.4" font-family="Times-12" font-size="14.00"> &#160;Bootstrap</text>
<polygon fill="#fdb462" stroke="transparent" points="339,-10 339,-30 359,-30 359,-10 339,-10"/>
<text text-anchor="start" x="362.67" y="-15.4" font-family="Times-12" font-size="14.00"> &#160;Providers</text>
<polygon fill="#fb8072" stroke="transparent" points="435,-10 435,-30 455,-30 455,-10 435,-10"/>
<text text-anchor="start" x="458.73" y="-15.4" font-family="Times-12" font-size="14.00"> &#160;Exports</text>
<g id="clust1" class="cluster">
<title>cluster_InvestorModule</title>
<polygon fill="none" stroke="black" stroke-dasharray="1,5" points="8,-70 8,-268 546,-268 546,-70 8,-70"/>
</g>
<g id="clust6" class="cluster">
<title>cluster_InvestorModule_providers</title>
<polygon fill="none" stroke="black" points="378,-78 378,-130 538,-130 538,-78 378,-78"/>
</g>
<g id="clust3" class="cluster">
<title>cluster_InvestorModule_imports</title>
<polygon fill="none" stroke="black" points="16,-78 16,-130 370,-130 370,-78 16,-78"/>
</g>
<g id="clust4" class="cluster">
<title>cluster_InvestorModule_exports</title>
<polygon fill="none" stroke="black" points="194,-208 194,-260 318,-260 318,-208 194,-208"/>
</g>
<!-- AuthModule -->
<g id="node1" class="node">
<title>AuthModule</title>
<polygon fill="#8dd3c7" stroke="black" points="361.55,-122 358.55,-126 337.55,-126 334.55,-122 274.45,-122 274.45,-86 361.55,-86 361.55,-122"/>
<text text-anchor="middle" x="318" y="-99.8" font-family="Times,serif" font-size="14.00">AuthModule</text>
</g>
<!-- InvestorModule -->
<g id="node4" class="node">
<title>InvestorModule</title>
<polygon fill="#8dd3c7" stroke="black" points="308.92,-187 305.92,-191 284.92,-191 281.92,-187 203.08,-187 203.08,-151 308.92,-151 308.92,-187"/>
<text text-anchor="middle" x="256" y="-164.8" font-family="Times,serif" font-size="14.00">InvestorModule</text>
</g>
<!-- AuthModule&#45;&gt;InvestorModule -->
<g id="edge1" class="edge">
<title>AuthModule&#45;&gt;InvestorModule</title>
<path fill="none" stroke="black" d="M291.47,-122.11C291.47,-122.11 291.47,-140.99 291.47,-140.99"/>
<polygon fill="black" stroke="black" points="287.97,-140.99 291.47,-150.99 294.97,-140.99 287.97,-140.99"/>
</g>
<!-- DownloadsModule -->
<g id="node2" class="node">
<title>DownloadsModule</title>
<polygon fill="#8dd3c7" stroke="black" points="256.81,-122 253.81,-126 232.81,-126 229.81,-122 133.19,-122 133.19,-86 256.81,-86 256.81,-122"/>
<text text-anchor="middle" x="195" y="-99.8" font-family="Times,serif" font-size="14.00">DownloadsModule</text>
</g>
<!-- DownloadsModule&#45;&gt;InvestorModule -->
<g id="edge2" class="edge">
<title>DownloadsModule&#45;&gt;InvestorModule</title>
<path fill="none" stroke="black" d="M229.97,-122.11C229.97,-122.11 229.97,-140.99 229.97,-140.99"/>
<polygon fill="black" stroke="black" points="226.47,-140.99 229.97,-150.99 233.47,-140.99 226.47,-140.99"/>
</g>
<!-- UsersModule -->
<g id="node3" class="node">
<title>UsersModule</title>
<polygon fill="#8dd3c7" stroke="black" points="115.92,-122 112.92,-126 91.92,-126 88.92,-122 24.08,-122 24.08,-86 115.92,-86 115.92,-122"/>
<text text-anchor="middle" x="70" y="-99.8" font-family="Times,serif" font-size="14.00">UsersModule</text>
</g>
<!-- UsersModule&#45;&gt;InvestorModule -->
<g id="edge3" class="edge">
<title>UsersModule&#45;&gt;InvestorModule</title>
<path fill="none" stroke="black" d="M70,-122.11C70,-141.34 70,-169 70,-169 70,-169 193.2,-169 193.2,-169"/>
<polygon fill="black" stroke="black" points="193.2,-172.5 203.2,-169 193.2,-165.5 193.2,-172.5"/>
</g>
<!-- InvestorService  -->
<g id="node5" class="node">
<title>InvestorService </title>
<polygon fill="#fb8072" stroke="black" points="309.85,-252 202.15,-252 202.15,-216 309.85,-216 309.85,-252"/>
<text text-anchor="middle" x="256" y="-229.8" font-family="Times,serif" font-size="14.00">InvestorService </text>
</g>
<!-- InvestorModule&#45;&gt;InvestorService  -->
<g id="edge4" class="edge">
<title>InvestorModule&#45;&gt;InvestorService </title>
<path fill="none" stroke="black" stroke-dasharray="5,2" d="M256,-187.11C256,-187.11 256,-205.99 256,-205.99"/>
<polygon fill="black" stroke="black" points="252.5,-205.99 256,-215.99 259.5,-205.99 252.5,-205.99"/>
</g>
<!-- InvestorService -->
<g id="node6" class="node">
<title>InvestorService</title>
<ellipse fill="#fdb462" stroke="black" cx="458" cy="-104" rx="71.77" ry="18"/>
<text text-anchor="middle" x="458" y="-99.8" font-family="Times,serif" font-size="14.00">InvestorService</text>
</g>
<!-- InvestorService&#45;&gt;InvestorModule -->
<g id="edge5" class="edge">
<title>InvestorService&#45;&gt;InvestorModule</title>
<path fill="none" stroke="black" d="M458,-122.11C458,-141.34 458,-169 458,-169 458,-169 318.81,-169 318.81,-169"/>
<polygon fill="black" stroke="black" points="318.81,-165.5 308.81,-169 318.81,-172.5 318.81,-165.5"/>
</g>
</g>
</svg>
