<?xml version="1.0" encoding="UTF-8" standalone="no"?>
<!DOCTYPE svg PUBLIC "-//W3C//DTD SVG 1.1//EN"
 "http://www.w3.org/Graphics/SVG/1.1/DTD/svg11.dtd">
<!-- Generated by graphviz version 2.47.0 (20210316.0004)
 -->
<!-- Title: dependencies Pages: 1 -->
<svg width="955pt" height="284pt"
 viewBox="0.00 0.00 955.00 284.00" xmlns="http://www.w3.org/2000/svg" xmlns:xlink="http://www.w3.org/1999/xlink">
<g id="graph0" class="graph" transform="scale(1 1) rotate(0) translate(4 280)">
<title>dependencies</title>
<polygon fill="white" stroke="transparent" points="-4,4 -4,-280 951,-280 951,4 -4,4"/>
<text text-anchor="start" x="452.51" y="-42.4" font-family="Times-12" font-weight="bold" font-size="14.00">Legend</text>
<polygon fill="#ffffb3" stroke="transparent" points="239.5,-10 239.5,-30 259.5,-30 259.5,-10 239.5,-10"/>
<text text-anchor="start" x="263.13" y="-15.4" font-family="Times-12" font-size="14.00"> &#160;Declarations</text>
<polygon fill="#8dd3c7" stroke="transparent" points="352.5,-10 352.5,-30 372.5,-30 372.5,-10 352.5,-10"/>
<text text-anchor="start" x="376.23" y="-15.4" font-family="Times-12" font-size="14.00"> &#160;Module</text>
<polygon fill="#80b1d3" stroke="transparent" points="438.5,-10 438.5,-30 458.5,-30 458.5,-10 438.5,-10"/>
<text text-anchor="start" x="462.28" y="-15.4" font-family="Times-12" font-size="14.00"> &#160;Bootstrap</text>
<polygon fill="#fdb462" stroke="transparent" points="535.5,-10 535.5,-30 555.5,-30 555.5,-10 535.5,-10"/>
<text text-anchor="start" x="559.17" y="-15.4" font-family="Times-12" font-size="14.00"> &#160;Providers</text>
<polygon fill="#fb8072" stroke="transparent" points="631.5,-10 631.5,-30 651.5,-30 651.5,-10 631.5,-10"/>
<text text-anchor="start" x="655.23" y="-15.4" font-family="Times-12" font-size="14.00"> &#160;Exports</text>
<g id="clust1" class="cluster">
<title>cluster_PhasesModule</title>
<polygon fill="none" stroke="black" stroke-dasharray="1,5" points="8,-70 8,-268 939,-268 939,-70 8,-70"/>
</g>
<g id="clust3" class="cluster">
<title>cluster_PhasesModule_imports</title>
<polygon fill="none" stroke="black" points="172,-78 172,-130 931,-130 931,-78 172,-78"/>
</g>
<g id="clust4" class="cluster">
<title>cluster_PhasesModule_exports</title>
<polygon fill="none" stroke="black" points="417,-208 417,-260 533,-260 533,-208 417,-208"/>
</g>
<g id="clust6" class="cluster">
<title>cluster_PhasesModule_providers</title>
<polygon fill="none" stroke="black" points="16,-78 16,-130 164,-130 164,-78 16,-78"/>
</g>
<!-- ActivitiesConfigModule -->
<g id="node1" class="node">
<title>ActivitiesConfigModule</title>
<polygon fill="#8dd3c7" stroke="black" points="923.37,-122 920.37,-126 899.37,-126 896.37,-122 770.63,-122 770.63,-86 923.37,-86 923.37,-122"/>
<text text-anchor="middle" x="847" y="-99.8" font-family="Times,serif" font-size="14.00">ActivitiesConfigModule</text>
</g>
<!-- PhasesModule -->
<g id="node7" class="node">
<title>PhasesModule</title>
<polygon fill="#8dd3c7" stroke="black" points="523.65,-187 520.65,-191 499.65,-191 496.65,-187 426.35,-187 426.35,-151 523.65,-151 523.65,-187"/>
<text text-anchor="middle" x="475" y="-164.8" font-family="Times,serif" font-size="14.00">PhasesModule</text>
</g>
<!-- ActivitiesConfigModule&#45;&gt;PhasesModule -->
<g id="edge1" class="edge">
<title>ActivitiesConfigModule&#45;&gt;PhasesModule</title>
<path fill="none" stroke="black" d="M847,-122.29C847,-144.21 847,-178 847,-178 847,-178 534.02,-178 534.02,-178"/>
<polygon fill="black" stroke="black" points="534.02,-174.5 524.02,-178 534.02,-181.5 534.02,-174.5"/>
</g>
<!-- AuthModule -->
<g id="node2" class="node">
<title>AuthModule</title>
<polygon fill="#8dd3c7" stroke="black" points="752.55,-122 749.55,-126 728.55,-126 725.55,-122 665.45,-122 665.45,-86 752.55,-86 752.55,-122"/>
<text text-anchor="middle" x="709" y="-99.8" font-family="Times,serif" font-size="14.00">AuthModule</text>
</g>
<!-- AuthModule&#45;&gt;PhasesModule -->
<g id="edge2" class="edge">
<title>AuthModule&#45;&gt;PhasesModule</title>
<path fill="none" stroke="black" d="M709,-122.11C709,-141.34 709,-169 709,-169 709,-169 533.77,-169 533.77,-169"/>
<polygon fill="black" stroke="black" points="533.77,-165.5 523.77,-169 533.77,-172.5 533.77,-165.5"/>
</g>
<!-- ContentModule -->
<g id="node3" class="node">
<title>ContentModule</title>
<polygon fill="#8dd3c7" stroke="black" points="646.88,-122 643.88,-126 622.88,-126 619.88,-122 543.12,-122 543.12,-86 646.88,-86 646.88,-122"/>
<text text-anchor="middle" x="595" y="-99.8" font-family="Times,serif" font-size="14.00">ContentModule</text>
</g>
<!-- ContentModule&#45;&gt;PhasesModule -->
<g id="edge3" class="edge">
<title>ContentModule&#45;&gt;PhasesModule</title>
<path fill="none" stroke="black" d="M595,-122.03C595,-138.4 595,-160 595,-160 595,-160 533.81,-160 533.81,-160"/>
<polygon fill="black" stroke="black" points="533.81,-156.5 523.81,-160 533.81,-163.5 533.81,-156.5"/>
</g>
<!-- LoggerModule -->
<g id="node4" class="node">
<title>LoggerModule</title>
<polygon fill="#8dd3c7" stroke="black" points="524.98,-122 521.98,-126 500.98,-126 497.98,-122 425.02,-122 425.02,-86 524.98,-86 524.98,-122"/>
<text text-anchor="middle" x="475" y="-99.8" font-family="Times,serif" font-size="14.00">LoggerModule</text>
</g>
<!-- LoggerModule&#45;&gt;PhasesModule -->
<g id="edge4" class="edge">
<title>LoggerModule&#45;&gt;PhasesModule</title>
<path fill="none" stroke="black" d="M475,-122.11C475,-122.11 475,-140.99 475,-140.99"/>
<polygon fill="black" stroke="black" points="471.5,-140.99 475,-150.99 478.5,-140.99 471.5,-140.99"/>
</g>
<!-- ResourcesModule -->
<g id="node5" class="node">
<title>ResourcesModule</title>
<polygon fill="#8dd3c7" stroke="black" points="406.58,-122 403.58,-126 382.58,-126 379.58,-122 289.42,-122 289.42,-86 406.58,-86 406.58,-122"/>
<text text-anchor="middle" x="348" y="-99.8" font-family="Times,serif" font-size="14.00">ResourcesModule</text>
</g>
<!-- ResourcesModule&#45;&gt;PhasesModule -->
<g id="edge5" class="edge">
<title>ResourcesModule&#45;&gt;PhasesModule</title>
<path fill="none" stroke="black" d="M348,-122.03C348,-138.4 348,-160 348,-160 348,-160 416.26,-160 416.26,-160"/>
<polygon fill="black" stroke="black" points="416.26,-163.5 426.26,-160 416.26,-156.5 416.26,-163.5"/>
</g>
<!-- UsersModule -->
<g id="node6" class="node">
<title>UsersModule</title>
<polygon fill="#8dd3c7" stroke="black" points="271.92,-122 268.92,-126 247.92,-126 244.92,-122 180.08,-122 180.08,-86 271.92,-86 271.92,-122"/>
<text text-anchor="middle" x="226" y="-99.8" font-family="Times,serif" font-size="14.00">UsersModule</text>
</g>
<!-- UsersModule&#45;&gt;PhasesModule -->
<g id="edge6" class="edge">
<title>UsersModule&#45;&gt;PhasesModule</title>
<path fill="none" stroke="black" d="M226,-122.11C226,-141.34 226,-169 226,-169 226,-169 416.1,-169 416.1,-169"/>
<polygon fill="black" stroke="black" points="416.1,-172.5 426.1,-169 416.1,-165.5 416.1,-172.5"/>
</g>
<!-- PhasesService  -->
<g id="node8" class="node">
<title>PhasesService </title>
<polygon fill="#fb8072" stroke="black" points="524.58,-252 425.42,-252 425.42,-216 524.58,-216 524.58,-252"/>
<text text-anchor="middle" x="475" y="-229.8" font-family="Times,serif" font-size="14.00">PhasesService </text>
</g>
<!-- PhasesModule&#45;&gt;PhasesService  -->
<g id="edge7" class="edge">
<title>PhasesModule&#45;&gt;PhasesService </title>
<path fill="none" stroke="black" stroke-dasharray="5,2" d="M475,-187.11C475,-187.11 475,-205.99 475,-205.99"/>
<polygon fill="black" stroke="black" points="471.5,-205.99 475,-215.99 478.5,-205.99 471.5,-205.99"/>
</g>
<!-- PhasesService -->
<g id="node9" class="node">
<title>PhasesService</title>
<ellipse fill="#fdb462" stroke="black" cx="90" cy="-104" rx="66.05" ry="18"/>
<text text-anchor="middle" x="90" y="-99.8" font-family="Times,serif" font-size="14.00">PhasesService</text>
</g>
<!-- PhasesService&#45;&gt;PhasesModule -->
<g id="edge8" class="edge">
<title>PhasesService&#45;&gt;PhasesModule</title>
<path fill="none" stroke="black" d="M90,-122.29C90,-144.21 90,-178 90,-178 90,-178 416.24,-178 416.24,-178"/>
<polygon fill="black" stroke="black" points="416.24,-181.5 426.24,-178 416.24,-174.5 416.24,-181.5"/>
</g>
</g>
</svg>
