<?xml version="1.0" encoding="UTF-8" standalone="no"?>
<!DOCTYPE svg PUBLIC "-//W3C//DTD SVG 1.1//EN"
 "http://www.w3.org/Graphics/SVG/1.1/DTD/svg11.dtd">
<!-- Generated by graphviz version 2.47.0 (20210316.0004)
 -->
<!-- Title: dependencies Pages: 1 -->
<svg width="504pt" height="284pt"
 viewBox="0.00 0.00 504.00 284.00" xmlns="http://www.w3.org/2000/svg" xmlns:xlink="http://www.w3.org/1999/xlink">
<g id="graph0" class="graph" transform="scale(1 1) rotate(0) translate(4 280)">
<title>dependencies</title>
<polygon fill="white" stroke="transparent" points="-4,4 -4,-280 500,-280 500,4 -4,4"/>
<text text-anchor="start" x="227.01" y="-42.4" font-family="Times-12" font-weight="bold" font-size="14.00">Legend</text>
<polygon fill="#ffffb3" stroke="transparent" points="14,-10 14,-30 34,-30 34,-10 14,-10"/>
<text text-anchor="start" x="37.63" y="-15.4" font-family="Times-12" font-size="14.00"> &#160;Declarations</text>
<polygon fill="#8dd3c7" stroke="transparent" points="127,-10 127,-30 147,-30 147,-10 127,-10"/>
<text text-anchor="start" x="150.73" y="-15.4" font-family="Times-12" font-size="14.00"> &#160;Module</text>
<polygon fill="#80b1d3" stroke="transparent" points="213,-10 213,-30 233,-30 233,-10 213,-10"/>
<text text-anchor="start" x="236.78" y="-15.4" font-family="Times-12" font-size="14.00"> &#160;Bootstrap</text>
<polygon fill="#fdb462" stroke="transparent" points="310,-10 310,-30 330,-30 330,-10 310,-10"/>
<text text-anchor="start" x="333.67" y="-15.4" font-family="Times-12" font-size="14.00"> &#160;Providers</text>
<polygon fill="#fb8072" stroke="transparent" points="406,-10 406,-30 426,-30 426,-10 406,-10"/>
<text text-anchor="start" x="429.73" y="-15.4" font-family="Times-12" font-size="14.00"> &#160;Exports</text>
<g id="clust1" class="cluster">
<title>cluster_StagesModule</title>
<polygon fill="none" stroke="black" stroke-dasharray="1,5" points="52,-70 52,-268 444,-268 444,-70 52,-70"/>
</g>
<g id="clust4" class="cluster">
<title>cluster_StagesModule_exports</title>
<polygon fill="none" stroke="black" points="215,-208 215,-260 329,-260 329,-208 215,-208"/>
</g>
<g id="clust3" class="cluster">
<title>cluster_StagesModule_imports</title>
<polygon fill="none" stroke="black" points="214,-78 214,-130 436,-130 436,-78 214,-78"/>
</g>
<g id="clust6" class="cluster">
<title>cluster_StagesModule_providers</title>
<polygon fill="none" stroke="black" points="60,-78 60,-130 206,-130 206,-78 60,-78"/>
</g>
<!-- AuthModule -->
<g id="node1" class="node">
<title>AuthModule</title>
<polygon fill="#8dd3c7" stroke="black" points="427.55,-122 424.55,-126 403.55,-126 400.55,-122 340.45,-122 340.45,-86 427.55,-86 427.55,-122"/>
<text text-anchor="middle" x="384" y="-99.8" font-family="Times,serif" font-size="14.00">AuthModule</text>
</g>
<!-- StagesModule -->
<g id="node3" class="node">
<title>StagesModule</title>
<polygon fill="#8dd3c7" stroke="black" points="320.1,-187 317.1,-191 296.1,-191 293.1,-187 223.9,-187 223.9,-151 320.1,-151 320.1,-187"/>
<text text-anchor="middle" x="272" y="-164.8" font-family="Times,serif" font-size="14.00">StagesModule</text>
</g>
<!-- AuthModule&#45;&gt;StagesModule -->
<g id="edge1" class="edge">
<title>AuthModule&#45;&gt;StagesModule</title>
<path fill="none" stroke="black" d="M384,-122.11C384,-141.34 384,-169 384,-169 384,-169 330.15,-169 330.15,-169"/>
<polygon fill="black" stroke="black" points="330.15,-165.5 320.15,-169 330.15,-172.5 330.15,-165.5"/>
</g>
<!-- LoggerModule -->
<g id="node2" class="node">
<title>LoggerModule</title>
<polygon fill="#8dd3c7" stroke="black" points="321.98,-122 318.98,-126 297.98,-126 294.98,-122 222.02,-122 222.02,-86 321.98,-86 321.98,-122"/>
<text text-anchor="middle" x="272" y="-99.8" font-family="Times,serif" font-size="14.00">LoggerModule</text>
</g>
<!-- LoggerModule&#45;&gt;StagesModule -->
<g id="edge2" class="edge">
<title>LoggerModule&#45;&gt;StagesModule</title>
<path fill="none" stroke="black" d="M272,-122.11C272,-122.11 272,-140.99 272,-140.99"/>
<polygon fill="black" stroke="black" points="268.5,-140.99 272,-150.99 275.5,-140.99 268.5,-140.99"/>
</g>
<!-- StagesService  -->
<g id="node4" class="node">
<title>StagesService </title>
<polygon fill="#fb8072" stroke="black" points="321.02,-252 222.98,-252 222.98,-216 321.02,-216 321.02,-252"/>
<text text-anchor="middle" x="272" y="-229.8" font-family="Times,serif" font-size="14.00">StagesService </text>
</g>
<!-- StagesModule&#45;&gt;StagesService  -->
<g id="edge3" class="edge">
<title>StagesModule&#45;&gt;StagesService </title>
<path fill="none" stroke="black" stroke-dasharray="5,2" d="M272,-187.11C272,-187.11 272,-205.99 272,-205.99"/>
<polygon fill="black" stroke="black" points="268.5,-205.99 272,-215.99 275.5,-205.99 268.5,-205.99"/>
</g>
<!-- StagesService -->
<g id="node5" class="node">
<title>StagesService</title>
<ellipse fill="#fdb462" stroke="black" cx="133" cy="-104" rx="65.4" ry="18"/>
<text text-anchor="middle" x="133" y="-99.8" font-family="Times,serif" font-size="14.00">StagesService</text>
</g>
<!-- StagesService&#45;&gt;StagesModule -->
<g id="edge4" class="edge">
<title>StagesService&#45;&gt;StagesModule</title>
<path fill="none" stroke="black" d="M133,-122.11C133,-141.34 133,-169 133,-169 133,-169 213.77,-169 213.77,-169"/>
<polygon fill="black" stroke="black" points="213.77,-172.5 223.77,-169 213.77,-165.5 213.77,-172.5"/>
</g>
</g>
</svg>
